<?xml version="1.0" encoding="UTF-8"?>
<svg width="80px" height="48px" viewBox="0 0 80 48" version="1.1" xmlns="http://www.w3.org/2000/svg" xmlns:xlink="http://www.w3.org/1999/xlink" style="background: #FFFFFF;">
    <!-- Generator: Sketch 49.3 (51167) - http://www.bohemiancoding.com/sketch -->
    <title>adidas</title>
    <desc>Created with Sketch.</desc>
    <defs></defs>
    <g id="adidas" stroke="none" stroke-width="1" fill="none" fill-rule="evenodd">
        <rect id="bg" fill-opacity="0" fill="#FFFFFF" x="0" y="0" width="79.6595745" height="48.0963468"></rect>
        <g transform="translate(3.757527, 0.000000)" fill="#000000" fill-rule="nonzero">
            <path d="M71.8513126,39.0532048 L69.7769969,39.0532048 L68.7020306,39.0532048 C68.6041662,38.5310894 68.452547,38.1632938 68.2453725,37.9562481 C67.9084409,37.619445 67.3335996,37.4457067 66.5401385,37.4457067 C65.7582514,37.4457067 65.2155599,37.5755924 64.9120642,37.8366502 C64.6832851,38.0322505 64.5635587,38.3034677 64.5635587,38.6403993 C64.5635587,39.1175048 65.2271339,39.4981604 66.5401385,39.791368 C68.0396128,40.1167256 69.1148362,40.3995167 69.7769969,40.6272671 C69.9507353,40.6928531 70.1023546,40.746865 70.2116644,40.8008769 C71.5479455,41.4310162 72.2101062,42.3877991 72.2101062,43.6687823 C72.2101062,45.232428 71.5582335,46.3731088 70.2656763,47.0895386 C70.1023546,47.1769865 69.9507353,47.2528604 69.7769969,47.3287343 C68.9410978,47.6875279 67.9637389,47.8714257 66.8667821,47.8714257 C65.2271339,47.8714257 63.9012694,47.5782181 62.8917605,47.0020907 C62.2566058,46.6330091 61.7819438,46.1687635 61.4655881,45.6093542 C61.1492325,45.0498162 60.9910546,44.396529 60.9910546,43.6467918 L64.2923416,43.6467918 C64.2923416,44.2114738 64.4992587,44.6575867 64.9004903,44.9612109 C65.3030078,45.2762806 65.9871591,45.4396023 66.952944,45.4396023 C67.6808192,45.4396023 68.2235106,45.2865686 68.5823042,44.9830729 C68.8652239,44.7438771 68.9951098,44.4826909 68.9951098,44.1793238 C68.9951098,43.6687823 68.3443945,43.2675507 67.0506799,42.9846311 C65.1179527,42.5718255 63.901398,42.2348939 63.402302,41.9956982 C62.0777234,41.3771329 61.4258507,40.4217645 61.4258507,39.0957714 C61.4258507,38.0322505 61.7626537,37.1307656 62.4572215,36.3926024 C63.3265566,35.4691268 64.6292732,35.0127259 66.3563693,35.0127259 C67.7786837,35.0127259 68.9193644,35.2197716 69.7771255,35.6210032 C69.8529994,35.6531532 69.918714,35.6865892 69.9841713,35.7303131 C70.6027365,36.0659588 71.0694255,36.5122002 71.3820517,37.0664656 C71.6944208,37.6193164 71.8513126,38.2827631 71.8513126,39.0532048 Z" id="Shape"></path>
            <path d="M70.1679405,31.3642193 C70.1679405,31.2986335 70.1576525,31.2446214 70.1242165,31.2008975 C70.0920665,31.1468855 70.0483425,31.1133211 69.9840427,31.0928736 C69.9403187,31.0811711 69.8746042,31.0708831 69.7769969,31.059309 L69.657399,31.059309 L69.2780295,31.059309 L69.2780295,31.6675864 L69.679261,31.6675864 L69.7769969,31.6675864 C69.9185854,31.6572984 70.0161927,31.6354364 70.0702046,31.5814245 C70.1357905,31.5261265 70.1679405,31.4503813 70.1679405,31.3642193 Z M70.4289982,31.0375757 C70.4945841,31.1251522 70.5267341,31.2227595 70.5267341,31.3307833 C70.5267341,31.4825312 70.4727222,31.613703 70.3634122,31.721727 C70.2552598,31.8310368 70.1139285,31.8966228 69.9403187,31.9067822 C70.0161927,31.9389321 70.0702046,31.9724966 70.1139285,32.0149346 L70.4174241,32.4174522 L70.6564914,32.8186837 L70.2655477,32.8186837 L70.0804925,32.493326 C69.9621807,32.2875663 69.8643162,32.1345325 69.7769969,32.0586586 C69.7667089,32.0483706 69.7551349,32.0367966 69.733273,32.0265086 L69.4735012,31.9506347 L69.2779009,31.9506347 L69.2779009,32.8186837 L68.9512572,32.8186837 L68.9512572,30.7778039 L69.6572704,30.7778039 C69.7009944,30.7778039 69.7447183,30.788092 69.7768683,30.788092 C69.9506067,30.788092 70.080364,30.8099539 70.1678119,30.8421039 C70.2759643,30.8755399 70.3634122,30.9398398 70.4289982,31.0375757 Z" id="Shape"></path>
            <path d="M71.3523452,31.7770249 C71.3523452,31.4941052 71.2867592,31.2343335 71.145428,30.9835638 C71.0038395,30.7342086 70.8084964,30.5386082 70.558884,30.3971484 C70.3095289,30.2671339 70.0483425,30.1912601 69.7872849,30.1912601 L69.7769969,30.1912601 C69.5159392,30.1912601 69.2561674,30.2671339 69.0066837,30.3971484 C68.7560426,30.5386082 68.5604422,30.73408 68.419111,30.9835638 C68.2789371,31.2343335 68.2029347,31.4941052 68.2029347,31.7770249 C68.2029347,32.0483706 68.2789371,32.3081423 68.419111,32.558912 C68.5502828,32.7969504 68.7457546,32.9935795 68.9951098,33.1337534 C69.2445935,33.2753418 69.5057798,33.3407992 69.7769969,33.3407992 L69.7872849,33.3407992 C70.0599166,33.3407992 70.3196883,33.2752132 70.570458,33.1337534 C70.8199417,32.9935795 71.0154135,32.7969504 71.145428,32.558912 C71.2867592,32.3080137 71.3523452,32.0483706 71.3523452,31.7770249 Z M71.6674148,31.7770249 C71.6674148,32.0920946 71.5902549,32.4071642 71.4166451,32.7106598 C71.2546093,33.0141555 71.0257015,33.2431919 70.7223344,33.4050991 C70.4175527,33.5799949 70.1140571,33.6558688 69.7872849,33.6558688 L69.7769969,33.6558688 C69.4516393,33.6558688 69.1469862,33.5799949 68.8433619,33.4050991 C68.5385803,33.2430633 68.3109585,33.0141555 68.1476367,32.7106598 C67.9740269,32.4072928 67.8982816,32.0920946 67.8982816,31.7770249 C67.8982816,31.4400933 67.9741555,31.1251522 68.1476367,30.8203705 C68.3212465,30.5168749 68.5501542,30.2892531 68.85365,30.1259313 C69.1584316,29.9626095 69.4617987,29.8867356 69.7769969,29.8765762 L69.7872849,29.8765762 C70.1023546,29.8765762 70.4071362,29.9627381 70.7106319,30.1259313 C71.0154135,30.2893817 71.2546093,30.5168749 71.4166451,30.8203705 C71.5902549,31.1250236 71.6674148,31.4399647 71.6674148,31.7770249 Z" id="Shape"></path>
            <polygon id="Shape" points="53.1927592 16.4312038 62.1098734 31.2883454 53.1927592 31.2883454 47.7851352 31.2883454 39.2705386 17.0934931 32.8199698 6.35283298 39.2705386 2.47554727 43.3317221 0.0321499644"></polygon>
            <path d="M59.6664761,41.604626 L59.6664761,47.6976873 L56.7009634,47.6976873 L56.7009634,47.0239527 C55.7016138,47.6758253 54.5069211,48.0564809 53.2260666,48.0564809 L53.1926306,48.0564809 C49.6522765,48.0346189 46.7742117,45.1449801 46.7742117,41.604626 C46.7742117,38.0644005 49.6522765,35.1760477 53.1926306,35.1540572 L53.2260666,35.1540572 C54.5069211,35.1540572 55.7016138,35.5348413 56.7009634,36.1855566 L56.7009634,35.4795434 L59.6664761,35.4795434 L59.6664761,41.604626 Z M56.7009634,42.2784893 L56.7009634,40.9320488 C56.3858937,39.3026886 54.9417173,38.0642719 53.2260666,38.0642719 L53.1926306,38.0642719 C51.2494868,38.0758459 49.6741385,39.6614821 49.6741385,41.6044974 C49.6741385,43.5489272 51.2494868,45.1345635 53.1926306,45.1564255 L53.2260666,45.1564255 C54.9417173,45.1565541 56.3858937,43.9078495 56.7009634,42.2784893 Z" id="Shape"></path>
            <path d="M45.7429695,41.604626 L45.7429695,47.6976873 L42.7787427,47.6976873 L42.7787427,47.0239527 C41.7679478,47.6758253 40.5847005,48.0564809 39.3026886,48.0564809 L39.2705386,48.0564809 C35.7301845,48.0346189 32.8521197,45.1449801 32.8521197,41.604626 C32.8521197,38.0644005 35.7301845,35.1760477 39.2705386,35.1540572 L39.3026886,35.1540572 C40.5848291,35.1540572 41.7679478,35.5348413 42.7787427,36.1855566 L42.7787427,31.2883454 L45.7429695,31.2883454 L45.7429695,41.604626 Z M42.7787427,42.2784893 L42.7787427,40.9320488 C42.4636731,39.3026886 41.0182107,38.0642719 39.3026886,38.0642719 L39.2705386,38.0642719 C37.3261088,38.0758459 35.7520465,39.6614821 35.7520465,41.6044974 C35.7520465,43.5489272 37.3261088,45.1345635 39.2705386,45.1564255 L39.3026886,45.1564255 C41.0182107,45.1565541 42.4636731,43.9078495 42.7787427,42.2784893 Z" id="Shape"></path>
            <polygon id="Shape" points="39.2705386 25.4446393 42.7671688 31.2883454 39.2705386 31.2883454 28.4527186 31.2883454 20.5039613 18.060564 20.1567417 17.4844367 20.5039613 17.2786769 30.6800681 11.1521797"></polygon>
            <rect id="Rectangle-path" x="28.4642925" y="35.1539286" width="3.22528443" height="12.5436301"></rect>
            <rect id="Rectangle-path" x="28.4642925" y="31.3526454" width="3.22528443" height="2.83434087"></rect>
            <path d="M26.9866801,41.604626 L26.9866801,47.6976873 L24.0224534,47.6976873 L24.0224534,47.0239527 C23.0129446,47.6758253 21.8182519,48.0564809 20.5361113,48.0564809 L20.5039613,48.0564809 C16.9636073,48.0346189 14.0855424,45.1449801 14.0855424,41.604626 C14.0855424,38.0644005 16.9636073,35.1760477 20.5039613,35.1540572 L20.5361113,35.1540572 C21.8182519,35.1540572 23.0129446,35.5348413 24.0224534,36.1855566 L24.0224534,31.2883454 L26.9866801,31.2883454 L26.9866801,41.604626 Z M24.0224534,42.2784893 L24.0224534,40.9320488 C23.7073838,39.3026886 22.2632074,38.0642719 20.5361113,38.0642719 L20.5039613,38.0642719 C18.5595315,38.0758459 16.9854692,39.6614821 16.9854692,41.6044974 C16.9854692,43.5489272 18.5595315,45.1345635 20.5039613,45.1564255 L20.5361113,45.1564255 C22.2632074,45.1565541 23.7073838,43.9078495 24.0224534,42.2784893 Z" id="Shape"></path>
            <polygon id="Shape" points="20.5039613 26.4002649 23.4360381 31.2883454 20.5039613 31.2883454 9.11129993 31.2883454 7.50380171 28.6056237 18.0271281 22.2850694"></polygon>
            <path d="M12.9229997,41.604626 L12.9229997,47.6976873 L9.95877303,47.6976873 L9.95877303,47.0239527 C8.94797811,47.6758253 7.75328543,48.0564809 6.47243085,48.0564809 L6.43899488,48.0564809 C2.91021479,48.0346189 0.0321499644,45.1449801 0.0321499644,41.604626 C0.0321499644,38.0644005 2.91021479,35.1760477 6.43899488,35.1540572 L6.47243085,35.1540572 C7.75328543,35.1540572 8.94797811,35.5348413 9.95877303,36.1855566 L9.95877303,35.4795434 L12.9229997,35.4795434 L12.9229997,41.604626 Z M9.95877303,42.2784893 L9.95877303,40.9320488 C9.64370335,39.3026886 8.19952694,38.0642719 6.47243085,38.0642719 L6.43899488,38.0642719 C4.50613902,38.0758459 2.93207676,39.6614821 2.93207676,41.6044974 C2.93207676,43.5489272 4.50613902,45.1345635 6.43899488,45.1564255 L6.47243085,45.1564255 C8.19952694,45.1565541 9.64370335,43.9078495 9.95877303,42.2784893 Z" id="Shape"></path>
        </g>
    </g>
</svg>