<?xml version="1.0" encoding="UTF-8"?>
<svg width="80px" height="48px" viewBox="0 0 80 48" version="1.1" xmlns="http://www.w3.org/2000/svg" xmlns:xlink="http://www.w3.org/1999/xlink" style="background: #FFFFFF;">
    <!-- Generator: Sketch 49.3 (51167) - http://www.bohemiancoding.com/sketch -->
    <title>airbnb</title>
    <desc>Created with Sketch.</desc>
    <defs></defs>
    <g id="airbnb" stroke="none" stroke-width="1" fill="none" fill-rule="evenodd">
        <rect id="bg" fill-opacity="0" fill="#FFFFFF" x="0" y="0" width="79.6595745" height="48.0963468"></rect>
        <g transform="translate(0.000000, 11.272581)" fill="#000000" fill-rule="nonzero" id="Shape">
            <path d="M41.8647047,6.22883277 C41.8647047,7.12221118 41.1450388,7.84187711 40.2516604,7.84187711 C39.358282,7.84187711 38.638616,7.12221118 38.638616,6.22883277 C38.638616,5.33545436 39.3334659,4.61578843 40.2516604,4.61578843 C41.1698548,4.64060449 41.8647047,5.36027043 41.8647047,6.22883277 Z M35.2139988,9.47973752 L35.2139988,9.87679459 C35.2139988,9.87679459 34.4447007,8.88415192 32.8068403,8.88415192 C30.101889,8.88415192 27.9925234,10.9438855 27.9925234,13.7977331 C27.9925234,16.6267648 30.077073,18.7113144 32.8068403,18.7113144 C34.4695168,18.7113144 35.2139988,17.6938556 35.2139988,17.6938556 L35.2139988,18.1157288 C35.2139988,18.3142573 35.3628952,18.4631537 35.5614237,18.4631537 L37.5715252,18.4631537 L37.5715252,9.13231259 L35.5614237,9.13231259 C35.3628952,9.13231259 35.2139988,9.30602505 35.2139988,9.47973752 Z M35.2139988,15.4604096 C34.8417578,16.0063631 34.0972758,16.4778684 33.2038974,16.4778684 C31.6156691,16.4778684 30.3996818,15.4852257 30.3996818,13.7977331 C30.3996818,12.1102406 31.6156691,11.1175979 33.2038974,11.1175979 C34.0724597,11.1175979 34.8665739,11.6139193 35.2139988,12.1350567 L35.2139988,15.4604096 Z M39.0604892,9.13231259 L41.4428316,9.13231259 L41.4428316,18.4631537 L39.0604892,18.4631537 L39.0604892,9.13231259 Z M74.646729,8.88415192 C73.0088686,8.88415192 72.2395705,9.87679459 72.2395705,9.87679459 L72.2395705,4.64060449 L69.8572281,4.64060449 L69.8572281,18.4631537 L71.8673295,18.4631537 C72.065858,18.4631537 72.2147544,18.2894412 72.2147544,18.1157288 L72.2147544,17.6938556 C72.2147544,17.6938556 72.9840525,18.7113144 74.6219129,18.7113144 C77.3268642,18.7113144 79.4362299,16.6267648 79.4362299,13.7977331 C79.4362299,10.9687015 77.3268642,8.88415192 74.646729,8.88415192 Z M74.2496719,16.4530523 C73.3314774,16.4530523 72.6118115,15.981547 72.2395705,15.4355936 L72.2395705,12.1102406 C72.6118115,11.6139193 73.4059256,11.0927819 74.2496719,11.0927819 C75.8379002,11.0927819 77.0538875,12.0854245 77.0538875,13.7729171 C77.0538875,15.4604096 75.8379002,16.4530523 74.2496719,16.4530523 Z M68.6164247,12.9291708 L68.6164247,18.4879698 L66.2340823,18.4879698 L66.2340823,13.2021475 C66.2340823,11.6635514 65.737761,11.0431497 64.3976934,11.0431497 C63.6780274,11.0431497 62.9335454,11.4153907 62.4620402,11.9613442 L62.4620402,18.4631537 L60.0796978,18.4631537 L60.0796978,9.13231259 L61.9657188,9.13231259 C62.1642474,9.13231259 62.3131438,9.30602505 62.3131438,9.47973752 L62.3131438,9.87679459 C63.0079936,9.15712865 63.9261881,8.88415192 64.8443826,8.88415192 C65.8866574,8.88415192 66.7552197,9.18194472 67.4500696,9.77753032 C68.2938159,10.4723802 68.6164247,11.3657586 68.6164247,12.9291708 Z M54.2975542,8.88415192 C52.6596938,8.88415192 51.8903957,9.87679459 51.8903957,9.87679459 L51.8903957,4.64060449 L49.5080533,4.64060449 L49.5080533,18.4631537 L51.5181547,18.4631537 C51.7166832,18.4631537 51.8655796,18.2894412 51.8655796,18.1157288 L51.8655796,17.6938556 C51.8655796,17.6938556 52.6348777,18.7113144 54.2727381,18.7113144 C56.9776894,18.7113144 59.0870551,16.6267648 59.0870551,13.7977331 C59.1118711,10.9687015 57.0025055,8.88415192 54.2975542,8.88415192 Z M53.9004971,16.4530523 C52.9823026,16.4530523 52.2626367,15.981547 51.8903957,15.4355936 L51.8903957,12.1102406 C52.2626367,11.6139193 53.0567508,11.0927819 53.9004971,11.0927819 C55.4887254,11.0927819 56.7047127,12.0854245 56.7047127,13.7729171 C56.7047127,15.4604096 55.4887254,16.4530523 53.9004971,16.4530523 Z M47.4483197,8.88415192 C48.1679857,8.88415192 48.5402267,9.00823225 48.5402267,9.00823225 L48.5402267,11.2168622 C48.5402267,11.2168622 46.5549413,10.5468284 45.314138,11.9613442 L45.314138,18.4879698 L42.9317956,18.4879698 L42.9317956,9.13231259 L44.941897,9.13231259 C45.1404255,9.13231259 45.2893219,9.30602505 45.2893219,9.47973752 L45.2893219,9.87679459 C45.7360111,9.35565719 46.7038377,8.88415192 47.4483197,8.88415192 Z M22.7067011,17.6194074 C22.5826208,17.3216146 22.4585405,16.9990058 22.3344601,16.726029 C22.1359316,16.2793398 21.9374031,15.8574667 21.7636906,15.4604096 L21.7388745,15.4355936 C20.0265659,11.7131835 18.1926586,7.94114138 16.2570054,4.21873136 L16.1825572,4.06983496 C15.9840286,3.69759396 15.7855001,3.30053689 15.5869716,2.90347982 C15.3388109,2.45679061 15.0906502,1.98528534 14.6935932,1.53859614 C13.899479,0.54595347 12.7579399,-3.55271368e-15 11.5419527,-3.55271368e-15 C10.3011493,-3.55271368e-15 9.18442633,0.54595347 8.36549612,1.48896401 C7.99325512,1.93565321 7.72027839,2.40715848 7.47211772,2.85384768 C7.27358918,3.25090475 7.07506065,3.64796182 6.87653211,4.02020282 L6.80208391,4.16909922 C4.89124677,7.89150925 3.03004176,11.6635514 1.31773315,15.3859614 L1.29291708,15.4355936 C1.11920461,15.8326506 0.920676079,16.2545238 0.722147544,16.701213 C0.59806721,16.9741897 0.473986876,17.2719825 0.349906542,17.5945914 C0.0272976735,18.5127858 -0.0719665938,19.3813482 0.0521137403,20.2747266 C0.325090475,22.1359316 1.56589382,23.6993438 3.27820243,24.3941937 C3.92342016,24.6671704 4.59345397,24.7912507 5.28830384,24.7912507 C5.48683237,24.7912507 5.73499304,24.7664347 5.93352157,24.7416186 C6.75245178,24.6423543 7.59619805,24.3693776 8.41512826,23.8978723 C9.432587,23.3271028 10.4004136,22.5081726 11.4923205,21.3170014 C12.5842275,22.5081726 13.5768702,23.3271028 14.5695128,23.8978723 C15.388443,24.3693776 16.2321893,24.6423543 17.0511195,24.7416186 C17.249648,24.7664347 17.4978087,24.7912507 17.6963372,24.7912507 C18.3911871,24.7912507 19.086037,24.6671704 19.703957,24.3941937 C21.4410817,23.6993438 22.657069,22.1111155 22.9300457,20.2747266 C23.1285743,19.4061642 23.02931,18.5376019 22.7067011,17.6194074 Z M11.5171366,18.9098429 C10.177069,17.2223504 9.30850666,15.6341221 9.01071386,14.2940545 C8.88663353,13.7232849 8.86181746,13.2269636 8.93626566,12.7802744 C8.98589779,12.3832173 9.13479419,12.0357924 9.33332273,11.7379996 C9.804828,11.0679658 10.5989421,10.6460927 11.5171366,10.6460927 C12.4353311,10.6460927 13.2542613,11.0431497 13.7009505,11.7379996 C13.899479,12.0357924 14.0483754,12.3832173 14.0980076,12.7802744 C14.1724558,13.2269636 14.1476397,13.748101 14.0235594,14.2940545 C13.7257666,15.609306 12.8572042,17.1975343 11.5171366,18.9098429 Z M21.4162657,20.0761981 C21.2425532,21.3666335 20.3739909,22.4833565 19.1604852,22.9796779 C18.5648996,23.2278385 17.9196818,23.3022867 17.2744641,23.2278385 C16.6540624,23.1533903 16.0336608,22.9548618 15.388443,22.5826208 C14.4950646,22.0862995 13.6016862,21.3170014 12.5594114,20.1754623 C14.1972718,18.1653609 15.1899145,16.328972 15.5621555,14.6911116 C15.735868,13.9218135 15.760684,13.2269636 15.6862358,12.5817459 C15.5869716,11.9613442 15.363627,11.3905747 15.016202,10.8942533 C14.246904,9.77753032 12.9564685,9.13231259 11.5171366,9.13231259 C10.0778047,9.13231259 8.78736926,9.80234639 8.01807119,10.8942533 C7.67064625,11.3905747 7.44730165,11.9613442 7.34803738,12.5817459 C7.24877312,13.2269636 7.27358918,13.9466295 7.47211772,14.6911116 C7.84435872,16.328972 8.86181746,18.190177 10.4748618,20.2002784 C9.45740306,21.3418175 8.53920859,22.1111155 7.64583018,22.6074369 C7.00061245,22.9796779 6.38021078,23.1782064 5.75980911,23.2526546 C5.0897753,23.3271028 4.44455757,23.2278385 3.87378803,23.0044939 C2.65780076,22.5081726 1.78923842,21.3914496 1.61552595,20.1010141 C1.54107775,19.4806124 1.59070988,18.8602108 1.83887055,18.1653609 C1.91331875,17.9172002 2.03739909,17.6690396 2.16147942,17.3712468 C2.33519189,16.9741897 2.53372042,16.5523166 2.73224896,16.1304434 L2.75706502,16.0808113 C4.46937363,12.3832173 6.30576258,8.61117518 8.21659972,4.9383973 L8.29104792,4.78950089 C8.48957646,4.41725989 8.68810499,4.02020282 8.88663353,3.64796182 C9.08516206,3.25090475 9.30850666,2.87866375 9.5814834,2.55605488 C10.1026208,1.96046928 10.7974707,1.63786041 11.5667687,1.63786041 C12.3360668,1.63786041 13.0309167,1.96046928 13.5520541,2.55605488 C13.8250308,2.87866375 14.0483754,3.25090475 14.246904,3.64796182 C14.4454325,4.02020282 14.643961,4.41725989 14.8424896,4.78950089 L14.9169378,4.9383973 C16.8029588,8.63599125 18.6393478,12.4080334 20.3491748,16.1056274 L20.3491748,16.1304434 C20.5477033,16.5275005 20.7214158,16.9741897 20.9199443,17.3712468 C21.0440247,17.6690396 21.168105,17.9172002 21.2425532,18.1653609 C21.4410817,18.8105786 21.5155299,19.4309803 21.4162657,20.0761981 Z"></path>
        </g>
    </g>
</svg>