<?xml version="1.0" encoding="UTF-8"?>
<svg width="80px" height="48px" viewBox="0 0 80 48" version="1.1" xmlns="http://www.w3.org/2000/svg" xmlns:xlink="http://www.w3.org/1999/xlink" style="background: #FFFFFF;">
    <!-- Generator: Sketch 49.3 (51167) - http://www.bohemiancoding.com/sketch -->
    <title>alipay</title>
    <desc>Created with Sketch.</desc>
    <defs></defs>
    <g id="alipay" stroke="none" stroke-width="1" fill="none" fill-rule="evenodd">
        <rect id="bg" fill-opacity="0" fill="#FFFFFF" x="0" y="0" width="79.6595745" height="48.0963468"></rect>
        <g id="Alipay" transform="translate(0.000000, 9.769570)" fill="#272636" fill-rule="nonzero">
            <path d="M6.88265991,15.2740366 C6.17800627,15.343717 4.85545537,15.6550088 4.13220273,16.2925596 C1.96405576,18.1767713 3.26132959,21.6230952 7.648207,21.6230952 C10.1978534,21.6230952 12.7464454,19.996985 14.7478456,17.3947048 C11.9014058,16.0091809 9.48857198,15.0174874 6.88265991,15.2740659 L6.88265991,15.2740366 Z" id="Shape"></path>
            <path d="M23.2458957,17.6553546 C27.3065142,19.0114716 28.2274436,19.084286 28.2274436,19.084286 L28.2274436,4.50459305 C28.2274436,2.01639661 26.2074737,2.92897841e-05 23.7120426,2.92897841e-05 L4.54621383,2.92897841e-05 C2.05028488,2.92897841e-05 0.0292604943,2.01642589 0.0292604943,4.50459305 L0.0292604943,23.6141855 C0.0292604943,26.1013568 2.05028488,28.118222 4.54621383,28.118222 L23.7120426,28.118222 C26.2074737,28.118222 28.2274436,26.1018547 28.2274436,23.6141855 L28.2274436,23.4298941 C28.2274436,23.4298941 20.8929302,20.3810619 17.189032,18.6052516 C14.7054926,21.6520042 11.5007509,23.5021521 8.17422221,23.5021521 C2.54788903,23.5021521 0.637374991,18.5928621 3.30107582,15.360793 C3.88233159,14.6571938 4.87039317,13.9840266 6.40409411,13.6066863 C8.80245879,13.0192212 12.6209972,13.9737459 16.1989201,15.1512245 C16.8421238,13.9685616 17.3836333,12.6671579 17.7873637,11.2805796 L6.75978928,11.2805796 L6.75978928,10.1665719 L12.4454928,10.1665719 L12.4454928,8.170356 L5.55905456,8.170356 L5.55905456,7.05582113 L12.4454928,7.05582113 L12.4454928,4.20779967 C12.4454928,4.20779967 12.4454928,3.72771082 12.9333435,3.72771082 L15.7121825,3.72771082 L15.7121825,7.05582113 L22.5211786,7.05582113 L22.5211786,8.170356 L15.7121825,8.170356 L15.7121825,10.1665719 L21.2703583,10.1665719 C20.7386316,12.3388487 19.9302336,14.3386966 18.9168949,16.0943849 C20.6034007,16.7024993 22.1180047,17.279098 23.2459543,17.6554425 L23.2458957,17.6553546 Z" id="Shape"></path>
            <path d="M68.3638496,4.40805392 L76.4360555,4.40805392 L76.4360555,6.00575308 L79.3186392,6.00575308 L79.3186392,4.11278361 C79.3175848,4.10815582 79.3175848,4.10657418 79.3175848,4.10141917 C79.3175848,3.67604364 78.984091,3.33174223 78.5711344,3.32447836 L73.9055061,3.32447836 L73.9055061,1.8346535 L70.8887172,1.8346535 L70.8887172,3.32447836 L65.4812664,3.32447836 L65.4812664,6.00575308 L68.3638496,6.00575308 L68.3638496,4.40805392 Z" id="Shape"></path>
            <polygon id="Shape" points="50.9000211 1.97249122 47.9441253 8.96270323 50.211389 8.96270323 50.211389 17.2811191 52.6908278 17.2811191 52.6908278 6.24736447 51.7930959 6.24736447 53.6607883 1.97252051"></polygon>
            <path d="M79.6495552,16.8990924 L78.7435927,13.8399502 C78.6842224,13.6448217 78.5066382,13.5033813 78.2970406,13.5028541 L75.8970944,13.5028541 L76.592434,15.8526856 L73.770744,15.8526856 L73.770744,11.3016682 L79.3124297,11.3016682 L79.3124297,10.2175947 L73.770744,10.2175947 L73.770744,8.07577925 L79.3124297,8.07577925 L79.3124297,6.9922037 L65.4812373,6.9922037 L65.4812373,8.07577925 L71.0223958,8.07577925 L71.0223958,10.2175947 L65.4812373,10.2175947 L65.4812373,11.3016682 L71.0223958,11.3016682 L71.0223958,15.8526856 L65.4812373,15.8526856 L65.4812373,16.9367591 L79.6495552,16.9367591 L79.6381318,16.8995903 L79.6494963,16.8995903 L79.6495552,16.8990924 Z" id="Shape"></path>
            <path d="M57.2407908,7.70256881 C57.1463312,7.51054503 56.9537508,7.37786231 56.7307677,7.37633921 L54.5843244,7.37633921 L56.2558339,12.6418223 L58.795639,12.6418223 L57.2407616,7.70259811 L57.2407908,7.70256881 Z" id="Shape"></path>
            <path d="M62.6745726,2.09946243 L60.0975992,2.09946243 L60.0975992,4.79207228 L53.7464902,4.79207228 L53.7464902,5.87564783 L60.0975992,5.87564783 L60.0975992,15.555365 C60.075427,15.7762978 59.9009181,15.9497519 59.6815084,15.9611164 L58.3723723,15.9611164 L58.3723723,17.0828858 L61.7118177,17.0828858 C62.2399123,17.0606841 62.6632086,16.6218939 62.6745726,16.078832 L62.6745726,5.87567713 L63.7209504,5.87567713 L63.7209504,4.79210157 L62.6745726,4.79210157 L62.6745726,2.09949172 L62.6745726,2.09946243 Z" id="Shape"></path>
            <path d="M46.5957409,7.00465187 L41.6456795,7.00465187 L41.6456795,5.23089183 L47.3850713,5.23089183 L47.3850713,4.12616904 L41.6456795,4.12616904 L41.6456795,1.87852959 L39.0867482,1.8790568 C38.806445,1.8790568 38.5798299,2.11343366 38.5798299,2.40351968 L38.5798299,4.12616904 L32.8807116,4.12616904 L32.8807116,5.23089183 L38.5798299,5.23089183 L38.5798299,7.00465187 L33.7696565,7.00465187 L33.7696565,8.10887673 L43.350755,8.10887673 C43.350755,8.10887673 42.8200826,10.1815097 40.1919982,12.409525 C37.8375096,10.6270073 37.0502588,9.20739007 37.0502588,9.20739007 L34.4799631,9.20739007 C35.5196626,11.0095319 36.9975958,12.4529032 38.5885875,13.5978701 C37.1271445,14.5477085 35.2315975,15.4635122 32.7805698,16.1954932 L32.7805698,17.5185713 C32.7805698,17.5185713 36.5619103,16.8051601 40.2162794,14.6519801 C43.8763016,16.7881134 47.5523159,17.5185713 47.5523159,17.5185713 L47.5523159,16.2661987 C45.1998776,15.4097655 43.3357879,14.4681868 41.8717673,13.5591197 C43.9929335,11.9892752 45.8508138,9.85677387 46.5957409,7.00462257 L46.5957409,7.00465187 Z" id="Shape"></path>
            <path d="M38.4719263,24.6692913 L38.8998794,25.9614102 L40.0995596,25.9614102 L37.7368114,19.5458051 L36.8194846,19.5458051 L34.465494,25.9614102 L35.6657015,25.9614102 L36.1122535,24.6692913 L38.471897,24.6692913 L38.4719263,24.6692913 Z M37.3114651,21.1992427 L38.1988577,23.8598682 L36.3920588,23.8598682 L37.3114358,21.1992427 L37.3114651,21.1992427 Z" id="Shape"></path>
            <polygon id="Shape" points="43.8850592 19.5457759 43.8850592 25.9613809 47.7691189 25.9613809 47.7691189 25.0879303 45.0388131 25.0879303 45.0388131 19.5457759"></polygon>
            <polygon id="Shape" points="52.0021371 19.5457759 53.1569454 19.5457759 53.1569454 25.9609122 52.0021371 25.9609122"></polygon>
            <path d="M60.3283442,19.5457759 L57.8349924,19.5457173 L57.8349924,25.9613809 L58.9887467,25.9613809 L58.9887467,23.4953861 L60.3283442,23.4953861 C61.5724277,23.4953861 62.4417776,22.6833561 62.4417776,21.5208153 C62.4417776,20.3582745 61.5724569,19.5457173 60.3283442,19.5457173 L60.3283442,19.5457759 Z M60.2638188,22.613705 L58.9887467,22.613705 L58.9887467,20.4187286 L60.2638188,20.4187286 C60.903947,20.4187286 61.2864422,20.9788371 61.2864422,21.5208446 C61.2864422,22.0504625 60.9281692,22.613705 60.2638188,22.613705 Z" id="Shape"></path>
            <path d="M69.2182329,24.6692913 L69.6461856,25.9614102 L70.845866,25.9614102 L68.4825907,19.5458051 L67.5657909,19.5458051 L65.2118005,25.9614102 L66.4125352,25.9614102 L66.8580329,24.6692913 L69.2182037,24.6692913 L69.2182329,24.6692913 Z M68.0577424,21.1992427 L68.9451347,23.8598682 L67.1383362,23.8598682 L68.0577127,21.1992427 L68.0577424,21.1992427 Z" id="Shape"></path>
            <polygon id="Shape" points="77.2738901 19.5457759 76.0148394 22.2791571 74.7371895 19.5457759 73.4900014 19.5457759 75.4325582 23.3260911 75.4325582 25.9614102 76.5780524 25.9614102 76.5780524 23.3260911 76.5852872 23.3116513 78.5211369 19.5458051"></polygon>
        </g>
    </g>
</svg>