<?xml version="1.0" encoding="UTF-8"?>
<svg width="80px" height="48px" viewBox="0 0 80 48" version="1.1" xmlns="http://www.w3.org/2000/svg" xmlns:xlink="http://www.w3.org/1999/xlink" style="background: #FFFFFF;">
    <!-- Generator: Sketch 49.3 (51167) - http://www.bohemiancoding.com/sketch -->
    <title>allianz</title>
    <desc>Created with Sketch.</desc>
    <defs></defs>
    <g id="allianz" stroke="none" stroke-width="1" fill="none" fill-rule="evenodd">
        <rect id="bg" fill-opacity="0" fill="#FFFFFF" x="0" y="0" width="79.6595745" height="48.0963468"></rect>
        <path d="M3.0575219,29.7753078 L3.95954944,26.6767847 L7.54423029,26.6767847 L8.38768461,29.7753078 L11.708786,29.7753078 L8.41111389,18.0255206 C8.2236796,17.3343566 7.80780976,17.0063466 7.0873592,17.0063466 L2.39564456,17.0063466 L2.39564456,18.1016658 L2.79394243,18.1016658 C3.28010013,18.1016658 3.5436796,18.2891001 3.5436796,18.669826 C3.5436796,18.9158335 3.4909637,19.1266971 3.29767209,19.7065719 L0,29.7753078 L3.0575219,29.7753078 L3.0575219,29.7753078 Z M7.0873592,24.5505769 L4.42813517,24.5505769 L5.84560701,19.8881489 L7.0873592,24.5505769 L7.0873592,24.5505769 Z M15.7854819,29.7753078 L15.7854819,17.9845193 C15.7854819,17.3695006 15.4281852,17.0063466 14.8541677,17.0063466 L11.9899374,17.0063466 L11.9899374,18.1016658 L12.183229,18.1016658 C12.6693867,18.1016658 12.8802503,18.3125293 12.8802503,18.8104017 L12.8802503,29.7753078 L15.7854819,29.7753078 L15.7854819,29.7753078 Z M20.9223529,29.7753078 L20.9223529,17.9845193 C20.9223529,17.3695006 20.5650563,17.0063466 19.9910388,17.0063466 L17.1268085,17.0063466 L17.1268085,18.1016658 L17.3142428,18.1016658 C17.8062578,18.1016658 18.0112641,18.3125293 18.0112641,18.8104017 L18.0112641,29.7753078 L20.9223529,29.7753078 L20.9223529,29.7753078 Z M26.059224,29.7753078 L26.059224,21.0888998 C26.059224,20.473881 25.7019274,20.1048698 25.1220526,20.1048698 L22.2812516,20.1048698 L22.2812516,21.2646195 L22.4511139,21.2646195 C22.9431289,21.2646195 23.1481352,21.493055 23.1481352,21.9967847 L23.1481352,29.7753078 L26.059224,29.7753078 L26.059224,29.7753078 Z M26.059224,18.1660963 C26.059224,17.322642 25.4500626,16.813055 24.4074593,16.813055 C23.3765707,16.813055 22.7556946,17.322642 22.7556946,18.1660963 C22.7556946,19.0154079 23.3765707,19.5249949 24.4074593,19.5249949 C25.4500626,19.5249949 26.059224,19.0154079 26.059224,18.1660963 L26.059224,18.1660963 Z M28.6598748,22.9749574 C29.6380476,22.494657 30.7040801,22.2310775 31.5416771,22.2310775 C32.3324155,22.2310775 32.613567,22.5180863 32.613567,23.3556833 L32.613567,23.5606895 C31.4245307,23.7539812 31.0496621,23.8301263 30.3760701,23.9824167 C29.9894869,24.0761338 29.6321902,24.1932803 29.2807509,24.3455706 C28.1092866,24.8200137 27.5528411,25.7513278 27.5528411,27.1805143 C27.5528411,28.9904267 28.3142929,29.869025 29.8957697,29.869025 C30.4697872,29.869025 30.9910889,29.7518785 31.4596746,29.5644442 C31.8696871,29.3711526 32.1098373,29.2188623 32.7072841,28.7385619 L32.7072841,28.8732803 C32.7072841,29.4707271 33.0118648,29.7753078 33.6034543,29.7753078 L36.3271089,29.7753078 L36.3271089,28.6799887 L36.1923905,28.6799887 C35.6828035,28.6799887 35.4953692,28.4691251 35.4953692,27.9009649 L35.4953692,23.3732552 C35.4953692,20.9424668 34.6636295,20.1048698 32.2796996,20.1048698 C31.5065332,20.1048698 30.7509387,20.1985869 30.0187735,20.3743066 C29.2866083,20.5441689 28.9058824,20.6964593 28.0214268,21.1357584 L28.6598748,22.9749574 L28.6598748,22.9749574 Z M32.613567,25.2007396 L32.613567,27.0457959 C32.1156946,27.5553829 31.5065332,27.8599636 30.9910889,27.8599636 C30.4522153,27.8599636 30.264781,27.5963842 30.264781,26.8935056 C30.264781,26.190627 30.4170713,25.862617 30.9500876,25.6576107 C31.3542428,25.4877484 31.8696871,25.335458 32.613567,25.2007396 L32.613567,25.2007396 Z M40.8138173,29.7753078 L40.8138173,23.2795381 C41.3351189,22.7230925 41.8798498,22.4712277 42.5065832,22.4712277 C43.1684606,22.4712277 43.3324656,22.7230925 43.3324656,23.6836933 L43.3324656,29.7753078 L46.2376971,29.7753078 L46.2376971,23.1975356 C46.2376971,21.6687746 46.1205507,21.1884743 45.6402503,20.6671726 C45.2360951,20.2220162 44.615219,19.9877233 43.8244806,19.9877233 C42.6471589,19.9877233 41.8212766,20.3684492 40.6966708,21.4579111 L40.6966708,21.0596132 C40.6966708,20.4270225 40.3979474,20.1048698 39.8005006,20.1048698 L37.0417021,20.1048698 L37.0417021,21.2646195 L37.2057071,21.2646195 C37.6977222,21.2646195 37.9027284,21.493055 37.9027284,21.9967847 L37.9027284,29.7753078 L40.8138173,29.7753078 L40.8138173,29.7753078 Z M55.1935419,27.8189624 L51.0875594,27.8189624 L55.0061076,22.2486495 L55.0061076,20.2981614 L48.7973467,20.2981614 C48.0944681,20.2981614 47.7723154,20.6203141 47.7723154,21.3231927 L47.7723154,23.0511026 L48.9379224,23.0511026 L48.9379224,22.8812402 C48.9379224,22.4419411 49.1605006,22.2310775 49.6290864,22.2310775 L51.7435795,22.2310775 L47.7723154,27.8541063 L47.7723154,29.7753078 L55.1935419,29.7753078 L55.1935419,27.8189624 L55.1935419,27.8189624 Z M67.0604756,29.177861 L67.0604756,19.9760087 L65.4555695,19.9760087 C64.664831,19.9760087 64.3485357,20.3040187 64.3485357,21.1123291 L64.3485357,29.177861 L67.0604756,29.177861 L67.0604756,29.177861 Z M72.2969212,29.177861 L75.0088611,29.177861 L75.0088611,21.1123291 C75.0088611,20.3040187 74.7101377,19.9760087 73.89597,19.9760087 L72.2969212,19.9760087 L72.2969212,29.177861 L72.2969212,29.177861 Z M70.9380225,29.177861 L70.9380225,18.5292502 C70.9380225,17.6799386 70.6627284,17.3929298 69.8368461,17.3929298 L67.4412015,17.3929298 L67.4412015,18.5526795 L67.8336421,18.5526795 C67.9215019,18.5526795 68.0093617,18.6112527 68.0855069,18.6873979 C68.1909387,18.8221163 68.2260826,18.9568347 68.2260826,19.2379862 L68.2260826,29.177861 L70.9380225,29.177861 L70.9380225,29.177861 Z M79.6595745,23.7656958 C79.6595745,17.9025168 75.3544431,13.5270976 69.5908385,13.5270976 C63.827234,13.5270976 59.5045307,17.9025168 59.5045307,23.7656958 C59.5045307,29.6523041 63.827234,34.0277233 69.5908385,34.0277233 C75.3544431,34.0277233 79.6595745,29.6523041 79.6595745,23.7656958 L79.6595745,23.7656958 Z M77.720801,23.7656958 C77.720801,28.5862715 74.2766959,32.0948072 69.5849812,32.0948072 C64.8698373,32.0948072 61.4433041,28.5862715 61.4433041,23.7656958 C61.4433041,18.9685494 64.8698373,15.4600137 69.5849812,15.4600137 C74.2766959,15.4600137 77.720801,18.9685494 77.720801,23.7656958 L77.720801,23.7656958 Z" id="Allianz" fill="#000000"></path>
    </g>
</svg>