<?xml version="1.0" encoding="UTF-8"?>
<svg width="80px" height="48px" viewBox="0 0 80 48" version="1.1" xmlns="http://www.w3.org/2000/svg" xmlns:xlink="http://www.w3.org/1999/xlink" style="background: #FFFFFF;">
    <!-- Generator: Sketch 49.3 (51167) - http://www.bohemiancoding.com/sketch -->
    <title>amazon</title>
    <desc>Created with Sketch.</desc>
    <defs></defs>
    <g id="amazon" stroke="none" stroke-width="1" fill="none" fill-rule="evenodd">
        <rect id="bg" fill-opacity="0" fill="#FFFFFF" x="0" y="0" width="79.6595745" height="48.0963468"></rect>
        <g transform="translate(0.000000, 12.024087)" fill="#000000" fill-rule="nonzero" id="Shape">
            <path d="M7.26685551,7.87216259 L7.26685551,7.33845665 C5.48633852,7.33845665 3.60647825,7.71892029 3.60647825,9.81807558 C3.60647825,10.8815243 4.15735789,11.6014989 5.10191172,11.6014989 C5.79546523,11.6014989 6.4150397,11.1761194 6.80607177,10.4838869 C7.29116291,9.63180692 7.26685551,8.83124802 7.26685551,7.87216259 Z M9.75017339,13.8737123 C9.5874195,14.0190283 9.35187552,14.0295967 9.16824897,13.9331597 C8.35104478,13.2541378 8.2055967,12.9384058 7.75538139,12.2910892 C6.40447126,13.6702699 5.44802795,14.0824389 3.69630994,14.0824389 C1.62489679,14.0824389 0.0105684344,12.8036583 0.0105684344,10.2447761 C0.0105684344,8.24602096 1.09515402,6.88533503 2.63682439,6.21952366 C3.97373134,5.63165449 5.84038107,5.5272912 7.26685551,5.36480152 L7.26685551,5.04642744 C7.26685551,4.45987933 7.31177136,3.76764687 6.96908987,3.26168307 C6.66736107,2.80856145 6.09270245,2.62097174 5.58673865,2.62097174 C4.64879009,2.62097174 3.80992061,3.10315656 3.60647825,4.10055256 C3.56420451,4.32248968 3.40171483,4.54046364 3.17977771,4.55103207 L0.789990473,4.29474754 C0.589190219,4.24983169 0.367253096,4.08602096 0.422737377,3.77821531 C0.973617021,0.882464274 3.58930454,0.0105684344 5.93021277,0.0105684344 C7.12840902,0.0105684344 8.69385837,0.328942521 9.63933693,1.23650683 C10.8375332,2.35411877 10.7233941,3.84691013 10.7233941,5.47180692 L10.7233941,9.30946967 C10.7233941,10.4627501 11.2013515,10.9687139 11.6515668,11.5922515 C11.8107539,11.8128676 11.8453655,12.0797205 11.6449616,12.2461734 C11.1426967,12.6649476 10.2491356,13.4443696 9.75717498,13.8803176 L9.7505697,13.8803176 L9.75017339,13.8737123 Z M39.5495916,7.87216259 L39.5495916,7.33845665 C37.7648473,7.33845665 35.884987,7.71892029 35.884987,9.81807558 C35.884987,10.8815243 36.4385087,11.6014989 37.3843836,11.6014989 C38.073974,11.6014989 38.6975116,11.1761194 39.0885437,10.4838869 C39.5733706,9.63180692 39.5495916,8.83124802 39.5495916,7.87216259 Z M42.0318527,13.8737123 C41.869363,14.0190283 41.6342153,14.0295967 41.4505888,13.9331597 C40.6328561,13.2541378 40.483577,12.9384058 40.0370607,12.2910892 C38.6869432,13.6702699 37.7278577,14.0824389 35.9787818,14.0824389 C33.9034055,14.0824389 32.2930403,12.8036583 32.2930403,10.2447761 C32.2930403,8.24602096 33.3736628,6.88533503 34.9179752,6.21952366 C36.2548822,5.63165449 38.1215319,5.5272912 39.5495916,5.36480152 L39.5495916,5.04642744 C39.5495916,4.45987933 39.5945075,3.76764687 39.2470702,3.26168307 C38.949833,2.80856145 38.3751743,2.62097174 37.8652474,2.62097174 C36.9272988,2.62097174 36.0923925,3.10315656 35.8876291,4.10055256 C35.8466764,4.32248968 35.6841867,4.54046364 35.4582864,4.55103207 L33.0724624,4.29474754 C32.8716621,4.24983169 32.6457618,4.08602096 32.7052093,3.77821531 C33.2521258,0.882464274 35.8704554,0.0105684344 38.2126847,0.0105684344 C39.4108809,0.0105684344 40.9763303,0.328942521 41.9208841,1.23650683 C43.1204014,2.35411877 43.0054697,3.84691013 43.0054697,5.47180692 L43.0054697,9.30946967 C43.0054697,10.4627501 43.4836913,10.9687139 43.9341708,11.5922515 C44.0900553,11.8128676 44.1244027,12.0797205 43.9209603,12.2461734 C43.4189597,12.6649476 42.5246059,13.4443696 42.0331737,13.8803176 L42.0318527,13.8737123 Z M72.3579752,13.9080597 L69.9060984,13.9080597 C69.6590613,13.890886 69.4622242,13.6940489 69.4622242,13.4509749 L69.4622242,0.809806288 C69.4833611,0.578621785 69.6881245,0.397637345 69.9378037,0.397637345 L72.2192645,0.397637345 C72.4345964,0.410847888 72.6116177,0.553521753 72.6591756,0.751679898 L72.6591756,2.68438234 L72.7040915,2.68438234 C73.3936818,0.955122261 74.3593725,0.130784376 76.0608904,0.130784376 C77.1652918,0.130784376 78.2419511,0.529742775 78.9355046,1.62093363 C79.5788581,2.63154017 79.5788581,4.33173706 79.5788581,5.55503334 L79.5788581,13.5104224 C79.5511159,13.7323595 79.3476735,13.9080597 79.1045996,13.9080597 L76.6355491,13.9080597 C76.4109698,13.890886 76.2233801,13.7244332 76.1996011,13.5104224 L76.1996011,6.6462242 C76.1996011,5.2644014 76.3581277,3.24186726 74.6579308,3.24186726 C74.0581721,3.24186726 73.5086135,3.64346777 73.2338342,4.2524738 C72.887718,5.02529057 72.8428022,5.79414417 72.8428022,6.6462242 L72.8428022,13.4509749 C72.8428022,13.7046173 72.6248282,13.9080597 72.3619384,13.9080597 L72.3579752,13.9080597 Z M61.9878311,0.130784376 C65.6418673,0.130784376 67.6194856,3.2696094 67.6194856,7.25919339 C67.6194856,11.1140299 65.4344617,14.1722706 61.9878311,14.1722706 C58.3998476,14.1722706 56.4473293,11.0334455 56.4473293,7.12444586 C56.4473293,3.18902509 58.4249476,0.130784376 61.9878311,0.130784376 Z M62.0089679,2.71212448 C60.1938393,2.71212448 60.0802286,5.18381708 60.0802286,6.72548746 C60.0802286,8.26979994 60.0564497,11.5671515 61.9878311,11.5671515 C63.8967545,11.5671515 63.9865862,8.90786916 63.9865862,7.28693554 C63.9865862,6.21952366 63.9416704,4.94602731 63.6193331,3.93409971 C63.3432328,3.05427755 62.7923531,2.71212448 62.0089679,2.71212448 Z M16.4761893,13.9080597 L14.013744,13.9080597 C13.7785964,13.890886 13.5910067,13.7151858 13.573833,13.4892855 L13.573833,0.852080025 C13.573833,0.598437599 13.7852017,0.397637345 14.0480915,0.397637345 L16.3440838,0.397637345 C16.5831947,0.410847888 16.7734265,0.591832328 16.7906002,0.820374722 L16.7906002,2.47301366 L16.835516,2.47301366 C17.4352747,0.875859003 18.560813,0.130784376 20.0773833,0.130784376 C21.6190537,0.130784376 22.5821023,0.875859003 23.2743347,2.47301366 C23.8701302,0.875859003 25.2242109,0.130784376 26.6760495,0.130784376 C27.707793,0.130784376 28.8372944,0.557484916 29.5255637,1.51260718 C30.3049857,2.57605589 30.1464592,4.12168943 30.1464592,5.47577009 L30.1464592,13.4509749 C30.1464592,13.7046173 29.9350905,13.9080597 29.6708796,13.9080597 L27.2123976,13.9080597 C26.9666815,13.890886 26.7685233,13.6940489 26.7685233,13.4509749 L26.7685233,6.7532296 C26.7685233,6.21952366 26.8174023,4.89054303 26.6998285,4.38457923 C26.516202,3.53514131 25.9653223,3.29735154 25.251953,3.29735154 C24.6561575,3.29735154 24.0326199,3.69498889 23.7802985,4.33173706 C23.5279771,4.96980629 23.5517561,6.03589711 23.5517561,6.7532296 L23.5517561,13.4509749 C23.5517561,13.7046173 23.3403874,13.9080597 23.0774976,13.9080597 L20.6190156,13.9080597 C20.3693363,13.890886 20.1751413,13.6940489 20.1751413,13.4509749 L20.1751413,6.7532296 C20.1751413,5.34366466 20.4063258,3.2696094 18.6572499,3.2696094 C16.8883582,3.2696094 16.957053,5.29214354 16.957053,6.7532296 L16.957053,13.4509749 C16.957053,13.7046173 16.7456843,13.9080597 16.4827945,13.9080597 L16.4761893,13.9080597 Z M46.0017529,2.62889806 L46.0017529,0.820374722 C46.0017529,0.546916481 46.2091585,0.363289933 46.4588377,0.363289933 L54.5529374,0.363289933 C54.8118641,0.363289933 55.0205907,0.550879644 55.0205907,0.820374722 L55.0205907,2.36865037 C55.0205907,2.62889806 54.7986535,2.96840902 54.4102636,3.50475707 L50.2159162,9.49309622 C51.7747602,9.45478565 53.4194728,9.6872912 54.833001,10.4838869 C55.151375,10.6635503 55.2385646,10.9264401 55.2623436,11.1866878 L55.2623436,13.1154271 C55.2623436,13.3783169 54.9717117,13.6874436 54.6665481,13.5275961 C52.1763607,12.2223944 48.8684408,12.0797205 46.1153636,13.5421277 C45.8353001,13.6940489 45.540705,13.3888854 45.540705,13.1259956 L45.540705,11.2936932 C45.540705,10.9990981 45.540705,10.4970975 45.8392633,10.0505811 L50.698101,3.08201969 L46.4694062,3.08201969 C46.2091585,3.08201969 46.0017529,2.89839314 46.0017529,2.62889806 Z M51.2938965,16.5620578 C50.7047063,15.8064147 47.3862178,16.2053731 45.8973896,16.3810734 C45.444268,16.4365576 45.3742521,16.0415624 45.783779,15.7575357 C48.4258876,13.8988123 52.7615878,14.4351604 53.2675516,15.058698 C53.7735154,15.6848777 53.1354462,20.0324674 50.6531851,22.1065227 C50.2714004,22.4248968 49.9081105,22.2558018 50.0772055,21.8330645 C50.6360114,20.4406732 51.8857288,17.320343 51.2938965,16.5620578 Z M49.3717625,18.7602922 C50.1366529,18.1922388 49.482731,17.3480851 48.6993458,17.6796697 C43.5181708,19.8792252 37.8838742,20.9387107 32.7608257,20.9387107 C25.1660845,20.9387107 17.8130962,18.8580502 11.8662382,15.398209 C11.3467996,15.0930454 10.9586739,15.6267513 11.3919797,16.0177834 C16.9015688,20.994195 24.1858622,23.987704 32.2759987,23.987704 C38.0463639,23.987704 44.7480724,22.1686123 49.3717625,18.7602922 Z"></path>
        </g>
    </g>
</svg>