<?xml version="1.0" encoding="UTF-8"?>
<svg width="80px" height="48px" viewBox="0 0 80 48" version="1.1" xmlns="http://www.w3.org/2000/svg" xmlns:xlink="http://www.w3.org/1999/xlink" style="background: #FFFFFF;">
    <!-- Generator: Sketch 49.3 (51167) - http://www.bohemiancoding.com/sketch -->
    <title>amd</title>
    <desc>Created with Sketch.</desc>
    <defs></defs>
    <g id="amd" stroke="none" stroke-width="1" fill="none" fill-rule="evenodd">
        <rect id="bg" fill-opacity="0" fill="#FFFFFF" x="0" y="0" width="79.6595745" height="48.0963468"></rect>
        <g id="AMD" transform="translate(0.000000, 14.278603)" fill="#000000" fill-rule="nonzero">
            <g id="Group" transform="translate(0.000000, 1.268891)">
                <path d="M18.7045095,16.4633995 L14.2876139,16.4633995 L12.936403,13.2042864 L5.57517586,13.2042864 L4.34412352,16.4633995 L0,16.4633995 L6.63679177,0.00297720845 L11.3914652,0.00297720845 L18.7045095,16.4633995 Z M9.07460593,3.9362522 L6.66118186,10.331831 L11.7296412,10.331831 L9.07460593,3.9362522 Z" id="Shape"></path>
                <polygon id="Shape" points="34.7490061 0.00297720845 38.3209094 0.00297720845 38.3209094 16.4633995 34.2175013 16.4633995 34.2175013 6.18173309 29.7767134 11.34616 29.1494401 11.34616 24.7089509 6.18173309 24.7089509 16.4632004 20.6055426 16.4632004 20.6055426 0.00297720845 24.1774461 0.00297720845 29.4628279 6.10906057"></polygon>
                <path d="M48.717956,0.00297720845 C54.7272756,0.00297720845 57.8160561,3.74342118 57.8160561,8.25668247 C57.8160561,12.9870654 54.8237405,16.4633995 48.2591239,16.4633995 L41.4528954,16.4633995 L41.4528954,0.00297720845 L48.717956,0.00297720845 Z M45.5560053,13.4464949 L48.2345345,13.4464949 C52.3616361,13.4464949 53.5926885,10.6462142 53.5926885,8.23229238 C53.5926885,5.40821886 52.0719416,3.01948354 48.1862523,3.01948354 L45.5559054,3.01948354 L45.5559054,13.4464949 L45.5560053,13.4464949 Z" id="Shape"></path>
            </g>
            <g id="Group" transform="translate(60.626790, 0.000000)">
                <polygon id="Shape" points="13.8404291 5.17478021 5.3527781 5.17478021 0.178893828 0 19.0143133 0 19.0143133 18.8361164 13.8404291 13.6619335"></polygon>
                <polygon id="Shape" points="5.34670544 13.6680061 5.34670544 6.21170737 0.0199102757 11.5383035 0.0199102757 18.9946022 7.47521347 18.9946022 12.80171 13.6680061"></polygon>
            </g>
        </g>
    </g>
</svg>