<?xml version="1.0" encoding="UTF-8"?>
<svg width="80px" height="48px" viewBox="0 0 80 48" version="1.1" xmlns="http://www.w3.org/2000/svg" xmlns:xlink="http://www.w3.org/1999/xlink" style="background: #FFFFFF;">
    <!-- Generator: Sketch 49.3 (51167) - http://www.bohemiancoding.com/sketch -->
    <title>apple-watch</title>
    <desc>Created with Sketch.</desc>
    <defs></defs>
    <g id="apple-watch" stroke="none" stroke-width="1" fill="none" fill-rule="evenodd">
        <rect id="bg" fill-opacity="0" fill="#FFFFFF" x="0" y="0" width="79.6595745" height="48.0963468"></rect>
        <g id="Apple-Watch" transform="translate(0.000000, 15.781614)" fill="#000000" fill-rule="nonzero">
            <g id="Group" transform="translate(16.368406, 4.092101)">
                <polygon id="Shape" points="12.1767298 9.30271058 12.1401737 9.30271058 9.90670475 0.379201399 7.28039405 0.379201399 5.05620052 9.30271058 5.01964442 9.30271058 2.95149636 0.379201399 0.187418245 0.379201399 3.66543165 12.8721143 6.27319149 12.8721143 8.57077004 4.33271699 8.61660157 4.33271699 10.9136345 12.8721143 13.5404908 12.8721143 17.0092288 0.379201399 14.2454235 0.379201399"></polygon>
                <path d="M45.1885305,0.177597202 C41.894116,0.177597202 39.9263608,2.31012766 39.9263608,5.88826115 L39.9263608,7.39851938 C39.9263608,11.0137546 41.8851134,13.0819027 45.1800734,13.0819027 C48.4840361,13.0819027 50.1309706,11.0683159 50.1309706,8.81711454 L50.1309706,8.58850248 L47.6503387,8.58850248 C47.6503387,9.87860565 47.0095156,10.8855354 45.224541,10.8855354 C43.4313821,10.8855354 42.5523987,9.77766715 42.5523987,7.39851938 L42.5523987,5.88826115 C42.5523987,3.53639405 43.4401119,2.35568639 45.2065357,2.35568639 C46.8630184,2.35568639 47.6500659,3.45400641 47.6500659,4.68954824 L50.1304249,4.68954824 L50.1304249,4.56132906 C50.1309706,2.12707432 48.2818863,0.177597202 45.1885305,0.177597202 Z" id="Shape"></path>
                <path d="M21.1919021,0.379201399 L17.1647287,12.8718414 L19.754756,12.8718414 L20.6591105,9.72337861 L24.6109892,9.72337861 L25.5017033,12.8718414 L28.2750568,12.8718414 L24.2571588,0.379201399 L21.1919021,0.379201399 Z M21.2120898,7.80172778 L22.6377779,2.84073681 L22.6653314,2.84073681 L24.0689222,7.80172778 L21.2120898,7.80172778 Z" id="Shape"></path>
                <polygon id="Shape" points="60.5821976 0.379201399 60.5821976 5.3942081 55.4758006 5.3942081 55.4758006 0.379201399 52.8855004 0.379201399 52.8855004 12.8721143 55.4758006 12.8721143 55.4758006 7.54528942 60.5821976 7.54528942 60.5821976 12.8721143 63.1820461 12.8721143 63.1820461 0.379201399"></polygon>
                <polygon id="Shape" points="28.2297709 2.53901253 31.9456718 2.53901253 31.9456718 12.8721143 34.5266966 12.8721143 34.5266966 2.53901253 38.2513273 2.53901253 38.2513273 0.379201399 28.2297709 0.379201399"></polygon>
            </g>
            <g id="Group">
                <path d="M10.4193087,4.26124162 C9.01599067,4.15784786 7.82600758,5.04528825 7.16199592,5.04528825 C6.48843602,5.04528825 5.44958788,4.28361177 4.34744856,4.30379948 C2.90129991,4.32616963 1.56809327,5.14486272 0.822512387,6.44124045 C-0.680107257,9.0495459 0.43894608,12.9133081 1.90228155,15.0283789 C2.61812649,16.0636806 3.47146604,17.2282926 4.59297464,17.1857348 C5.67274381,17.1434497 6.08058992,16.4868038 7.38515185,16.4868038 C8.68889537,16.4868038 9.05691169,17.1857348 10.1983352,17.1636374 C11.3596736,17.1431769 12.095979,16.1097849 12.8063678,15.0687543 C13.6288802,13.869223 13.966615,12.7078846 13.9868027,12.6448662 C13.960886,12.6358636 11.7222338,11.7754311 11.6998636,9.19658875 C11.6796759,7.04114252 13.45974,6.00393122 13.5410364,5.95400758 C12.5302874,4.46639231 10.9690143,4.30216263 10.4193087,4.26124162 Z" id="Shape"></path>
                <path d="M9.55314719,2.86392539 C10.1489572,2.14480676 10.5502559,1.14060507 10.4397692,0.14404197 C9.5820647,0.177324395 8.5448534,0.715572136 7.92994695,1.43441795 C7.3788773,2.07224016 6.8949181,3.09281026 7.02613815,4.0708225 C7.98287147,4.14448033 8.95761003,3.58468085 9.55314719,2.86392539 Z" id="Shape"></path>
            </g>
        </g>
    </g>
</svg>