<?xml version="1.0" encoding="UTF-8"?>
<svg width="80px" height="48px" viewBox="0 0 80 48" version="1.1" xmlns="http://www.w3.org/2000/svg" xmlns:xlink="http://www.w3.org/1999/xlink" style="background: #FFFFFF;">
    <!-- Generator: Sketch 49.3 (51167) - http://www.bohemiancoding.com/sketch -->
    <title>att</title>
    <desc>Created with Sketch.</desc>
    <defs></defs>
    <g id="att" stroke="none" stroke-width="1" fill="none" fill-rule="evenodd">
        <rect id="bg" fill-opacity="0" fill="#FFFFFF" x="0" y="0" width="79.6595745" height="48.0963468"></rect>
        <g transform="translate(0.000000, 6.012043)" fill="#000000" fill-rule="nonzero" id="Shape">
            <path d="M79.3762005,23.6144984 C79.3762005,23.4728114 79.2817425,23.2524094 78.9668825,23.2838954 C77.1564376,23.2838954 76.2276007,22.3078295 76.2276007,20.4186696 L76.2276007,14.814162 C76.2276007,14.719704 76.3063157,14.640989 76.4007737,14.640989 L79.2659995,14.640989 C79.4549155,14.640989 79.6123455,14.483559 79.6123455,14.310386 L79.6123455,13.0666891 C79.6123455,12.8777731 79.4549155,12.7203431 79.2659995,12.7203431 L76.4322597,12.7203431 C76.3220587,12.7203431 76.2433437,12.6416281 76.2433437,12.5314271 L76.2433437,9.96531831 C76.2433437,9.69768733 76.0229417,9.60322933 75.8812547,9.61897233 L74.4014128,9.72917332 C74.2282398,9.72917332 74.0708099,9.88660331 74.0708099,10.0755193 L74.0708099,12.5471701 C74.0708099,12.6416281 73.9920949,12.7203431 73.8976369,12.7203431 L72.102935,12.7203431 C71.929762,12.7203431 71.772332,12.8777731 71.772332,13.0666891 L71.772332,14.310386 C71.772332,14.499302 71.929762,14.640989 72.118678,14.640989 L73.8976369,14.640989 C73.9920949,14.640989 74.0708099,14.719704 74.0708099,14.814162 L74.0708099,20.7965016 C74.0708099,23.9923303 76.4952317,25.1415693 78.6047935,25.1415693 C78.6047935,25.1415693 78.8724245,25.1415693 79.0455975,25.1258263 C79.2345135,25.1100833 79.3762005,24.9683963 79.3762005,24.7794803 L79.3762005,23.6144984 Z M67.4587503,22.1346565 C66.8762594,22.8273484 66.2307964,23.2996384 65.2862165,23.2996384 C64.1842065,23.2996384 63.3183416,22.4967454 63.3183416,21.4891935 C63.3183416,20.5918426 63.6961736,20.0565806 64.8454125,19.3638887 C64.9241275,19.3166597 65.0028425,19.3324027 65.0658145,19.3796317 L67.4430073,21.8670255 C67.5217223,21.9772265 67.4902363,22.0244555 67.4587503,22.1346565 Z M65.5066185,16.9552098 C65.4593895,16.9866958 65.3334455,16.9709528 65.3019595,16.9079808 C64.9556135,16.5301489 64.5305525,15.9161719 64.5305525,15.4753679 C64.5305525,14.719704 65.0658145,14.137213 65.8529644,14.137213 C66.6086284,14.137213 67.0022033,14.672475 67.0022033,15.3021949 C67.0022033,16.0578589 66.3252544,16.4986629 65.5066185,16.9552098 Z M72.260365,24.1969893 L69.9933731,21.8670255 C69.9304011,21.8040535 69.8989151,21.6938525 69.9618871,21.6151375 L71.693617,18.7026827 C71.725103,18.6239677 71.740846,18.5609957 71.740846,18.5295097 C71.740846,18.3563367 71.583416,18.1989067 71.3945,18.1989067 L70.1350601,18.1989067 C70.0091161,18.1989067 69.8989151,18.2618787 69.8359432,18.3720797 L68.7339332,20.2612396 C68.6867042,20.3399546 68.5765032,20.3556976 68.4977882,20.3084686 L66.7345724,18.4822807 C66.6716004,18.3720797 66.7188294,18.3405937 66.7660584,18.2461357 C67.7736103,17.6479018 68.9071062,16.7977798 68.9071062,15.2864519 C68.9071062,13.5547221 67.6634093,12.3897401 65.8214784,12.3897401 C64.0110336,12.3897401 62.6413926,13.6019511 62.6413926,15.4123959 C62.6413926,16.2152889 62.9719956,17.0024388 63.6804306,17.9155328 C63.6961736,18.0257337 63.6804306,18.0729627 63.6332016,18.1044487 C62.1376167,18.9545707 61.3662097,20.0880666 61.3662097,21.4734505 C61.3662097,23.8349003 63.3340846,25.0628543 65.2862165,25.0628543 C66.6243714,25.0628543 67.6634093,24.5433353 68.6709612,23.3783534 C68.7496762,23.3153814 68.8598772,23.3153814 68.9228492,23.3783534 L70.1508031,24.6535363 C70.2452611,24.7322513 70.3239761,24.7637373 70.4026911,24.7637373 L72.02422,24.7637373 C72.197393,24.7637373 72.354823,24.6220503 72.354823,24.4331343 C72.354823,24.3544193 72.323337,24.2599613 72.260365,24.1969893 Z M56.7220251,9.61897233 L55.2421832,9.72917332 C55.0690102,9.72917332 54.9115802,9.88660331 54.9115802,10.0755193 L54.9115802,12.5471701 C54.9115802,12.6416281 54.8328652,12.7203431 54.7226642,12.7203431 L52.9437053,12.7203431 C52.7547893,12.7203431 52.5973593,12.8777731 52.5973593,13.0666891 L52.5973593,14.310386 C52.5973593,14.404844 52.6445883,14.483559 52.7075603,14.546531 C52.7547893,14.609503 52.8649903,14.640989 52.9437053,14.640989 L54.7226642,14.640989 C54.8328652,14.640989 54.9115802,14.719704 54.9115802,14.814162 L54.9115802,20.7965016 C54.9115802,23.9923303 57.320259,25.1415693 59.4455639,25.1415693 C59.4455639,25.1415693 59.6817089,25.1415693 59.8863678,25.1258263 C60.0752838,25.1100833 60.2169708,24.9683963 60.2169708,24.7794803 L60.2169708,23.6144984 C60.2169708,23.4255824 60.0595408,23.2838954 59.8391388,23.2838954 C58.028694,23.2838954 57.068371,22.3078295 57.068371,20.4186696 L57.068371,14.814162 C57.068371,14.719704 57.147086,14.640989 57.241544,14.640989 L60.0910268,14.640989 C60.2799428,14.640989 60.4216298,14.483559 60.4216298,14.310386 L60.4216298,13.0666891 C60.4216298,12.8777731 60.2799428,12.7203431 60.0910268,12.7203431 L57.257287,12.7203431 C57.147086,12.7203431 57.068371,12.6416281 57.068371,12.5471701 L57.068371,9.96531831 C57.068371,9.79214532 56.926684,9.61897233 56.7220251,9.61897233 Z M51.7157514,24.2914473 C51.6055504,23.9608443 51.5740644,23.5987554 51.5583214,23.4413254 L51.5583214,16.9394668 C51.5583214,13.822353 49.3228156,12.7046001 47.2762257,12.7046001 C45.6389538,12.7046001 44.1433689,13.1454041 43.183046,13.775124 C42.99413,13.901068 42.99413,14.089984 43.072845,14.247414 L43.844252,15.2707089 C44.0174249,15.4911109 44.2063409,15.4281389 44.4109999,15.2864519 C45.1666639,14.814162 46.0482718,14.546531 46.9456227,14.546531 C49.4959886,14.546531 49.4330166,16.5458919 49.4330166,16.7977798 C49.4330166,16.9394668 49.3543016,16.9709528 49.2441006,16.9709528 L48.8505256,16.9552098 C46.8826507,16.8922378 41.8606341,17.5534438 41.8606341,21.5364225 C41.8606341,23.8821293 43.812766,25.0628543 45.6232108,25.0628543 C47.3864267,25.0628543 48.8032966,24.3701623 49.5117316,23.5042974 C49.5589606,23.4570684 49.6061896,23.5042974 49.6061896,23.5357834 C49.5904466,23.6459844 49.6061896,23.8821293 49.6219326,24.1025313 C49.6534186,24.6377933 49.7636195,24.7952233 50.0155075,24.8109663 L51.4323774,24.8109663 C51.6212934,24.8109663 51.7629804,24.6692793 51.7629804,24.4961063 C51.7629804,24.4331343 51.7157514,24.2914473 51.7157514,24.2914473 Z M49.5117316,19.6630056 C49.2126146,21.6938525 48.2208057,22.8745774 46.3631318,23.1736944 C45.0722059,23.3940964 43.859995,22.8588344 43.812766,21.4577075 C43.749794,19.9148936 45.5130098,18.6239677 48.8190396,18.7656547 C48.8190396,18.7656547 49.0551846,18.7813977 49.2126146,18.8128837 C49.5904466,18.8443697 49.5904466,19.0490287 49.5117316,19.6630056 Z M0.662780254,13.0666891 C0.947728534,12.0433942 1.32556051,11.0515852 1.77895888,10.1070053 C1.57429989,10.5950383 1.4656732,11.1303002 1.4656732,11.9017072 C1.4656732,16.2625179 10.8988781,20.5603566 22.4810024,17.4117568 C26.9835001,16.1680599 33.7215037,13.822353 33.7215037,10.1857203 C33.7215037,10.0125473 33.8002187,9.60322933 33.2019847,8.56419141 C33.9261626,9.77640232 34.5558826,11.0988142 34.9966866,12.4841981 C35.2013456,13.2083761 35.1698596,13.727895 35.1698596,13.916811 C35.1698596,14.814162 34.0678496,20.2454966 23.2209234,21.2373055 C22.2763435,21.3160205 15.3809099,21.4262215 9.38440165,19.8991506 C5.39512573,18.8915987 1.3932554,16.9394668 0.636017156,14.231671 C0.517944664,13.822353 0.57304516,13.4287781 0.662780254,13.0666891 Z M17.5377008,30.3839879 C15.2864519,30.6358759 2.14104785,31.2341098 0.231422084,20.7965016 C0.499053065,22.4652594 0.998106131,24.0553023 1.69237238,25.5351442 C2.51415693,27.0149861 4.56546968,29.045833 7.52830208,30.2737869 C22.9375494,36.6339585 32.4148347,29.061576 34.2410226,25.2989992 C34.9494576,23.6774704 35.4689765,21.9457405 35.7051215,20.1038096 C35.4847195,21.5049365 34.0521066,28.542057 17.5377008,30.3839879 Z M17.1598688,33.9891346 C14.4127155,33.9891346 8.48075351,33.5483307 4.61899588,29.9274409 C7.89668825,33.5483307 12.6384795,35.8310655 17.8997898,35.8310655 C24.7794803,35.8310655 30.7460769,31.9582878 33.7372467,26.2908082 C32.7926667,27.9280801 28.683744,33.9891346 17.1441258,33.9891346 L17.1598688,33.9891346 Z M6.57112774,25.2360272 C10.4454798,26.8260701 16.6088638,28.0225381 20.0880666,27.8965941 C32.6824657,27.4400471 35.4689765,21.0798755 35.7680935,19.2222017 C35.7995795,18.7971407 35.8153225,18.3563367 35.8153225,17.9155328 C35.8153225,16.4514339 35.6578925,15.018821 35.3272895,13.6649231 C35.4532335,14.247414 35.5004625,14.829905 35.5004625,15.113279 C35.5004625,15.7272559 35.5949205,21.2373055 23.0477504,24.0395593 C15.5068539,25.7240602 12.3204709,25.6610882 7.1378757,24.0395593 C2.60546632,22.6069464 0.127518291,19.2851737 0.0598233958,16.4356909 C0.0173172988,16.9237238 2.66453526e-15,17.4117568 2.66453526e-15,17.9155328 C2.66453526e-15,18.3248507 0.0157429989,18.7184257 0.0409317972,19.1277437 C0.368386174,21.4891935 3.45401396,23.9608443 6.57112774,25.2360272 Z M12.4243747,13.2398621 C14.3182575,13.4760071 19.3009167,14.168699 23.1894374,13.853839 C30.9979648,13.2083761 32.7296947,10.4690943 32.7296947,8.7058784 C32.7296947,8.21784543 32.4620637,7.50941048 32.1944328,7.10009251 C31.4859978,6.18699857 30.6988479,5.33687663 29.8487259,4.56546968 C30.0691279,4.80161467 30.1478429,5.11647464 30.1478429,5.30539063 C30.2265579,6.50185855 28.258683,8.12338744 24.2599613,9.44579934 C21.7725675,10.2801783 18.4822807,11.0673282 14.4127155,11.0673282 C7.52830208,11.0673282 5.15583214,8.45399041 5.15583214,6.81671853 C5.15583214,6.64354554 5.11804894,5.25816163 6.71596333,3.92000673 C5.25501304,5.08498865 3.98455302,6.48611555 2.95496089,8.04467244 C2.8416113,8.23358843 2.77706501,8.45399041 2.77706501,8.7058784 C2.77706501,10.3746363 6.85607602,12.5314271 12.4243747,13.2398621 Z M7.29687999,4.3608107 C7.42439828,6.15551257 12.178784,7.57238247 17.9155328,7.43069548 C23.6617274,7.27326549 28.0540241,5.63599361 28.0540241,3.82554873 C28.0540241,3.32177277 27.6604491,2.8494828 26.9835001,2.45590783 C24.3229333,0.897350938 21.2215625,0 17.9155328,0 C14.4599445,0 11.2310554,0.976065932 8.49492221,2.67630981 C7.68258347,3.18008578 7.2559482,3.77831974 7.29687999,4.3608107 Z"></path>
        </g>
    </g>
</svg>