<?xml version="1.0" encoding="UTF-8"?>
<svg width="80px" height="48px" viewBox="0 0 80 48" version="1.1" xmlns="http://www.w3.org/2000/svg" xmlns:xlink="http://www.w3.org/1999/xlink" style="background: #FFFFFF;">
    <!-- Generator: Sketch 49.3 (51167) - http://www.bohemiancoding.com/sketch -->
    <title>bbc</title>
    <desc>Created with Sketch.</desc>
    <defs></defs>
    <g id="bbc" stroke="none" stroke-width="1" fill="none" fill-rule="evenodd">
        <rect id="bg" fill-opacity="0" fill="#FFFFFF" x="0" y="0" width="79.6595745" height="48.0963468"></rect>
        <g id="BBC" transform="translate(0.751505, 12.024087)" fill="#000000" fill-rule="nonzero">
            <path d="M77.7411808,23.5529431 L77.7411808,0.573022882 L53.7810744,0.573022882 L53.7810744,23.5529431 L77.7411808,23.5529431 Z M72.2801435,7.16983139 C70.4286808,6.11185267 68.5927765,5.55174629 66.8657818,5.55174629 C65.014319,5.55174629 63.489585,6.14296969 62.3071382,7.3254165 C61.0935744,8.46118778 60.4556754,9.87701224 60.4556754,11.6506825 C60.4556754,13.3465601 61.0780159,14.7935016 62.2604627,15.9759484 C63.520702,17.0806027 65.014319,17.6251505 66.8191063,17.6251505 C68.7483616,17.6251505 70.6309414,17.0339271 72.4824042,15.8514803 L72.4824042,18.3252835 C70.7554095,19.2743527 68.8261542,19.741108 66.7101967,19.741108 C64.9054095,19.741108 63.4117925,19.3832622 62.1515531,18.6831293 C60.9379893,17.9363208 59.9578031,16.9561346 59.2109946,15.7425708 C58.5108616,14.4045388 58.1063403,13.0665069 58.1063403,11.6506825 C58.1063403,9.28578884 58.9309414,7.37209203 60.626819,5.80068246 C62.2760212,4.22927288 64.3141861,3.40467182 66.7101967,3.40467182 C68.4371914,3.40467182 70.2886542,3.84031012 72.295702,4.74270373 L72.2801435,7.16983139 Z" id="Shape"></path>
            <path d="M51.1050105,0.573022882 L27.1449042,0.573022882 L27.1449042,23.5529431 L51.1050105,23.5529431 L51.1050105,0.573022882 Z M34.4885212,3.99589522 L38.658202,3.99589522 C39.9962339,3.99589522 41.0230956,4.15148033 41.7543456,4.50932607 C42.5011542,4.89828884 43.045702,5.38060267 43.4035478,5.95626756 C43.7925105,6.57860799 43.9947712,7.29429948 43.9947712,8.11890054 C43.9947712,9.69031012 43.2012871,10.7949644 41.552085,11.4639803 C42.7345318,11.666241 43.6680425,12.1329963 44.3370584,12.9109218 C45.0060744,13.6110548 45.3172446,14.5290069 45.3639201,15.5403101 C45.3328031,16.3337942 45.1305425,17.0650442 44.7415797,17.7029431 C44.3059414,18.3252835 43.714718,18.8387144 42.8901169,19.2743527 C42.0655159,19.6633154 41.0853297,19.8655761 39.8717659,19.8655761 L34.4885212,19.8655761 L34.4885212,3.99589522 Z" id="Shape"></path>
            <path d="M38.2536808,10.7794059 C39.4672446,10.7794059 40.3385212,10.5460282 40.851952,10.1103899 C41.3653829,9.59695905 41.6298776,9.00573565 41.6298776,8.25892714 C41.6298776,6.76531012 40.6496914,5.98738458 38.7204361,5.98738458 L36.7600637,5.98738458 L36.7600637,10.7794059 L38.2536808,10.7794059 Z" id="Shape"></path>
            <path d="M38.8760212,12.8331293 L36.7600637,12.8331293 L36.7600637,17.8274112 L39.0316063,17.8274112 C40.089585,17.8274112 40.9608616,17.7496186 41.5054095,17.5940335 C42.0188403,17.3139803 42.3766861,17.0028101 42.6100637,16.6449644 C42.8434414,16.2560016 42.9990265,15.8203633 42.9990265,15.353608 C42.952351,14.8868527 42.8434414,14.4512144 42.5633882,14.0622516 C42.3300105,13.6266133 41.9410478,13.3154431 41.3809414,13.1131825 C40.883069,12.9109218 40.027351,12.7864537 38.8760212,12.8331293 Z" id="Shape"></path>
            <path d="M24.3910478,0.573022882 L0.430941389,0.573022882 L0.430941389,23.5529431 L24.3910478,23.5529431 L24.3910478,0.573022882 Z M7.72788288,19.8655761 L7.72788288,3.99589522 L11.8975637,3.99589522 C13.2355956,3.99589522 14.2157818,4.15148033 14.9625903,4.50932607 C15.7093988,4.86717182 16.3006222,5.38060267 16.658468,6.0029431 C17.0474308,6.5941665 17.2496914,7.29429948 17.2808084,8.11890054 C17.2341329,9.69031012 16.4562073,10.7794059 14.8070052,11.4950974 C16.020569,11.697358 16.9229627,12.1641133 17.5919786,12.9109218 C18.2609946,13.6110548 18.6188403,14.5290069 18.6188403,15.5403101 C18.6188403,16.3649112 18.4165797,17.1117197 17.9964999,17.7029431 C17.5608616,18.3719591 16.9696382,18.8853899 16.1917127,19.2743527 C15.3671116,19.6633154 14.3402499,19.8655761 13.1266861,19.8655761 L7.72788288,19.8655761 Z" id="Shape"></path>
            <path d="M11.9753563,5.98738458 L10.0149839,5.98738458 L10.0149839,10.7794059 L11.539718,10.7794059 C12.7221648,10.7794059 13.5778829,10.5460282 14.0913137,10.1103899 C14.6047446,9.64363458 14.8692393,9.00573565 14.8692393,8.30560267 C14.8847978,6.78086863 13.8890531,5.98738458 11.9753563,5.98738458 Z" id="Shape"></path>
            <path d="M12.1309414,12.8331293 L10.0149839,12.8331293 L10.0149839,17.8274112 L12.2554095,17.8274112 C13.4378563,17.8274112 14.2935744,17.7496186 14.8070052,17.5940335 C15.2426435,17.3917729 15.5849308,17.1272782 15.8649839,16.7227569 C16.0983616,16.2871186 16.2228297,15.8514803 16.2539467,15.353608 C16.2072712,14.8090601 16.0516861,14.3734218 15.8183084,14.0622516 C15.5382552,13.6266133 15.1492925,13.3154431 14.6358616,13.159858 C14.0913137,12.9109218 13.2200371,12.8331293 12.1309414,12.8331293 Z" id="Shape"></path>
        </g>
    </g>
</svg>