<?xml version="1.0" encoding="UTF-8"?>
<svg width="80px" height="48px" viewBox="0 0 80 48" version="1.1" xmlns="http://www.w3.org/2000/svg" xmlns:xlink="http://www.w3.org/1999/xlink" style="background: #FFFFFF;">
    <!-- Generator: Sketch 49.3 (51167) - http://www.bohemiancoding.com/sketch -->
    <title>bing</title>
    <desc>Created with Sketch.</desc>
    <defs></defs>
    <g id="bing" stroke="none" stroke-width="1" fill="none" fill-rule="evenodd">
        <rect id="bg" fill-opacity="0" fill="#FFFFFF" x="0" y="0" width="79.6595745" height="48.0963468"></rect>
        <g transform="translate(0.000000, 9.018065)" fill="#000000" fill-rule="nonzero" id="Shape">
            <path d="M70.6356383,30.1835106 C69.1420213,29.8101064 68.4574468,29.5611702 68.4574468,29.4055851 C68.4574468,29.312234 68.9553191,27.725266 68.9553191,27.725266 L69.4531915,27.9742021 C71.1957447,28.8765957 74.1518617,28.8143617 75.5832447,27.8808511 C76.2678191,27.4389894 76.8590426,26.5832713 77.1390957,25.7182181 C77.3569149,24.977633 77.574734,22.23 77.3880319,22.23 C77.3569149,22.23 77.0146277,22.5567287 76.6412234,22.9581383 C74.525266,25.2639096 70.4178191,25.00875 68.675266,22.4571543 C67.8039894,21.1720213 67.5861702,20.3692021 67.5861702,18.2065691 C67.5861702,16.5915957 67.6172872,16.1466223 67.8662234,15.3189096 C68.2707447,14.0866755 69.1420213,12.7704255 70.0132979,12.1045213 C71.2890957,11.1554521 73.4050532,10.7789362 74.8986702,11.2332447 C75.6454787,11.4603989 76.6101064,12.1231915 76.9835106,12.6832979 C77.1390957,12.9073404 77.2946809,13.0909309 77.3569149,13.0909309 C77.4191489,13.0909309 77.450266,12.692633 77.450266,12.2040957 L77.450266,11.3203723 L79.5039894,11.3203723 L79.5039894,17.8300532 C79.5039894,23.8885372 79.4728723,24.4175266 79.2239362,25.4257181 C78.5082447,28.2853723 77.3257979,29.5300532 74.6808511,30.1212766 C73.3117021,30.4635638 71.7558511,30.4635638 70.6356383,30.1835106 Z M74.5875,22.6967553 C75.5210106,22.4229255 76.5167553,21.5111968 77.0146277,20.4718883 C77.3880319,19.7375266 77.3880319,19.6192819 77.3880319,17.6495745 C77.3880319,15.7669947 77.3569149,15.5367287 77.0768617,14.9237234 C76.3922872,13.5234574 74.6808511,12.5432713 73.2494681,12.7455319 C70.7912234,13.0909309 69.3598404,15.3500266 69.5776596,18.5364096 C69.7021277,20.3723138 70.4800532,21.7943617 71.631383,22.3886968 C72.7515957,22.96125 73.4361702,23.0328191 74.5875,22.6967553 Z M0,25.4475 L0.115132979,0 L0.317393617,0.0902393617 L6.88619681,2.13151596 L6.93909574,19.2956649 L0.535212766,24.9620745 L0.441861702,25.1705585 L16.7751862,16.6351596 L12.0671809,14.2453723 L9.34444149,8.06864362 L24.4113032,12.6023936 L24.4113032,20.0175798 L6.92664894,30.2768617 L0,25.4475 Z M38.5228723,24.4642021 C37.4960106,24.2028191 36.531383,23.5929255 36.1268617,22.96125 C35.9712766,22.7092021 35.7845745,22.5007181 35.7223404,22.5007181 C35.6601064,22.5007181 35.5978723,22.899016 35.5978723,23.3875532 L35.5978723,24.2743883 L33.606383,24.2743883 L33.6375,14.7152394 C33.668617,7.19114362 33.7308511,5.16853723 33.8553191,5.21832447 C33.9486702,5.25255319 34.3843085,5.38324468 34.8199468,5.50771277 L35.5978723,5.73486702 L35.6289894,9.67739362 L35.6601064,13.6168085 L36.2824468,12.8451064 C36.7492021,12.2694415 37.1537234,11.9458245 37.8382979,11.5910904 C38.7406915,11.1336702 38.8340426,11.115 40.2343085,11.115 C41.5723404,11.115 41.7279255,11.146117 42.5680851,11.5630851 C44.5284574,12.5308245 45.4930851,14.4600798 45.4619681,17.5251064 C45.4619681,20.7830585 44.0928191,23.3097606 41.9146277,24.1374734 C41.1367021,24.4361968 39.1763298,24.6228989 38.5228723,24.4642021 Z M40.981117,22.5287234 C42.6303191,21.676117 43.6260638,19.566383 43.4704787,17.1828191 C43.3771277,15.9817021 43.3460106,15.7732181 42.9726064,14.9050532 C42.5992021,14.1146809 41.9768617,13.4425532 41.2611702,13.0535904 C40.4521277,12.6335106 38.8962766,12.6428457 38.025,13.0847074 C37.0914894,13.5327926 36.2202128,14.562766 35.8779255,15.5958511 C35.5356383,16.6911702 35.5045213,19.2303191 35.8156915,20.2571809 C36.1579787,21.321383 37.3093085,22.4291489 38.4606383,22.8025532 C39.0207447,22.9892553 40.3898936,22.846117 40.981117,22.5411702 L40.981117,22.5287234 Z M48.2625,11.3203723 L49.2893617,11.3203723 L50.3162234,11.3203723 L50.3784574,24.2743883 L48.2625,24.2743883 L48.2625,11.3203723 Z M53.8635638,17.7958245 L53.8635638,11.3203723 L54.8904255,11.3203723 L55.9172872,11.3203723 L55.9172872,12.3410106 C55.9172872,12.9042287 55.9484043,13.3616489 56.0106383,13.3585372 C56.0728723,13.3585372 56.2906915,13.1189362 56.4773936,12.8295479 C57.6598404,11.1336702 60.4292553,10.5237766 62.3896277,11.5257447 C62.9808511,11.8275798 63.3231383,12.1169681 63.6654255,12.5961702 C64.5055851,13.8813032 64.5367021,14.1582447 64.5989362,19.4668085 L64.6611702,24.2743883 L62.6074468,24.2743883 L62.5452128,19.7406383 C62.5140957,16.5355851 62.4518617,15.0450798 62.3273936,14.6592287 C62.0784574,13.8657447 61.1449468,13.0286968 60.3047872,12.8264362 C58.5,12.3970213 56.5707447,13.632367 56.0417553,15.5429521 C55.9795213,15.8074468 55.9172872,17.8705053 55.9172872,20.1482713 L55.9172872,24.2743883 L53.8635638,24.2743883 L53.8635638,17.7958245 Z M50.5651596,6.92353723 C50.5658924,7.26014259 50.4310037,7.58285308 50.1909468,7.81881149 C49.9508898,8.0547699 49.6259045,8.18408191 49.2893617,8.17755319 C48.5998653,8.17378303 48.0432991,7.61304251 48.0446809,6.92353723 C48.0450128,6.23524559 48.6010803,5.6763978 49.2893617,5.67263298 C49.6253645,5.66611552 49.9498705,5.79500391 50.1898346,6.03028578 C50.4297987,6.26556765 50.5650557,6.58747129 50.5651596,6.92353723 Z"></path>
        </g>
    </g>
</svg>