<?xml version="1.0" encoding="UTF-8"?>
<svg width="80px" height="48px" viewBox="0 0 80 48" version="1.1" xmlns="http://www.w3.org/2000/svg" xmlns:xlink="http://www.w3.org/1999/xlink" style="background: #FFFFFF;">
    <!-- Generator: Sketch 49.3 (51167) - http://www.bohemiancoding.com/sketch -->
    <title>canon</title>
    <desc>Created with Sketch.</desc>
    <defs></defs>
    <g id="canon" stroke="none" stroke-width="1" fill="none" fill-rule="evenodd">
        <rect id="bg" fill-opacity="0" fill="#FFFFFF" x="0" y="0" width="79.6595745" height="48.0963468"></rect>
        <path d="M6.28258531,27.5501887 C5.63629065,26.4980811 5.26805299,25.2656122 5.26805299,23.9579928 C5.26805299,20.0426495 8.49201124,16.773601 12.4073545,16.773601 C13.7901244,16.773601 15.1278041,17.4198956 16.217487,18.1037656 L12.4073545,23.9655078 L19.0882377,19.9599839 C17.4048655,17.4875311 14.1959374,15.7816138 10.2129587,15.7816138 C4.56915295,15.7816138 0,19.4790205 0,24.0481734 C0,25.2956724 0.338177439,26.483051 0.954411883,27.5426736 C2.57766359,30.3608189 6.11725411,32.314733 10.2129587,32.314733 C13.7750943,32.314733 16.9539623,30.916933 18.7350301,28.6022963 L18.4644882,27.7230349 C18.4644882,27.7230349 16.3452429,31.0371738 12.4975351,31.0371738 C9.89732637,31.0371738 7.55262947,29.6393737 6.28258531,27.5501887 L6.28258531,27.5501887 Z M34.1709514,27.5426736 L32.1794621,20.8317302 C32.1794621,20.8317302 30.916933,17.4123806 26.9489843,18.855271 C22.9735207,20.2981614 22.0792292,20.8317302 22.0792292,20.8317302 L27.460008,20.8317302 L28.7375672,25.1077961 C27.7530951,24.2360498 26.3177198,23.6874508 24.7170132,23.6874508 C21.8913529,23.6874508 19.5767162,25.3858531 19.3662947,27.5426736 C19.3587796,27.6553994 19.3512646,27.7606102 19.3512646,27.865821 C19.3512646,30.1729426 21.7485668,32.0441911 24.7170132,32.0441911 C27.1894661,32.0441911 29.2786511,30.7365717 29.8948856,28.9630189 L30.8192373,32.0441911 L35.5086311,32.0441911 L34.1709514,27.5426736 L34.1709514,27.5426736 Z M24.1834444,27.5426736 C24.3788358,26.2500843 25.4985789,25.2580971 26.8437736,25.2580971 C28.1964833,25.2580971 29.3162264,26.2500843 29.5041028,27.5426736 C29.5266479,27.6779446 29.534163,27.8132156 29.534163,27.9484866 C29.534163,29.4364673 28.3317543,30.638876 26.8437736,30.638876 C25.3633079,30.638876 24.1533842,29.4364673 24.1533842,27.9484866 C24.1533842,27.8132156 24.1684143,27.6779446 24.1834444,27.5426736 L24.1834444,27.5426736 Z M49.1709996,27.5426736 L49.1709996,20.8542754 C49.1334243,19.554171 48.0662866,18.5095785 46.7586672,18.5095785 C45.488623,18.5095785 43.6474348,19.7119872 41.7837013,20.7114894 C41.6709755,19.4790205 40.7315937,18.5095785 39.4690646,18.5095785 C38.1389,18.5095785 34.2911923,20.8317302 34.2911923,20.8317302 L37.0567322,20.8317302 L37.0567322,32.0441911 L41.7987314,32.0441911 L41.7987314,21.6734163 C41.9866078,21.1849378 42.4675713,20.8317302 43.0236853,20.8317302 C43.7526455,20.8317302 44.3463348,21.4254195 44.3463348,22.1543798 L44.3463348,32.0441911 L49.1709996,32.0441911 L49.1709996,27.5426736 L49.1709996,27.5426736 Z M64.2912886,27.5426736 C64.5167403,26.8588037 64.6369811,26.1298434 64.6369811,25.3633079 C64.6369811,21.5306303 61.5257487,18.4193978 57.685556,18.4193978 C53.8453633,18.4193978 50.7341309,21.5306303 50.7341309,25.3633079 C50.7341309,26.1298434 50.8543717,26.8588037 51.0798234,27.5426736 C51.99666,30.3157286 54.6043838,32.314733 57.685556,32.314733 C60.7667282,32.314733 63.374452,30.3157286 64.2912886,27.5426736 L64.2912886,27.5426736 Z M56.6109033,27.5426736 L54.5743236,20.8317302 C54.6870494,19.9599839 55.5512806,19.1182979 56.4606022,19.1182979 C57.3699237,19.1182979 58.1214291,19.8021678 58.2266399,20.6889442 L60.2256443,27.5426736 L60.7967884,29.4965877 C60.8043035,29.5642232 60.8118185,29.6318587 60.8118185,29.6994942 C60.8118185,30.6764512 60.0152228,31.473047 59.0382658,31.473047 C58.0763388,31.473047 57.2947732,30.7140265 57.2797431,29.7596146 L56.6109033,27.5426736 L56.6109033,27.5426736 Z M72.2873063,27.5426736 L72.2873063,21.6734163 C72.4751827,21.1849378 72.9561461,20.8317302 73.5122601,20.8317302 C74.2412204,20.8317302 74.8349097,21.4254195 74.8349097,22.1543798 L74.8349097,32.0441911 L79.6595745,32.0441911 L79.6595745,20.8542754 C79.6219992,19.554171 78.5548615,18.5095785 77.2472421,18.5095785 C75.9771979,18.5095785 74.1360096,19.7119872 72.2722762,20.7114894 C72.1595504,19.4790205 71.2201686,18.5095785 69.9576395,18.5095785 C68.6274749,18.5095785 64.892493,20.8317302 64.892493,20.8317302 L67.5453071,20.8317302 L67.5453071,32.0441911 L72.2873063,32.0441911 L72.2873063,27.5426736 L72.2873063,27.5426736 Z" fill="#000000"></path>
    </g>
</svg>