<?xml version="1.0" encoding="UTF-8"?>
<svg width="80px" height="48px" viewBox="0 0 80 48" version="1.1" xmlns="http://www.w3.org/2000/svg" xmlns:xlink="http://www.w3.org/1999/xlink" style="background: #FFFFFF;">
    <!-- Generator: Sketch 49.3 (51167) - http://www.bohemiancoding.com/sketch -->
    <title>cbs</title>
    <desc>Created with Sketch.</desc>
    <defs></defs>
    <g id="cbs" stroke="none" stroke-width="1" fill="none" fill-rule="evenodd">
        <rect id="bg" fill-opacity="0" fill="#FFFFFF" x="0" y="0" width="79.6595745" height="48.0963468"></rect>
        <g id="CBS" transform="translate(0.751505, 12.775592)" fill="#000000" fill-rule="nonzero">
            <path d="M66.6946382,0.00821959053 C60.6112605,0.00821959053 55.6636542,4.94026746 55.6636542,11.0392036 C55.6636542,17.1381398 60.6112605,22.0546292 66.6946382,22.0546292 C72.7780159,22.0546292 77.7256222,17.1225813 77.7256222,11.0236451 C77.7256222,4.92470895 72.7935744,0.00821959053 66.6946382,0.00821959053 Z M66.6946382,17.5115441 C62.1671116,17.4959855 58.4797446,14.5087515 56.5349308,10.9614111 C58.4953031,7.41407065 62.1982286,4.5513047 66.6946382,4.5513047 C71.2688403,4.5513047 74.9250903,7.39851214 76.8543456,10.9614111 C74.9406488,14.5087515 71.2999573,17.5271026 66.6946382,17.5115441 Z" id="Shape"></path>
            <path d="M66.6946382,16.8892036 C69.9308084,16.8892036 72.5446382,14.2753738 72.5446382,11.0392036 C72.5446382,7.80303342 69.9308084,5.18920363 66.6946382,5.18920363 C63.458468,5.18920363 60.8446382,7.80303342 60.8446382,11.0392036 C60.8601967,14.2598153 63.4740265,16.8892036 66.6946382,16.8892036 Z" id="Shape"></path>
            <path d="M18.6966329,0.583884484 L28.5607286,0.583884484 C32.745968,0.583884484 35.670968,3.15103874 35.670968,5.78042704 C35.670968,7.74079938 34.9241595,9.59226214 30.7855956,10.4946558 C32.3725637,10.7124749 36.7289467,11.8793632 36.7289467,16.0023685 C36.7289467,20.1253738 32.1703031,22.1479802 29.0430425,22.1479802 L18.6966329,22.1479802 L18.6966329,21.9301611 L28.9341329,21.9301611 C31.376819,21.9301611 32.9171116,20.9188579 32.9171116,16.3135387 C32.9171116,11.6926611 31.2212339,10.6346824 29.1052765,10.5880068 L25.9313403,10.5880068 L25.9313403,10.3701877 L29.2919786,10.3701877 C30.6766861,10.3701877 32.1236276,10.1523685 32.1236276,5.70263448 C32.1236276,1.25290044 30.3810744,0.770586612 28.5140531,0.770586612 L25.9157818,0.770586612 L25.9157818,21.9301611 L21.9950371,21.9301611 L21.9950371,0.786145122 L18.7121914,0.786145122 L18.6966329,0.583884484 Z" id="Shape"></path>
            <path d="M4.77176586,11.5215175 C4.77176586,3.35329938 7.15221798,0.443857888 9.96830841,0.443857888 C13.9512871,0.443857888 16.1139201,6.32497491 16.8140531,8.61207597 L16.8140531,0.708352569 C16.1294786,1.23734193 15.8027499,1.50183661 15.0714999,1.50183661 C14.3246914,1.50183661 13.2200371,1.12843236 12.6910478,0.817262144 C12.1620584,0.506091931 11.1040797,0.24159725 10.046101,0.24159725 C6.54543607,0.24159725 0.4464999,4.8469164 0.4464999,11.537076 C0.4464999,19.4407994 5.8608616,22.8325547 10.046101,22.8325547 C11.1040797,22.8325547 12.270968,22.4124749 12.7999573,22.0857462 C13.3289467,21.774576 14.3402499,21.3389377 15.0870584,21.3389377 C15.8338669,21.3389377 16.1450371,21.6034324 16.8296116,22.1324217 L16.8296116,14.1820228 C16.2383882,17.2626079 13.9668456,22.6147355 9.98386692,22.6147355 C8.84809564,22.6147355 7.27668607,22.0857462 6.56099458,21.3389377 C6.31205841,21.0900015 4.77176586,20.0009058 4.77176586,11.5215175 Z" id="Shape"></path>
            <path d="M50.8405159,17.9316238 C50.7938403,19.674177 49.4558084,22.0079536 46.701952,21.9612781 C43.9480956,21.9146026 40.6030159,19.8453207 39.327218,14.2753738 L39.327218,21.805693 C39.8562073,21.3233792 40.758601,20.4832196 42.1899839,21.1211185 C43.6213669,21.7590175 45.7373244,22.1790973 46.701952,22.1790973 C47.6510212,22.1790973 52.9097978,21.1677941 53.1120584,15.1310919 C53.1587339,12.1127409 50.996101,10.5724483 49.658069,10.0901345 C48.1177765,9.49891108 45.939585,8.81433661 44.6949042,8.39425682 C43.4191063,7.97417704 41.3498244,6.65170363 41.4120584,4.20901746 C41.4587339,1.76633129 42.952351,0.443857888 44.9593988,0.443857888 C46.9664467,0.443857888 49.6736276,2.03082597 51.058335,7.64744831 L51.058335,0.163804697 C50.264851,0.848379165 49.626952,1.17510789 49.1446382,1.17510789 C48.7245584,1.17510789 47.4954361,0.692794059 46.8575371,0.506091931 C46.1729627,0.288272782 45.4883882,0.210480229 44.6326701,0.226038739 C43.1234946,0.24159725 39.5761542,2.07750151 39.327218,7.00954938 C39.1560744,10.6191238 41.8165797,11.9727143 43.045702,12.4239111 C44.1036808,12.7973153 47.1842659,13.9019696 48.0866595,14.2753738 C48.9890531,14.6487781 50.9494254,15.9090175 50.8405159,17.9316238 Z" id="Shape"></path>
        </g>
    </g>
</svg>