<?xml version="1.0" encoding="UTF-8"?>
<svg width="80px" height="48px" viewBox="0 0 80 48" version="1.1" xmlns="http://www.w3.org/2000/svg" xmlns:xlink="http://www.w3.org/1999/xlink" style="background: #FFFFFF;">
    <!-- Generator: Sketch 49.3 (51167) - http://www.bohemiancoding.com/sketch -->
    <title>coca-cola</title>
    <desc>Created with Sketch.</desc>
    <defs></defs>
    <g id="coca-cola" stroke="none" stroke-width="1" fill="none" fill-rule="evenodd">
        <rect id="bg" fill-opacity="0" fill="#FFFFFF" x="0" y="0" width="79.6595745" height="48.0963468"></rect>
        <g id="Coca-Cola" transform="translate(0.000000, 11.272581)" fill="#000000" fill-rule="nonzero">
            <path d="M30.616763,22.7373367 C27.654343,20.8285609 23.6382788,20.4926164 17.1535314,22.2945007 C10.2412181,23.9182326 7.9405071,24.9616967 4.91191625,22.8696785 C3.7513806,21.8414846 3.33399497,20.1923024 3.64448916,17.8101502 C4.36727891,13.9315179 6.3167752,10.1954075 9.78311196,6.05209163 C11.717338,3.89899259 13.5090422,2.0462076 15.8810142,1.30305758 C17.6981687,0.83477126 17.5251064,2.26508055 17.3062334,2.4686833 C17.0720903,2.4686833 16.6852451,2.50431378 16.384931,2.70282646 C16.1406077,2.891159 15.4687186,3.50196724 15.4330882,4.32655836 C15.3821875,5.58380532 16.6852451,5.32421181 17.2451526,4.63196248 C17.8508708,3.85318197 18.7467229,2.36179186 18.0442934,0.967113045 C17.7490694,0.473376385 17.2400625,0.132341785 16.603804,0.015270206 C14.4354347,-0.106891442 12.4146775,0.926392495 10.5517123,2.06656787 C6.47456733,4.89664605 3.21183332,8.82108898 1.36922847,13.1171069 C0.300314051,15.7079519 -0.661708925,19.423702 0.778780504,22.4472028 C1.89350554,24.5443111 4.20948678,25.6590361 6.97339406,25.4248929 C8.91271022,25.2212902 11.2541418,24.5952117 12.8320631,24.2185467 C14.4099844,23.8418816 22.4777432,21.0677942 25.129669,25.8931793 C25.129669,25.8931793 26.0102508,24.1829162 28.2142506,24.1472857 C30.026315,23.9793134 32.6375202,24.6715628 34.5412059,26.0713317 C33.9100374,25.1093087 32.1132432,23.7044497 30.616763,22.7373367 Z" id="path5"></path>
            <path d="M17.9730324,6.53564815 C16.461282,5.54308477 13.4326912,7.43659031 10.9996384,10.6840541 C8.78036843,13.5955734 7.81834546,16.980469 8.86180953,18.5482102 C10.4142805,20.390815 13.3003494,17.7134389 14.5219659,16.2780396 L14.679758,16.1100673 C15.5145293,15.2142152 16.1558779,14.1351207 16.7819564,13.1018367 C16.7819564,13.1018367 17.3571341,12.155084 17.3825845,12.1092733 C17.7388893,12.0431024 18.161365,11.9413011 18.6449215,11.8038692 C18.6398314,11.8242295 16.8074067,14.903721 16.9906492,16.4358317 C17.0466399,16.904118 17.0059194,18.6042009 18.6652818,19.1233879 C20.8845517,19.494963 22.6508055,17.7745197 24.2134566,16.2474992 C24.2134566,16.2474992 24.4781402,15.9929957 24.6308422,15.8453837 C24.5952117,15.9980858 24.5443111,16.2016885 24.5443111,16.2016885 C23.8927823,18.4565889 24.7682741,18.9299653 25.3180015,19.1081177 C26.9722738,19.5865842 28.9472204,17.1840718 28.9523105,17.1840718 C28.9014098,17.942492 28.7487078,18.5685705 29.5478485,19.0673972 C30.3011787,19.3371708 31.064689,18.9248753 31.6449568,18.53803 C33.731885,17.0670002 35.4116076,14.7662892 36.770656,12.7760723 L35.9053443,12.7760723 C35.8951642,12.7760723 33.7675155,15.8606539 32.3881069,16.5274529 C32.3881069,16.5274529 32.1336034,16.6547046 31.9910815,16.5529033 C31.8129291,16.4002012 31.8841901,16.0795269 31.9910815,15.8555639 C31.9961716,15.8402937 37.3254735,6.60181905 37.3254735,6.60181905 L34.8160696,6.60181905 C34.8160696,6.60181905 34.5412059,7.04465502 34.5208456,7.07519543 C34.5055754,7.05992523 34.4648549,6.9835742 34.4343145,6.94794372 C32.8767534,4.79484467 29.3493359,8.10847937 26.69232,11.9514812 C25.6692162,13.4276011 24.3661587,15.0920536 23.0172905,16.2933098 C23.0172905,16.2933098 21.0168935,18.1257345 20.1617619,16.8074067 C19.8512678,16.2525892 19.9479791,15.4432683 20.1210414,14.9139012 C21.1136048,12.083823 22.8289579,9.51333832 24.7835443,7.96086738 C25.3332717,7.53330161 25.9338998,7.40604989 26.2291238,7.58929237 C26.5141676,7.75726463 26.5599782,8.16956019 26.3767358,8.45460404 C25.9237197,8.43933383 25.5572347,8.57676569 25.2620107,8.8821698 C24.6766528,9.49297804 24.4781402,10.083426 24.6613826,10.6382435 C25.5623248,11.9209408 27.359119,9.3860866 27.2725879,7.8437958 C27.2420474,7.28897832 26.9468235,6.76470124 26.5039875,6.51019781 C25.8473686,6.11826252 24.8446251,6.2200639 24.1981864,6.53055809 C23.3277847,6.85632248 21.9585562,8.00158793 21.1543253,8.88725987 C20.1464917,10.0019849 18.4107783,11.2388716 17.8712311,11.1014397 C18.0493835,10.6484236 19.5153232,7.65546326 17.9730324,6.53564815 Z M30.097576,10.9640079 C30.5862226,10.2870288 32.0114418,8.47496431 32.3575664,8.16956019 C33.5231922,7.14136632 33.9914785,7.59438243 34.032199,7.91505676 C32.9429243,9.86455306 31.655137,12.1041833 30.4487907,14.1096703 C30.4487907,14.1045802 30.0721256,14.6848481 30.0721256,14.6848481 C29.5376684,15.4992591 28.9981211,16.2016885 28.1226293,16.6852451 C27.9953776,16.7208755 27.7917749,16.7361457 27.654343,16.6343444 C27.4914608,16.5274529 27.4252899,16.3442105 27.4405601,16.1558779 C27.4914608,15.5297995 28.1328095,13.6159337 30.097576,10.9640079 Z M16.4205615,12.1347237 C16.4205615,12.1347237 16.4002012,12.2008946 16.3900211,12.2212548 C16.384931,12.2212548 15.2956563,14.0027789 15.2956563,14.0027789 C14.6339474,14.8833608 13.8093563,15.9929957 12.7811624,16.5223629 C12.4757583,16.6241642 12.0532826,16.6903351 11.8394997,16.4205615 C11.3813935,15.8759241 11.6206267,15.1175039 11.8089593,14.5066957 L11.8751302,14.2878227 C12.4248576,12.8015227 13.2901693,11.493375 14.1351207,10.2768486 C14.1453008,10.2717585 14.1707511,10.2615784 14.1758412,10.2615784 C14.1758412,10.2666685 14.1809313,10.2666685 14.1809313,10.2819387 C14.7102984,11.2999524 15.7079519,11.7733288 16.4511019,11.9922018 C16.456192,11.9922018 16.461282,11.9972918 16.461282,12.012562 C16.461282,12.0380124 16.4460118,12.0685528 16.4205615,12.1347237 Z M17.4538454,10.0325253 C17.4487554,10.0477955 16.9651988,11.1523404 16.9651988,11.1523404 C16.8939379,11.2083312 16.7870464,11.1828808 16.6597947,11.1523404 L16.4409218,11.1167099 C15.7588526,10.9080171 15.2498457,10.455001 15.0920536,9.91545374 C14.8731806,8.8668996 15.7690327,8.04230848 16.1660581,7.74708449 C16.5427231,7.48240092 17.1331711,7.34496907 17.4742057,7.61474271 C17.6828985,7.86415607 17.7643396,8.1848304 17.7643396,8.53095507 C17.7643396,9.00433145 17.6218177,9.53369859 17.4538454,10.0325253 Z" id="path7"></path>
            <path d="M49.2464142,13.4072408 C49.002091,12.8829638 48.4269132,12.5470192 47.816105,12.5826497 C45.8258881,12.7658922 43.8763918,14.4048943 42.853288,16.756506 C42.3188308,17.9628523 42.0236068,18.9605057 41.8301842,20.5486072 C42.4511726,19.8359976 43.7135096,18.6652818 45.148909,18.0239331 C45.148909,18.0239331 45.3423316,16.5020026 46.339985,15.1480443 C46.7166501,14.5881368 47.4699803,13.6821045 48.3149317,13.9264278 C49.0529916,14.1758412 48.7933981,16.2220488 47.8110149,18.2020855 C47.0831351,19.6578451 45.9735001,21.1136048 44.8485949,22.1214384 C43.8560315,22.9663898 42.3799116,23.9844035 41.0921243,23.2005329 C40.2828033,22.7220665 39.8654177,21.7142329 39.957039,20.4213554 C40.3438842,16.7463259 42.0185168,13.6159337 44.4159391,10.0477955 C46.8846224,6.73416083 49.6078091,3.33399497 53.2777486,1.52193053 C54.0259887,1.14526545 54.7182381,1.05364421 55.3188662,1.28778737 C55.3188662,1.28778737 51.8779797,3.18129291 50.2338876,6.68326015 C49.8165019,7.57402216 49.2362341,8.77018829 49.821592,9.83401264 C50.1269961,10.3888301 50.6716335,10.4295507 51.1042893,10.4041003 C53.1148664,9.93581402 54.417924,8.05757868 55.4766583,6.34222555 C56.0925566,5.03916797 56.6371939,3.74120046 56.6371939,2.30071103 C56.6371939,2.1276487 56.6270138,1.89350554 56.6117436,1.72044321 C57.5737666,1.21143634 59.5436231,2.11237849 59.5436231,2.11237849 C61.0859139,2.62138536 64.3639182,5.13587927 65.4684631,5.61434573 C66.0080103,4.98826728 66.8936823,4.04151451 67.392509,3.56813813 L66.6697193,3.12530215 C65.5142737,2.41778261 64.2875671,1.75098362 63.0863109,1.08418462 C60.3529441,-0.407205492 58.1285841,0.117071579 56.9934987,0.524277072 C56.5506628,0.6820692 56.1434573,0.824591122 56.1434573,0.824591122 C55.3035959,-0.0916212358 53.9241873,-0.00509006866 52.9112637,0.244323295 C49.2565944,1.29287744 45.8666087,3.8480919 42.2322996,8.2815417 C39.5600136,11.7529685 37.9006512,14.756109 37.0149793,17.718529 C36.3329101,19.7138359 36.1242173,22.6457155 37.7886697,24.3865189 C39.2037088,25.8626388 41.0768541,25.5419645 42.4002719,25.0125974 C45.2659806,23.5975583 47.8466454,20.5587873 49.1293427,17.0568201 C49.4347468,16.0031759 49.7757814,14.532146 49.2464142,13.4072408 Z M55.8380532,2.43814289 C55.456298,6.79015159 52.0714024,9.35045612 51.2366311,9.55405887 C50.7276242,9.65586024 49.8623126,9.43189722 50.636003,7.60456257 C51.7761784,5.14096934 53.7154945,3.05404119 55.8024227,1.98512678 C55.8533234,2.15818911 55.8533234,2.27526069 55.8380532,2.43814289 Z" id="path9"></path>
            <path d="M75.9132839,2.9878703 C74.0910394,4.02115424 72.207714,4.6930433 69.9222731,4.45890014 C69.2911046,5.17150975 68.6752063,5.90956971 68.1051186,6.66289987 C71.3118619,7.47731086 74.7120277,5.66524641 76.6055333,3.93971314 C78.6110203,2.19890966 79.6392142,0.0101801373 79.6392142,0.0101801373 C79.6392142,0.0101801373 78.1376439,1.73062334 75.9132839,2.9878703 Z" id="path11"></path>
            <polygon id="polygon13" points="41.5095099 6.61708925 39.1222677 6.61708925 37.7733995 8.80581878 40.1606417 8.80581878"></polygon>
            <path d="M69.912093,22.9409394 C69.6575896,23.1140018 69.2961947,22.98166 69.4285365,22.5795446 C69.764481,21.5615308 71.098079,19.4847828 71.098079,19.4847828 L74.8189192,12.8880538 L72.2687948,12.8880538 C72.1466331,13.0865665 71.8870396,13.5446727 71.8870396,13.5446727 C71.7699681,13.34616 71.4187533,12.9135042 71.2711413,12.8167929 C70.6501529,12.4248576 69.7339406,12.6081001 69.1027721,12.9644049 C66.3643151,14.5677765 64.3639182,17.7337992 62.7859969,20.2024825 C62.7859969,20.2024825 61.1266345,22.9460295 60.2053321,23.1496322 C59.4876324,23.205623 59.5588933,22.23851 59.5894338,22.0145469 C59.8693875,20.385725 60.5107362,18.833254 61.162265,17.4283951 C62.4856828,16.5121827 63.9974332,15.3109265 65.3666617,13.9925987 C68.3443518,11.1472504 70.8537557,7.92014683 71.2253307,7.19735708 C71.2253307,7.19735708 70.8283053,7.27879818 70.360019,7.29406838 C68.0694881,10.4906315 63.3815349,15.1378642 61.9563157,15.8250235 C62.5874842,14.308183 66.6544491,7.0802855 70.1156957,3.62412888 L70.6603331,3.09985181 C71.5052845,2.27526069 72.3756862,1.43030929 73.0577554,1.29287744 C73.1290164,1.28778737 73.2206376,1.29287744 73.3020787,1.4608497 C73.3326191,2.10219835 73.0933859,2.57557474 72.8185222,3.11512202 L72.436767,3.90408266 C72.436767,3.90408266 72.9814044,3.80228129 73.3377092,3.68520971 C73.7500048,2.9064292 74.2081109,2.03093739 74.0401387,0.992563388 C73.9841479,0.656618857 73.7398246,0.402115424 73.4242404,0.346124669 C72.3909564,0.147611991 71.2660513,0.916212358 70.360019,1.53211067 L70.3243886,1.55247094 C65.6669757,5.20205017 61.7374427,10.455001 58.3016464,17.6370879 C58.052233,17.8254204 57.09021,18.0544735 56.9273278,17.942492 C57.2683624,17.2451526 57.6959282,16.3034899 57.9097111,15.2854762 C57.9453416,14.9953423 57.9809721,14.6950282 57.9809721,14.4048943 C57.9809721,13.7788159 57.82827,13.1883679 57.2683624,12.7811624 C56.6117436,12.455398 55.7973326,12.6081001 55.2476052,12.8524234 C52.789102,13.8704371 50.9515872,16.3900211 49.6281694,18.4667691 C48.9155598,19.7850969 48.2029502,21.1950459 48.0095276,22.8136877 C47.8720957,24.0811148 48.1520495,24.8955258 48.8748392,25.3027313 C49.6179893,25.6793964 50.5494718,25.2874611 50.9159568,25.0991285 C53.4050003,23.7909809 55.1458038,21.1594154 56.5150323,18.756903 C56.571023,18.7518129 57.3192631,18.7263626 57.8842608,18.5838407 C57.8893508,18.5838407 57.8944409,18.5838407 57.9097111,18.5940208 C57.8791707,18.7009122 57.5839467,19.5764041 57.5839467,19.5764041 C56.713545,22.1265284 56.3114295,23.8571518 57.1360207,24.8853457 C58.3067365,26.3360152 60.2511427,24.834445 61.829064,22.8544083 C61.4880294,25.2263803 62.719826,25.5979553 63.6563986,25.4198029 C64.7354932,25.129669 65.9316593,23.9793134 66.4915669,23.3888655 C66.3134145,24.0811148 66.3592251,25.3180015 67.3416083,25.4401631 C68.0134974,25.5623248 68.5174142,25.2009299 69.097682,24.8853457 C71.1846102,23.7502603 73.6787438,19.9632493 74.3302726,18.8688845 L73.4802311,18.8688845 C72.5640188,20.2482931 71.3882129,22.0705377 69.912093,22.9409394 Z M51.1908205,22.686436 C51.0584787,22.4879233 51.0126681,22.2741404 51.0126681,22.0399973 C50.9872177,20.6147781 52.5244185,18.0544735 53.6086031,16.6648848 C53.6086031,16.6648848 53.6086031,16.6648848 53.6086031,16.6648848 C54.0616192,17.6574482 55.0898131,18.2987968 55.7108014,18.5685705 C54.937111,20.2890137 52.2902753,23.9691333 51.1908205,22.686436 Z M56.1434573,17.7999701 C56.0721963,17.8508708 54.7742288,17.4131249 54.5197254,16.2118687 C54.3059425,15.1785847 55.0185521,14.3692638 55.7108014,13.9620583 C56.0060254,13.7279152 56.4539515,13.6515641 56.7797159,13.7635456 C57.08512,13.9671484 57.1665611,14.3336333 57.1665611,14.7255686 C57.1665611,14.9648018 57.1360207,15.2142152 57.1054803,15.4381782 C57.1054803,15.4381782 57.1003902,15.4839889 57.1003902,15.4890789 C56.8815172,16.2983998 56.5506628,17.0924505 56.1434573,17.7999701 Z M66.5526477,22.2283298 C66.5526477,22.2283298 66.3083244,22.4472028 66.3083244,22.4472028 C65.9571096,22.757697 65.5957148,23.0936415 65.1630589,22.9256692 C65.0408973,22.8798586 64.9594562,22.7220665 64.9390959,22.5999048 C64.9187356,21.7040527 65.3208511,20.8743716 65.7127864,20.0650506 L65.8145877,19.8512678 C66.9394929,17.9730324 68.2476405,15.7588526 70.1665964,14.2216518 C70.4923608,13.9875087 70.8435756,13.7940861 71.2100605,13.9467881 C71.2965917,14.0282292 71.393303,14.1656611 71.393303,14.3030929 C71.393303,14.3489035 71.3525824,14.4608851 71.3322221,14.5016056 C70.7977649,15.3669173 70.283668,16.2780396 69.7899313,17.1535314 C68.8177282,18.8790646 67.8098946,20.6605887 66.5526477,22.2283298 Z" id="path15"></path>
        </g>
    </g>
</svg>