<?xml version="1.0" encoding="UTF-8"?>
<svg width="80px" height="48px" viewBox="0 0 80 48" version="1.1" xmlns="http://www.w3.org/2000/svg" xmlns:xlink="http://www.w3.org/1999/xlink" style="background: #FFFFFF;">
    <!-- Generator: Sketch 49.3 (51167) - http://www.bohemiancoding.com/sketch -->
    <title>disney</title>
    <desc>Created with Sketch.</desc>
    <defs></defs>
    <g id="disney" stroke="none" stroke-width="1" fill="none" fill-rule="evenodd">
        <rect id="bg" fill-opacity="0" fill="#FFFFFF" x="0" y="0" width="79.6595745" height="48.0963468"></rect>
        <g transform="translate(0.000000, 7.515054)" fill="#000000" fill-rule="nonzero" id="Shape">
            <path d="M72.927283,12.5128978 C72.8567878,15.0542497 70.459951,16.6298174 70.459951,19.1782188 C70.5656938,19.2663378 70.636189,19.3791301 70.7419318,19.3227339 C72.6453022,17.2466503 74.5486726,14.2929015 77.2979853,13.404662 C78.0029373,13.3623649 78.7078893,13.9968217 78.9546225,14.46209 C79.9063077,16.3971832 79.6948221,19.1182979 78.3554133,20.8736283 C76.9455093,22.5972359 74.5486726,24.3243683 71.7993598,24.0318132 C70.636189,26.8234231 69.8959895,29.7842214 69.4025231,32.8507626 C69.1910375,33.4852194 68.6623235,32.9212578 68.3098475,32.815515 C65.9482583,30.9121446 67.8868763,25.9774807 68.0278667,25.3465487 C68.2041047,24.7156166 68.8385615,23.228168 69.2967803,21.9804029 C68.2041047,19.9959631 68.8738091,17.5956016 69.7902467,15.7556769 C70.459951,14.5466842 71.4468838,13.3200678 72.6100546,12.3437093 C72.7157974,12.3437093 72.8567878,12.3860064 72.927283,12.5128978 Z M77.6504613,15.6710827 C77.2979853,15.6111617 77.1569949,16.0764301 76.8750141,16.164549 C75.5003577,17.6872453 74.160949,19.2064169 73.4912446,21.0216682 C74.4076822,21.1344606 75.1831294,20.5493504 75.9233289,20.2285973 C77.2979853,19.3791301 78.1439277,17.9798004 78.0734325,16.3689851 C78.0029373,16.1046281 77.7562041,15.9037168 77.6504613,15.6710827 Z M26.8339974,7.3455997 C29.5304387,9.54857466 33.0305253,13.3200678 32.5934551,17.6273244 C32.0682659,21.0498663 28.4412879,23.6229411 25.371222,24.4406854 C22.3892751,25.3148258 18.6495048,25.2302316 15.607637,24.5288044 C15.4032009,25.0821917 15.1952401,25.7554208 14.550209,25.988055 C14.1448616,26.1325701 13.6196724,26.0479759 13.2989192,25.7871437 C12.3895312,24.9376765 13.1191565,23.2986632 11.8079458,22.7734739 C9.23134626,21.6913726 6.4573602,19.5588929 5.13909998,16.9223724 C4.96638674,16.3971832 5.1813971,15.871994 5.49157597,15.4631218 C7.50773866,13.8699303 10.0490906,13.1931764 12.5939672,12.7243834 C12.7384824,12.7666805 12.6820862,12.5551949 12.7984033,12.5128978 C12.9464432,10.7751911 13.0063641,8.95641499 13.5597515,7.38789682 C13.6866428,7.17641122 13.9968217,7.09181698 14.2047825,7.26100546 C15.8085483,8.48762192 15.0507249,10.7751911 15.7521521,12.4706006 C18.822218,12.597492 21.8922839,12.7243834 24.3208435,14.46209 C25.1385878,15.1388439 25.3359744,16.4253813 25.0786669,17.1620561 C24.8213594,17.8952062 23.9683675,18.4133459 23.1752966,18.4732668 C22.6501073,18.4732668 21.6596498,18.5261382 21.7160459,18.1243156 C21.7759669,17.7189682 23.5030992,17.0633628 22.9743852,16.517025 C22.2095123,15.7274788 18.3886726,15.2586857 16.0200339,14.9696554 C15.7310036,14.9273583 15.4595971,15.0119526 15.4595971,15.3186067 C15.4032009,17.5392054 15.2269629,19.9959631 15.607637,22.1284429 C15.6499341,22.272958 15.8085483,22.4527208 15.9565882,22.4809188 C20.1404783,23.1506232 24.5534777,22.7734739 27.8279797,20.3766372 C29.350676,19.146496 29.8441423,17.4228883 29.5833101,15.5230427 C28.2650499,10.2253286 22.7417511,7.04951986 18.2089098,5.01573338 C13.7923856,3.06654114 8.91059311,2.0937074 3.67632461,2.34749011 C2.84448127,2.38978723 1.52269629,2.68586707 1.51317944,2.9819469 C1.50612992,3.27802674 3.01014498,3.1934325 2.82685747,3.74329505 C2.64850461,4.29668236 1.11840633,3.95478064 0.665122199,3.82788929 C0.211838072,3.70099793 0.256250047,3.02424402 0.372567125,2.64356995 C1.51317944,0.609783468 4.69498023,0.440594992 6.13308228,0.356000753 C14.0849407,0.183287516 21.7759669,3.1934325 26.8339974,7.3455997 Z M12.5058482,15.181141 C10.4896856,15.181141 8.35368104,15.4067257 6.48203352,16.1046281 C6.1048842,16.252668 5.63256637,16.6615402 5.92512145,17.1620561 C6.68999435,18.1807117 7.77209565,19.0266541 8.79427603,19.615289 C9.81293165,20.2074487 11.1629147,20.9617473 12.3895312,21.1344606 C12.6820862,19.2381397 12.6820862,17.3629674 12.6538882,15.4067257 C12.5340463,15.3468047 12.6538882,15.2304877 12.5058482,15.181141 Z M68.5565807,13.9968217 C68.7328187,14.2506044 68.8738091,14.5889814 68.5565807,14.7581698 C67.2524195,15.3468047 65.4900395,15.0965468 63.9391452,15.2586857 C63.5866692,15.6111617 63.2341932,16.1962719 63.4104312,16.7214611 C63.516174,16.8095801 63.6571644,16.9399962 63.8334024,16.9223724 C64.74984,16.9822934 66.1597439,16.488827 66.7942007,17.3629674 C66.8999435,17.6237997 66.7589531,18.5966334 66.3359819,18.6213067 C65.1728111,18.7658219 63.3046884,18.4767916 62.7759744,18.7658219 C62.0357748,19.2381397 62.1415176,20.144003 61.8595368,20.8736283 C62.3530032,21.1943815 62.8817172,20.8736283 63.4809264,20.7819846 C64.5383544,20.6092713 65.7367727,20.2885182 66.8294483,20.5211523 C67.0409339,20.9018264 67.3229147,21.3142233 67.1114291,21.7794916 C65.2785539,23.2387422 62.8817172,24.74029 60.34389,23.6793372 C59.4274525,23.2528413 59.0044813,21.8076897 59.3217097,20.5810732 C59.4979477,19.703408 60.4496328,18.8539409 59.8856712,17.9198795 C59.815176,17.5074826 60.0266616,17.1620561 60.34389,17.0704124 C61.3308228,17.0704124 61.1193372,15.871994 61.6128036,15.3186067 C61.0840896,14.7158727 59.6741857,14.7158727 59.815176,13.4892563 C60.4848804,13.1508793 61.3308228,13.2777707 62.0357748,13.1508793 C63.7981548,12.8089776 65.7367727,12.597492 67.4639051,12.8089776 C67.8163811,12.8512747 68.3098475,13.5738505 68.5565807,13.9968217 Z M36.0935417,14.4197929 C36.3755225,17.2149275 36.5165129,19.8197251 36.4460177,22.7734739 C36.4107701,23.1506232 35.9525513,23.2387422 35.6705705,23.3867822 C35.2123517,23.4713764 34.5778949,23.3867822 34.4087065,23.1259499 C33.7319526,22.0403239 33.9681115,20.5810732 33.9081905,19.2663378 C33.9963095,17.1867294 33.9681115,14.9273583 34.5426473,13.0204632 C34.6483901,12.7243834 35.0008661,12.4706006 35.2475993,12.6397891 C35.9525513,13.0204632 36.0582941,13.7007419 36.0935417,14.4197929 Z M48.8531727,13.3200678 C48.8531727,13.743039 48.5359443,14.2929015 48.2187159,14.3351986 C45.4341555,14.800467 42.2971192,14.5466842 39.6535492,15.4067257 C39.583054,15.7239541 39.9707776,15.783875 40.1470156,15.871994 C42.4381096,16.22447 44.7996987,16.3090642 46.9498023,16.869501 C48.1482207,17.1620561 48.5711919,18.5331877 48.6416871,19.6716852 C48.7121823,20.570499 48.3597063,21.6596498 47.4785163,22.272958 C45.3284127,23.6511391 42.0151384,23.5912182 39.8297872,22.3328789 C38.9838449,21.8640859 38.1731501,21.1062625 38.1026549,20.1686763 C38.1026549,19.4284767 38.4551309,18.8433666 38.9485973,18.5649106 C41.0634532,17.7154434 43.6717756,18.1807117 45.4694031,19.2663378 C45.6103935,19.8514479 44.9759367,19.8162003 44.6587083,20.0241612 C42.6495952,21.1943815 41.1339484,18.705901 39.2658256,19.615289 C38.9838449,19.791527 38.8076069,20.2779439 39.1248352,20.4365581 C41.4159292,21.4552137 43.989004,20.7291132 46.2800979,20.0840821 C46.5268311,19.9959631 46.8793071,19.7316061 46.8793071,19.4707739 C46.8088119,18.5331877 45.7513839,18.3287516 45.0464319,18.0679194 C43.107814,17.5674035 40.8872152,17.5674035 38.7723593,17.3629674 C38.3493881,17.2748484 37.8206741,16.9928676 37.7149313,16.6615402 C37.4681981,15.9636377 37.4681981,15.0119526 37.9969121,14.4197929 C40.7109772,12.0053323 44.8349463,12.2168179 48.2892111,12.8512747 C48.5359443,12.935869 48.7826775,13.0204632 48.8531727,13.3200678 Z M57.7355677,13.9968217 C58.6520053,16.2843909 59.4274525,19.8761213 57.7355677,22.0720467 C57.2421013,22.5972359 56.3961589,23.0836528 55.9026925,22.6853549 C53.9640746,21.1344606 53.1533798,18.9138618 51.9549614,16.9223724 C51.7787234,16.8377782 51.7787234,17.0704124 51.6729806,17.1620561 C51.2500094,19.1782188 52.0607042,21.8076897 50.6860478,23.3867822 C50.1925814,23.4713764 49.6638674,23.2070194 49.522877,22.6853549 C48.8179251,20.6092713 49.522877,18.4450687 49.7343626,16.3689851 C50.0868386,15.3186067 50.2630766,14.0814159 51.2147618,13.3200678 C52.6246658,13.8699303 53.3648654,15.5230427 54.2108078,16.7214611 C54.8100169,17.6273244 55.3034833,18.6530296 56.0436829,19.4707739 C56.6076445,19.2064169 56.3256637,18.4027716 56.3256637,17.9198795 C56.0789305,16.0165091 55.5502165,14.2506044 55.0567501,12.4706006 C55.0215025,11.9630352 54.7747693,11.2016871 55.2682357,10.9056072 C56.5723969,11.4977669 57.1363585,12.8512747 57.7355677,13.9968217 Z M40.1470156,3.95478064 C40.7109772,3.95478064 41.2044436,4.169791 41.6274148,4.50816795 C42.1913764,5.0580305 42.3323668,5.94627001 42.050386,6.62654867 C41.0282056,8.74492939 38.5961213,10.1407343 36.9394841,10.6060026 C35.9525513,10.8633101 34.6836377,10.8633101 33.7918735,10.4791113 C33.3512785,10.7751911 32.9847034,11.6246583 32.4454152,11.2439842 C31.669968,10.6482998 32.3431971,9.71776313 31.8955526,9.04100923 C31.8003841,8.87182075 31.56775,8.87182075 31.4549576,8.66033515 C30.8416494,7.30330258 31.5994728,6.03086424 32.4454152,5.01573338 C33.8623687,3.40491809 37.9264169,1.66721145 40.1470156,3.95478064 Z M35.4590849,5.01573338 C34.6836377,5.14262474 33.7777744,5.48100169 33.2984071,6.03086424 C32.815515,6.62654867 32.5053361,7.17641122 32.7978912,7.72627377 C33.8235963,6.96492563 34.3170627,5.94627001 35.4590849,5.2695161 C35.4590849,5.18492186 35.6353229,5.10032762 35.4590849,5.01573338 Z M40.2175108,5.2695161 C38.2083977,5.10032762 36.6927509,6.62654867 35.2475993,8.10694784 C35.1771041,8.31843344 34.6483901,8.57574092 35.0361137,8.87182075 C36.9747317,9.04100923 38.8076069,8.48762192 40.2175108,7.17641122 C40.640482,6.79573715 40.9224628,6.33046884 40.7109772,5.77708153 C40.640482,5.56559593 40.4289964,5.39640746 40.2175108,5.2695161 Z"></path>
        </g>
    </g>
</svg>