<?xml version="1.0" encoding="UTF-8"?>
<svg width="80px" height="48px" viewBox="0 0 80 48" version="1.1" xmlns="http://www.w3.org/2000/svg" xmlns:xlink="http://www.w3.org/1999/xlink" style="background: #FFFFFF;">
    <!-- Generator: Sketch 49.3 (51167) - http://www.bohemiancoding.com/sketch -->
    <title>facebook</title>
    <desc>Created with Sketch.</desc>
    <defs></defs>
    <g id="facebook" stroke="none" stroke-width="1" fill="none" fill-rule="evenodd">
        <rect id="bg" fill-opacity="0" fill="#FFFFFF" x="0" y="0" width="79.6595745" height="48.0963468"></rect>
        <g transform="translate(0.000000, 16.533119)" fill="#000000" fill-rule="nonzero" id="Shape">
            <path d="M65.6868545,5.4093157 C64.5942266,5.1186659 63.4908338,5.1186659 62.4035883,5.4093157 C60.77272,5.8452904 59.680092,6.8733295 59.3302358,8.51496262 C59.1364692,9.40844163 59.0987924,10.3611271 59.1526164,11.2815181 C59.2656469,13.3806555 60.5681886,14.8769638 62.5812076,15.3452329 L62.667326,15.3452329 C62.7426797,15.3452329 62.8234158,15.3990569 62.8987694,15.3990569 L62.9795055,15.3990569 C63.0763887,15.3990569 63.1948016,15.452881 63.3185969,15.452881 C63.7115124,15.506705 64.2174583,15.5228522 64.6372858,15.452881 L64.7018746,15.452881 C66.7848649,15.3452329 68.3619091,14.0319264 68.8247959,12.0189074 C69.0777688,10.9155147 69.0777688,9.80673951 68.8247959,8.69796435 C68.4372628,6.95944796 67.3823117,5.8452904 65.6545601,5.38240368 L65.6868545,5.4093157 Z M65.8214146,11.4806671 C65.8214146,11.5452559 65.8214146,11.6098447 65.7675906,11.6744336 C65.5576768,12.600207 64.8848764,13.1007706 63.986015,13.0630937 C63.0225647,13.0092697 62.360529,12.4548821 62.2636458,11.4914319 C62.1990569,10.786337 62.1882921,10.0704773 62.2636458,9.3653824 C62.3551466,8.25122484 63.0494767,7.64301323 64.093663,7.66454284 C64.9494652,7.66454284 65.5630592,8.16510638 65.7783554,8.99399655 C65.9828867,9.81750431 65.8375618,11.2922829 65.8321794,11.4806671 L65.8214146,11.4806671 Z M70.0089247,0.495181139 L70.0089247,15.3075561 L73.1522484,15.3075561 L73.1522484,10.7755722 L76.0479816,15.3129385 L79.3796895,15.3129385 L76.2363657,10.3826567 L79.3796895,5.47390454 L76.0479816,5.47390454 L73.1522484,10.000506 L73.1522484,0.113030477 L70.0089247,0.495181139 Z M36.546521,10.7056009 C36.546521,10.0166532 36.546521,9.32770558 36.4442553,8.64952271 C36.1751351,6.79797585 35.0502128,5.62461185 33.2255779,5.31781484 C32.5312478,5.19940196 31.7938585,5.21554917 31.0833813,5.2639908 C29.1457159,5.44699252 27.6763197,6.65265095 27.3749051,8.47190339 C27.1919034,9.57529615 27.1703738,10.7432777 27.3156987,11.8466705 C27.5363772,13.5098332 28.3491202,14.5701668 29.7485451,15.0814951 C30.3890512,15.2752616 33.5216101,16.093387 36.2774008,14.7047269 L36.1643703,14.3010466 C36.0351926,13.7574238 35.8844853,13.2245658 35.7391604,12.6863255 L35.7391604,12.6325014 C35.7391604,12.6325014 35.679954,12.6325014 35.5776883,12.6863255 C35.4592754,12.7401495 35.3354802,12.7562967 35.2170673,12.7939735 L35.1524784,12.7939735 C34.7326509,12.9123864 34.1352041,13.0577113 33.5054629,13.1384474 C32.9779873,13.1922714 32.439747,13.1922714 31.9015066,13.1384474 C31.0241748,12.9931225 30.3567568,12.5248534 30.3890512,11.4160782 L36.5519034,11.4160782 L36.5519034,11.3084301 L36.546521,10.7056009 Z M33.7207591,9.3546176 L30.3244623,9.3546176 C30.3244623,8.68181714 30.426728,8.05207591 31.0241748,7.66992524 C31.6592984,7.26624497 32.3643933,7.25009776 33.0210466,7.6107188 C33.6884646,7.97672225 33.7369063,8.63875791 33.7207591,9.3546176 Z M26.8743416,14.5916964 C26.7397815,14.0965152 26.5836918,13.6013341 26.4329845,13.1276826 L26.293042,12.600207 C26.293042,12.600207 22.6168603,14.3656354 22.0463255,11.0123979 C21.9925014,10.4580104 21.9925014,9.88747556 22.1001495,9.34385279 C22.2454744,8.31581369 22.8698332,7.76142611 23.8709603,7.66992524 C24.2100518,7.61610121 24.559908,7.66992524 24.893617,7.72374928 C25.3511213,7.79910293 25.7924784,7.93904543 26.293042,8.06284071 C26.4652789,7.53536515 26.6428982,7.00788959 26.8097527,6.48041403 C26.8635768,6.39967798 26.8635768,6.32432432 26.8743416,6.26511788 L26.9550776,5.94755607 C26.9550776,5.89373203 26.8851064,5.86143761 26.8151351,5.81837838 C26.7290167,5.74840713 26.5890742,5.68920069 26.3630132,5.60846463 C26.2715124,5.5546406 26.1853939,5.54387579 26.093893,5.51696377 C26.013157,5.46313974 25.9593329,5.46313974 25.9593329,5.46313974 C24.9958827,5.18863715 24.0055204,5.16710753 22.9990109,5.2693732 C20.8783439,5.49543416 19.4358597,6.74415181 19.0375618,8.81099482 C18.8276481,9.89824037 18.8384129,11.0016331 19.0913859,12.0888787 C19.4520069,13.719747 20.4423692,14.7800805 22.0517079,15.2483496 C23.1012766,15.5551466 24.1777573,15.5712938 25.2488557,15.4044393 C25.7009776,15.3344681 26.346866,15.1030247 26.8097527,14.9361702 L26.9873721,14.8715814 L26.9012536,14.5916964 L26.8743416,14.5916964 Z M14.9899942,6.62573893 C14.9361702,6.57191489 14.9146406,6.54500288 14.8877286,6.51270845 L14.8123749,6.4373548 C14.10728,5.71611271 13.8381599,5.53849339 13.2837723,5.37702128 C11.1523404,4.74728005 9.0747326,5.86682001 8.41807936,8.00901668 C8.01439908,9.32770558 8.00901668,10.6840713 8.24584244,12.0189074 C8.75717079,14.9092582 10.9047499,15.8780909 13.1976538,15.3990569 C13.9027487,15.253732 14.4248419,14.8123749 14.9092582,14.2041633 C14.9092582,14.2041633 14.9630822,14.1503393 15.0061415,14.0480736 L15.0061415,15.3183209 L17.9395515,15.3183209 L17.9395515,5.36625647 L15.0061415,5.36625647 L15.0061415,6.62573893 L14.9899942,6.62573893 Z M14.7316389,11.6259919 C14.6347556,12.546383 13.8919839,13.0953882 13.0092697,13.0630937 C12.1104083,13.0092697 11.5129615,12.546383 11.3191949,11.679816 C11.0877516,10.4526279 11.373019,8.98861415 11.3837838,8.87020127 C11.6206095,8.0466935 12.2180564,7.63763082 13.1007706,7.65916044 C13.9673376,7.65916044 14.6293732,8.1920184 14.7316389,9.08549741 C14.8177573,9.92515239 14.8177573,10.7917194 14.7316389,11.6259919 Z M7.82063255,5.36087407 L5.57617021,5.36087407 L5.57617021,3.86994825 C5.73764232,2.45975848 8.06822312,2.72887867 8.06822312,2.72887867 L8.06822312,0.317561817 C7.98748706,0.317561817 3.43935595,-0.780448534 2.53511213,2.68043703 C2.39516964,3.11102933 2.40055204,5.09713629 2.40593445,5.34472685 L0.462886717,5.34472685 L0.462886717,7.99825187 L2.52434733,7.99825187 L2.52434733,15.2106728 L5.52772858,15.2106728 L5.52772858,7.99825187 L7.82601495,7.99825187 L8.08437033,5.34472685 L7.82601495,5.34472685 L7.82063255,5.36087407 Z M54.9758712,5.4093157 C53.8832432,5.1186659 52.7798505,5.1186659 51.6926049,5.4093157 C50.0617366,5.8452904 48.9691087,6.8733295 48.61387,8.51496262 C48.4201035,9.40844163 48.3824267,10.3611271 48.4362507,11.2815181 C48.5546636,13.3806555 49.8518229,14.8769638 51.8702243,15.3452329 L51.9563427,15.3452329 C52.0316964,15.3452329 52.1124324,15.3990569 52.1877861,15.3990569 L52.2685221,15.3990569 C52.3654054,15.3990569 52.4838183,15.452881 52.6076136,15.452881 C53.000529,15.506705 53.506475,15.5228522 53.9263025,15.452881 L53.9908913,15.452881 C56.0738815,15.3452329 57.6509258,14.0319264 58.1138125,12.0189074 C58.3667855,10.9155147 58.3667855,9.80673951 58.1138125,8.69796435 C57.7208971,6.96483036 56.6713283,5.8452904 54.9435768,5.38240368 L54.9758712,5.4093157 Z M55.1050489,11.4806671 C55.1050489,11.5452559 55.1050489,11.6098447 55.0512248,11.6744336 C54.8413111,12.600207 54.1685106,13.1007706 53.2696492,13.0630937 C52.306199,13.0092697 51.6441633,12.4548821 51.54728,11.4914319 C51.4799993,10.7843456 51.4799993,10.0724687 51.54728,9.3653824 C51.6387809,8.25122484 52.333111,7.64301323 53.3772973,7.66454284 C54.2330995,7.66454284 54.8466935,8.16510638 55.0619896,8.99399655 C55.2719034,9.81750431 55.1265785,11.2922829 55.1158137,11.4806671 L55.1050489,11.4806671 Z M43.839678,5.22631397 C42.6555492,5.09713629 41.6275101,5.45775733 40.7609431,6.50194365 L40.7609431,0.10226567 L37.6176193,0.484416331 L37.6176193,15.2914089 L40.7609431,15.2914089 L40.7609431,14.4140771 C41.186153,14.7154917 41.5952156,15.0814951 42.079632,15.253732 C43.9096492,15.9103853 46.3209661,15.3775273 47.1660035,12.9285336 C47.7096262,11.3568718 47.693479,9.74753306 47.2844163,8.15972398 C46.8376768,6.39429557 45.6589304,5.42008051 43.839678,5.22631397 Z M44.3133295,11.6421392 C44.173387,12.6163542 43.3983209,13.1276826 42.4779298,13.0577113 C42.2464865,13.0577113 42.0365727,12.9931225 41.853571,12.9177688 C41.1107993,12.4925589 40.8847384,11.7766993 40.8201495,11.3245773 C40.7663255,10.6302473 40.7125014,9.17699827 41.0515929,8.49343301 C41.3368603,7.96595745 41.8428062,7.68069005 42.5048419,7.65916044 C43.4521449,7.6053364 44.1680046,8.09513514 44.3079471,9.05858539 C44.42636,9.90362277 44.4317424,10.7971018 44.3079471,11.6421392 L44.3133295,11.6421392 Z"></path>
        </g>
    </g>
</svg>