<?xml version="1.0" encoding="UTF-8"?>
<svg width="80px" height="48px" viewBox="0 0 80 48" version="1.1" xmlns="http://www.w3.org/2000/svg" xmlns:xlink="http://www.w3.org/1999/xlink" style="background: #FFFFFF;">
    <!-- Generator: Sketch 49.3 (51167) - http://www.bohemiancoding.com/sketch -->
    <title>ford</title>
    <desc>Created with Sketch.</desc>
    <defs></defs>
    <g id="ford" stroke="none" stroke-width="1" fill="none" fill-rule="evenodd">
        <rect id="bg" fill-opacity="0" fill="#FFFFFF" x="0" y="0" width="79.6595745" height="48.0963468"></rect>
        <g transform="translate(0.000000, 9.769570)" fill="#000000" fill-rule="nonzero" id="Shape">
            <path d="M39.8297872,0.0838521837 C17.8884658,0.0838521837 0.148138858,6.45661814 0.148138858,14.3666741 C0.148138858,22.2487794 17.8884658,28.6215454 39.8297872,28.6215454 C61.7431579,28.6215454 79.4918701,22.2487794 79.4918701,14.3666741 C79.4918701,6.45661814 61.7431579,0.0838521837 39.8297872,0.0838521837 Z M40.0254423,1.03417693 C61.1282419,1.03417693 78.2340873,6.93178052 78.2340873,14.1989698 C78.2340873,21.4941097 61.1282419,27.3917133 40.0254423,27.3917133 C18.9226428,27.3917133 1.80561702,21.4941097 1.80561702,14.1989698 C1.80561702,6.93178052 18.9226428,1.03417693 40.0254423,1.03417693 Z M40.0254423,2.18015677 C19.6493617,2.18015677 3.15004703,7.57464726 3.15004703,14.1989698 C3.15004703,20.851243 19.6493617,26.2457335 40.0254423,26.2457335 C60.3735722,26.2457335 76.8924524,20.851243 76.8924524,14.1989698 C76.8924524,7.57464726 60.3735722,2.18015677 40.0254423,2.18015677 Z M30.0470325,4.32118253 C33.8483315,4.2932318 37.5098768,5.26312206 41.3111758,5.70194849 C44.6652632,6.12120941 47.8516461,6.12120941 51.2057335,5.36653975 C51.6249944,5.28268757 51.9045017,5.53424412 51.876551,5.92555431 C51.8206495,6.48456887 51.3734378,7.04358343 50.2833595,7.63054871 C49.0255767,8.32931691 47.7118925,8.524972 46.3423068,8.55292273 C43.0161702,8.58087346 39.9136394,7.29513998 36.7272564,6.59637178 C36.7272564,6.73612542 36.7552072,6.90382979 36.6434043,6.98768197 C34.8545577,8.30136618 33.2613662,9.61505039 32.1992385,11.4597984 C32.1433371,11.4877492 32.1712878,11.5436506 32.2271892,11.5156999 C33.177514,11.4877492 34.0160358,11.4597984 34.8825084,11.3759462 C35.022262,11.3759462 35.022262,11.3479955 35.022262,11.2361926 C34.9384099,10.5933259 35.1340649,9.86660694 35.6930795,9.36349384 C36.2800448,8.86038074 37.0067637,8.80447928 37.4819261,9.16783875 C38.0409406,9.58709966 37.9850392,10.3417693 37.6775812,10.9007839 C37.3701232,11.4877492 36.8670101,11.7952072 36.3918477,11.9349608 C36.3918477,11.9349608 36.2800448,11.9629115 36.3079955,12.0467637 C36.3359462,12.2144681 36.978813,12.5778275 37.0347144,12.6616797 C37.0906159,12.7455319 37.0626652,12.8852856 36.9508623,12.9970885 C36.8949608,13.0809406 36.7831579,13.1647928 36.6434043,13.1647928 C36.5316013,13.1647928 36.4756999,13.1088914 36.3079955,13.0250392 C36.0284882,12.8852856 35.6651288,12.6057783 35.4135722,12.2983203 C35.32972,12.2144681 35.2738186,12.2144681 35.0781635,12.2144681 C34.1278387,12.2703695 32.6744009,12.4101232 31.6681747,12.5219261 C31.4166181,12.5498768 31.3886674,12.6057783 31.332766,12.6896305 C29.7675252,15.2890482 28.0625308,18.0841209 26.2177828,19.9568197 C24.2053303,21.9413214 22.5562374,22.4723852 20.7953415,22.5003359 C18.587234,22.5003359 16.6306831,21.158701 16.4070773,18.8108399 C16.2952744,17.5251064 16.6586338,16.3511758 17.3853527,15.4008511 C18.0561702,14.5623292 19.1741993,13.8356103 20.1245241,13.6679059 C20.4319821,13.6120045 20.8232923,13.6679059 20.9909966,13.863561 C21.2705039,14.171019 21.1866517,14.5064278 20.9350952,14.6461814 C20.2083763,15.0095409 19.3419037,15.6244569 18.9226428,16.4629787 C18.5592833,17.1617469 18.5033819,18.0002688 19.0344457,18.8108399 C19.9009183,20.1245241 22.388533,20.1524748 24.6804927,18.0561702 C25.267458,17.5251064 25.7705711,17.0219933 26.3016349,16.435028 C27.3078611,15.2890482 27.6432699,14.8697872 28.9849048,13.0250392 C29.0128555,12.9970885 29.0128555,12.9691377 29.0128555,12.9691377 C28.9849048,12.941187 28.9569541,12.941187 28.9290034,12.941187 C28.0345801,12.941187 27.2519597,13.2206943 26.49729,13.7797088 C26.2736842,13.9474132 25.9382755,13.9194625 25.7985218,13.7238074 C25.6587682,13.4722508 25.7705711,13.1647928 26.0221277,12.9970885 C27.2519597,12.1585666 28.5935946,11.9908623 29.9631803,11.7672564 C29.9631803,11.7672564 30.0470325,11.7672564 30.1308847,11.6834043 C30.6898992,10.9566853 31.1091601,10.3138186 31.7240761,9.58709966 C32.3110414,8.86038074 33.0936618,8.18956327 33.6806271,7.68645017 C34.5191489,6.95973124 35.0502128,6.73612542 35.6092273,6.45661814 C35.748981,6.37276596 35.5812766,6.28891377 35.5253751,6.28891377 C32.5066965,5.72989922 29.376215,5.00318029 26.3575364,6.09325868 C24.2891825,6.84792833 23.3668085,8.49702128 23.8140202,9.58709966 C24.1214782,10.36972 25.1556551,10.481523 26.1059798,10.0063606 C26.916551,9.64300112 27.6432699,9.00013438 28.1743337,8.18956327 C28.4817917,7.74235162 29.0967077,8.07776036 28.761299,8.86038074 C27.8668757,10.9007839 26.189832,12.5219261 24.1494289,12.5778275 C22.4164838,12.633729 21.2984546,11.3759462 21.2984546,9.81070549 C21.2984546,6.73612542 24.7643449,4.69572228 28.4258903,4.38826428 C28.9849048,4.34354311 29.5159686,4.32118253 30.0470325,4.32118253 Z M36.7552072,9.67654199 C36.6154535,9.67654199 36.4756999,9.73244345 36.363897,9.83865622 C35.9725868,10.1461142 35.8607839,10.6212766 35.9166853,10.9846361 C35.9446361,11.1243897 35.9725868,11.1523404 36.056439,11.1243897 C36.3359462,11.0684882 36.671355,10.8169317 36.8670101,10.5374244 C37.0626652,10.2858679 37.1465174,9.89455767 36.9508623,9.75480403 C36.8949608,9.70169765 36.8390594,9.67654199 36.7552072,9.67654199 Z M61.6593057,9.75480403 L63.6997088,9.75480403 C63.8115118,9.75480403 63.8674132,9.81070549 63.8115118,9.89455767 C63.5040538,10.4256215 57.5784994,19.3698544 57.1871892,20.2922284 C57.0753863,20.5996865 57.0753863,20.8232923 57.1871892,20.9630459 C57.4946473,21.3823068 58.1934155,21.158701 58.6126764,20.851243 C59.8984099,19.9847704 60.7928331,18.9226428 61.7711086,17.972318 C61.8270101,17.9443673 61.938813,17.9164166 61.9947144,17.972318 C62.1344681,18.1120717 62.3580739,18.279776 62.4978275,18.4474804 C62.5816797,18.5033819 62.553729,18.587234 62.5257783,18.6431355 C61.5475028,19.7891153 60.4853751,20.9071445 59.4511982,21.6618141 C57.8859574,22.8916461 56.292766,23.1991041 55.5101456,22.4164838 C55.2026876,22.1369765 55.0629339,21.7177156 55.0349832,21.3543561 C55.0349832,21.1866517 54.9231803,21.158701 54.8393281,21.2425532 C53.8890034,22.1649272 52.2678611,23.1991041 50.7864726,22.4723852 C49.5566405,21.8574692 49.2771333,20.4040314 49.5007391,19.1741993 C49.5007391,19.1462486 49.4727884,18.9785442 49.3330347,19.0623964 C49.0814782,19.2580515 48.7460694,19.4537066 48.3268085,19.621411 C47.7957447,19.7891153 47.5721389,19.8729675 47.0969765,19.8729675 C46.4820605,19.8729675 45.9509966,19.621411 45.5596865,19.006495 C45.3360806,18.699037 45.2522284,18.2238746 45.2522284,17.8605151 C45.2522284,17.8325644 45.196327,17.7487122 45.1404255,17.8325644 C44.1062486,19.3698544 43.1838746,20.851243 42.1776484,22.388533 C42.1217469,22.4723852 42.0658455,22.5282867 41.9819933,22.5282867 L39.9974916,22.5282867 C39.8856887,22.5282867 39.8297872,22.4444345 39.8856887,22.3046809 C40.2210974,21.6338634 42.1496976,18.8667413 43.4633819,16.5188802 C43.8267413,15.8760134 43.7428891,15.5406047 43.5192833,15.4008511 C43.239776,15.205196 42.6807615,15.4847032 42.2055991,15.820112 C40.9478163,16.7983875 39.857738,18.279776 39.3266741,18.9505935 C38.9912654,19.3419037 38.6838074,19.928869 37.8452856,20.8232923 C36.5316013,22.2487794 34.7986562,23.0593505 33.0936618,22.5003359 C32.1712878,22.1928779 31.5284211,21.466159 31.2489138,20.5717357 C31.220963,20.3760806 31.1091601,20.3481299 31.025308,20.4599328 C30.7458007,20.7953415 30.1867861,21.2984546 29.7116237,21.6059127 C29.683673,21.6338634 29.5439194,21.7177156 29.4321165,21.6618141 C29.3482643,21.6059127 28.9849048,21.1307503 28.9290034,20.9909966 C28.8731019,20.8791937 28.9290034,20.7673908 28.9849048,20.7114894 C29.6557223,20.1524748 30.0190817,19.8170661 30.298589,19.4537066 C30.5221948,19.1741993 30.6898992,18.894692 30.8855543,18.3915789 C31.2768645,17.3853527 32.1992385,15.512654 34.0439866,14.5343785 C34.7427548,14.171019 35.441523,13.8915118 36.2520941,13.8076596 C36.5875028,13.7517581 36.8670101,13.8076596 36.9508623,14.0592161 C37.0067637,14.171019 37.0906159,14.4225756 37.1465174,14.59028 C37.1744681,14.7020829 37.1465174,14.7859351 37.0347144,14.8418365 C35.9446361,15.2331467 34.8545577,15.8760134 34.099888,16.8542889 C33.2613662,18.0002688 33.0377604,19.3698544 33.5967749,20.1524748 C34.0160358,20.7114894 34.6868533,20.8232923 35.32972,20.5996865 C36.3079955,20.2922284 37.1465174,19.3978052 37.5657783,18.3915789 C38.0409406,17.3015006 38.1247928,15.9878163 37.7893841,14.8418365 C37.7055319,14.6461814 37.7614334,14.5064278 37.901187,14.3946249 C38.1527436,14.1989698 38.516103,14.0312654 38.6279059,13.9753639 C38.8515118,13.8356103 39.1030683,13.9474132 39.2428219,14.1151176 C39.6061814,14.6461814 39.8018365,15.3729003 39.8018365,16.1555207 C39.8297872,16.3232251 39.9136394,16.3232251 39.9695409,16.2393729 C40.6124076,15.5685554 41.2273236,14.8418365 41.8981411,14.2828219 C42.5130571,13.8076596 43.3236282,13.4163494 44.0782979,13.4163494 C45.0286226,13.4443001 45.503785,14.0871669 45.4758343,15.2331467 C45.4758343,15.4008511 45.5876372,15.3729003 45.6435386,15.2890482 C45.9509966,14.8697872 46.1466517,14.6741321 46.4541097,14.3946249 C47.1249272,13.863561 47.8236954,13.6120045 48.5224636,13.6679059 C49.4168869,13.7238074 50.1156551,14.5064278 49.9479507,15.4288018 C49.8640985,15.9878163 49.5566405,16.5188802 48.997626,16.7704367 C48.5504143,16.9940426 48.0193505,16.9660918 47.655991,16.6306831 C47.348533,16.3511758 47.2367301,15.9598656 47.3205823,15.5406047 C47.348533,15.4567525 47.2367301,15.4008511 47.1249272,15.4847032 C46.2864054,16.3791265 46.2305039,17.4971557 46.7895185,18.0282195 C47.4044345,18.587234 48.3268085,18.2238746 48.997626,17.7766629 C50.227458,16.9660918 51.1777828,15.9039642 52.2958119,15.0654423 C53.0504815,14.5064278 53.8890034,14.0033147 54.8113774,13.8915118 C55.3424412,13.8076596 55.8455543,13.863561 56.3486674,14.0592161 C57.0194849,14.3387234 57.4387458,14.897738 57.4946473,15.3729003 C57.522598,15.512654 57.6344009,15.5406047 57.7182531,15.4288018 C58.2493169,14.59028 61.1002912,10.3417693 61.3518477,9.89455767 C61.4077492,9.75480403 61.4916013,9.75480403 61.6593057,9.75480403 Z M55.3983427,15.3393595 C54.7275252,15.3393595 53.8331019,15.9291198 53.0504815,16.8822396 C52.2678611,17.8605151 51.8206495,18.8387906 51.8206495,19.8170661 C51.8206495,20.1524748 51.9324524,20.5717357 52.2399104,20.7394401 C52.9386786,21.1027996 53.7492497,20.5717357 54.3641657,20.0686226 C54.7554759,19.7332139 55.0908847,19.3978052 55.3703919,18.9785442 C55.6778499,18.5033819 55.9294065,18.1959239 56.180963,17.66486 C56.2089138,17.6089586 56.180963,17.5810078 56.1530123,17.5530571 C56.0691601,17.5251064 55.985308,17.4692049 55.985308,17.4133035 C55.9573572,17.357402 55.9573572,17.3294513 55.985308,17.2735498 C56.3207167,16.6027324 56.5443225,15.7642105 55.8176036,15.4288018 C55.6778499,15.3645151 55.5380963,15.3365644 55.3983427,15.3393595 Z"></path>
        </g>
    </g>
</svg>