<?xml version="1.0" encoding="UTF-8"?>
<svg width="80px" height="48px" viewBox="0 0 80 48" version="1.1" xmlns="http://www.w3.org/2000/svg" xmlns:xlink="http://www.w3.org/1999/xlink" style="background: #FFFFFF;">
    <!-- Generator: Sketch 49.3 (51167) - http://www.bohemiancoding.com/sketch -->
    <title>fred-perry</title>
    <desc>Created with Sketch.</desc>
    <defs></defs>
    <g id="fred-perry" stroke="none" stroke-width="1" fill="none" fill-rule="evenodd">
        <rect id="bg" fill-opacity="0" fill="#FFFFFF" x="0" y="0" width="79.6595745" height="48.0963468"></rect>
        <path d="M71.1541249,19.5391409 L71.1541249,19.8708472 C71.1228319,19.8708472 71.0915388,19.8708472 71.0665044,19.85833 L71.0665044,19.5391409 L71.1541249,19.5391409 L71.1541249,19.5391409 Z M41.4632842,24.2143218 L41.4632842,23.7011158 C42.2080586,23.5321334 42.5084719,23.0314447 42.5084719,21.8986365 C42.5084719,20.6844663 42.1767656,20.1524846 41.4632842,20.0273124 L41.4632842,19.5579167 C42.5084719,19.5579167 44.6676919,19.7957439 44.6676919,21.8610848 C44.6676919,22.2991874 44.5237439,23.1879099 43.5223665,23.7574433 C42.9090228,24.1016668 42.3895583,24.1892873 41.4632842,24.2143218 L41.4632842,24.2143218 Z M29.7909785,27.9757457 L29.7909785,27.4625398 C30.7485457,27.1183163 31.4056996,26.1169389 31.4056996,23.7887364 C31.4056996,22.818652 31.2054241,20.7282766 29.7909785,20.1399674 L29.7909785,19.5954684 C32.6386456,19.9271747 33.5962127,21.8986365 33.5962127,23.6760814 C33.5962127,25.7914912 32.4508873,27.619005 29.7909785,27.9757457 L29.7909785,27.9757457 Z M4.53749147,28.0320732 L0,28.0320732 L0,27.7191428 C0.719740027,27.6502981 1.120291,27.6064878 1.120291,26.8366789 L1.120291,20.7595696 C1.120291,19.9271747 0.600826457,19.8958816 0,19.85833 L0,19.5391409 L7.12229696,19.5391409 L7.12229696,22.0738775 L6.82188373,22.0738775 C6.55276355,20.7720869 6.20854006,19.9709849 4.04931998,19.9709849 C3.37964882,19.9709849 3.14808029,20.0273124 3.14808029,20.5718114 L3.14808029,23.4758059 L3.20440777,23.4758059 C4.70647392,23.4758059 4.89423218,22.5996007 5.06321462,21.6169991 L5.38240368,21.6169991 L5.38240368,25.8478187 L5.06321462,25.8478187 C4.93804245,24.8151482 4.73776696,23.9013913 3.14808029,23.9013913 L3.14808029,26.8366789 C3.14808029,27.6628153 3.64876901,27.6941083 4.53749147,27.7191428 L4.53749147,28.0320732 L4.53749147,28.0320732 Z M16.4664001,28.0320732 L13.8878532,28.0320732 L12.1041497,25.3346128 L12.1041497,23.6197539 C12.9052516,23.4319957 13.2432165,22.9563414 13.2432165,21.7859815 C13.2432165,20.6844663 12.8614414,20.1274501 12.1041497,19.9960194 L12.1041497,19.5579167 C13.1430788,19.5829512 15.3899194,19.8145197 15.3899194,21.7546885 C15.3899194,23.3005649 14.1069045,23.6885986 13.4184575,23.9013913 L15.9469356,27.4938329 C16.1221766,27.7066256 16.3036763,27.7191428 16.4664001,27.7191428 L16.4664001,28.0320732 L16.4664001,28.0320732 Z M24.101903,28.0320732 L16.7480375,28.0320732 L16.7480375,27.7191428 C17.4615189,27.6502981 17.8495527,27.6064878 17.8495527,26.8366789 L17.8495527,20.7595696 C17.8495527,19.9271747 17.3363467,19.8958816 16.7480375,19.85833 L16.7480375,19.5391409 L24.0017652,19.5391409 L24.0017652,22.0738775 L23.6825762,22.0738775 C23.4009388,20.2839154 22.4996991,19.9709849 20.8098747,19.9709849 C20.1214277,19.9709849 19.8961178,20.0273124 19.8961178,20.5718114 L19.8961178,23.4758059 L19.9524453,23.4758059 C21.1228051,23.4758059 21.7424074,23.1440997 21.9239071,21.6169991 L22.2556134,21.6169991 L22.2556134,25.8478187 L21.9239071,25.8478187 C21.7862177,24.2894251 21.141581,23.9013913 19.8961178,23.9013913 L19.8961178,26.9493339 C19.8961178,27.4938329 20.1214277,27.6502981 20.9538227,27.6502981 C22.1867687,27.6502981 23.4572663,27.3185918 24.2583682,25.4347505 L24.6025917,25.4347505 L24.101903,28.0320732 L24.101903,28.0320732 Z M29.2089279,28.0320732 L25.1032804,28.0320732 L25.1032804,27.7191428 C25.9043824,27.7191428 26.1484681,27.3624021 26.1484681,26.8930064 L26.1484681,20.6969836 C26.1484681,19.9396919 25.6039691,19.9146574 25.1032804,19.85833 L25.1032804,19.5391409 L28.9335491,19.5391409 C29.2464795,19.5391409 29.5343755,19.570434 29.7909785,19.5954684 L29.7909785,20.1399674 C29.5468928,20.0273124 29.2777726,19.9709849 28.9648421,19.9709849 C28.2638779,19.9709849 28.1887746,20.2150707 28.1887746,20.4716736 L28.1887746,26.8742306 C28.1887746,27.3811779 28.2889124,27.6064878 28.9085147,27.6064878 C29.2214451,27.6064878 29.5218583,27.5626776 29.7909785,27.4625398 L29.7909785,27.9757457 C29.6032202,28.0007802 29.415462,28.0258146 29.2089279,28.0320732 L29.2089279,28.0320732 Z M41.5196116,28.0320732 L41.4632842,28.0320732 L41.4632842,27.7191428 C40.649665,27.6064878 40.4180965,27.5626776 40.4180965,26.5613001 L40.4180965,24.2330976 C40.8186474,24.2330976 41.1628709,24.2330976 41.4632842,24.2143218 L41.4632842,23.7011158 C41.2066812,23.7762192 40.906268,23.7887364 40.5620445,23.7887364 L40.4180965,23.7887364 L40.4180965,20.4278634 C40.4306137,20.1524846 40.5870789,19.9835021 41.0189229,19.9835021 C41.1753882,19.9835021 41.3318534,19.9960194 41.4632842,20.0273124 L41.4632842,19.5579167 C41.4319911,19.5391409 41.4069567,19.5391409 41.3756636,19.5391409 L37.3263437,19.5391409 L37.3263437,19.85833 C37.9897562,19.9271747 38.3840486,19.9584677 38.3840486,21.0161726 L38.3840486,26.5613001 C38.3840486,27.2810402 38.2025489,27.4375054 38.0586009,27.5501603 C37.9709804,27.6064878 37.9459459,27.619005 37.3263437,27.7191428 L37.3263437,28.0320732 L41.4632842,28.0320732 L41.4632842,27.7191428 L41.5196116,27.7191428 L41.5196116,28.0320732 L41.5196116,28.0320732 Z M52.3470051,28.0320732 L45.0119154,28.0320732 L45.0119154,27.7191428 C45.7253968,27.6502981 46.107172,27.6064878 46.107172,26.8366789 L46.107172,20.7595696 C46.107172,19.9271747 45.5814488,19.8958816 45.0119154,19.85833 L45.0119154,19.5391409 L52.2468674,19.5391409 L52.2468674,22.0738775 L51.9339369,22.0738775 C51.6460409,20.2839154 50.7573184,19.9709849 49.0549768,19.9709849 C48.3727884,19.9709849 48.1412199,20.0273124 48.1412199,20.5718114 L48.1412199,23.4758059 L48.2100646,23.4758059 C49.3741659,23.4758059 49.9875095,23.1440997 50.1690092,21.6169991 L50.5007155,21.6169991 L50.5007155,25.8478187 L50.1690092,25.8478187 C50.0313198,24.2894251 49.3866831,23.9013913 48.1412199,23.9013913 L48.1412199,26.9493339 C48.1412199,27.4938329 48.3853056,27.6502981 49.1989248,27.6502981 C50.4318708,27.6502981 51.7148856,27.3185918 52.5034703,25.4347505 L52.860211,25.4347505 L52.3470051,28.0320732 L52.3470051,28.0320732 Z M57.7544432,28.0320732 L53.5048477,28.0320732 L53.5048477,27.7191428 C54.3622772,27.619005 54.6188801,27.5939706 54.6188801,26.5613001 L54.6188801,21.0161726 C54.6188801,19.9396919 54.2183292,19.9146574 53.5048477,19.85833 L53.5048477,19.5391409 L57.5541677,19.5391409 C57.6230124,19.5391409 57.7106329,19.5579167 57.7919949,19.5579167 L57.7919949,19.9960194 C57.6793399,19.9835021 57.5666849,19.9709849 57.4227369,19.9709849 C56.73429,19.9709849 56.7092555,20.1149329 56.652928,20.4967081 L56.652928,23.7011158 C57.1098065,23.7011158 57.4790644,23.6760814 57.7919949,23.6197539 L57.7919949,25.3346128 L56.9971515,24.1016668 L56.652928,24.1016668 L56.652928,26.5613001 C56.652928,27.5814534 56.9220482,27.6064878 57.7544432,27.7191428 L57.7544432,28.0320732 L57.7544432,28.0320732 Z M62.1542453,28.0320732 L59.581957,28.0320732 L57.7919949,25.3346128 L57.7919949,23.6197539 C58.6118726,23.4319957 58.9560961,22.9563414 58.9560961,21.7859815 C58.9560961,20.6844663 58.5555452,20.1274501 57.7919949,19.9960194 L57.7919949,19.5579167 C58.8371826,19.5829512 61.0965404,19.8145197 61.0965404,21.7546885 C61.0965404,23.3005649 59.7947497,23.6885986 59.1250786,23.9013913 L61.6410394,27.4938329 C61.8287976,27.7066256 62.0102973,27.7191428 62.1542453,27.7191428 L62.1542453,28.0320732 L62.1542453,28.0320732 Z M66.8169089,28.0320732 L62.5735721,28.0320732 L62.5735721,27.7191428 C63.4310015,27.619005 63.6876045,27.5939706 63.6876045,26.5613001 L63.6876045,21.0161726 C63.6876045,19.9396919 63.2870535,19.9146574 62.5735721,19.85833 L62.5735721,19.5391409 L66.6166335,19.5391409 C66.6917368,19.5391409 66.7730987,19.5579167 66.8607192,19.5579167 L66.8607192,19.9960194 C66.7480642,19.9835021 66.6354093,19.9709849 66.4914613,19.9709849 C65.8030143,19.9709849 65.7717213,20.1149329 65.7153938,20.4967081 L65.7153938,23.7011158 C66.1785308,23.7011158 66.560306,23.6760814 66.8607192,23.6197539 L66.8607192,25.3346128 L66.0596173,24.1016668 L65.7153938,24.1016668 L65.7153938,26.5613001 C65.7153938,27.5814534 65.9907726,27.6064878 66.8169089,27.7191428 L66.8169089,28.0320732 L66.8169089,28.0320732 Z M71.2354868,28.0320732 L71.1541249,28.0320732 L71.1541249,27.7191428 C71.0226941,27.7191428 70.8662289,27.6753325 70.7222809,27.4938329 L68.1938029,23.9013913 C68.8634741,23.6885986 70.1652647,23.3005649 70.1652647,21.7546885 C70.1652647,19.8145197 67.9184241,19.5829512 66.8607192,19.5579167 L66.8607192,19.9960194 C67.6367867,20.1274501 68.0185619,20.6844663 68.0185619,21.7859815 C68.0185619,22.9563414 67.6743384,23.4319957 66.8607192,23.6197539 L66.8607192,25.3346128 L68.6631986,28.0320732 L71.1541249,28.0320732 L71.1541249,27.7191428 L71.2354868,27.7191428 L71.2354868,28.0320732 L71.2354868,28.0320732 Z M77.5566819,28.0320732 L73.2132073,28.0320732 L73.2132073,27.7191428 C74.0706367,27.6377809 74.3710499,27.6064878 74.3710499,26.5613001 L74.3710499,24.7212691 L72.0678818,20.5530356 C72.0115544,20.4403806 71.7361756,19.9396919 71.1541249,19.8708472 L71.1541249,19.5391409 L75.2722896,19.5391409 L75.2722896,19.85833 C74.4148602,19.85833 74.258395,19.9396919 74.258395,20.2839154 C74.258395,20.4716736 74.4586704,20.7846041 74.5588082,20.9848796 L76.0733916,23.9013913 L77.4565441,21.585706 C77.5441646,21.441758 77.9572328,20.7595696 77.9572328,20.4153462 C77.9572328,19.9271747 77.4878372,19.8958816 76.8995279,19.85833 L76.8995279,19.5391409 L79.6595745,19.5391409 L79.6595745,19.85833 C79.4217473,19.8958816 79.058748,19.9584677 78.802145,20.3527601 L76.417615,24.258132 L76.417615,26.5613001 C76.417615,27.6064878 76.6867352,27.6377809 77.5566819,27.7191428 L77.5566819,28.0320732 L77.5566819,28.0320732 Z M12.1041497,19.5579167 L12.1041497,19.9960194 C11.9852361,19.9835021 11.8600639,19.9709849 11.7286331,19.9709849 C11.0401862,19.9709849 11.0151517,20.1149329 10.9400484,20.4967081 L10.9400484,23.7011158 C11.4031855,23.7011158 11.7849606,23.6760814 12.1041497,23.6197539 L12.1041497,25.3346128 L11.2842719,24.1016668 L10.9400484,24.1016668 L10.9400484,26.5613001 C10.9400484,27.5814534 11.2279444,27.6064878 12.0603394,27.7191428 L12.0603394,28.0320732 L7.81074395,28.0320732 L7.81074395,27.7191428 C8.66817337,27.619005 8.91225912,27.5939706 8.91225912,26.5613001 L8.91225912,21.0161726 C8.91225912,19.9396919 8.52422536,19.9146574 7.81074395,19.85833 L7.81074395,19.5391409 L11.8600639,19.5391409 C11.9289086,19.5391409 12.0040119,19.5579167 12.1041497,19.5579167 L12.1041497,19.5579167 Z" fill="#000000"></path>
    </g>
</svg>