<?xml version="1.0" encoding="UTF-8"?>
<svg width="80px" height="48px" viewBox="0 0 80 48" version="1.1" xmlns="http://www.w3.org/2000/svg" xmlns:xlink="http://www.w3.org/1999/xlink" style="background: #FFFFFF;">
    <!-- Generator: Sketch 49.3 (51167) - http://www.bohemiancoding.com/sketch -->
    <title>ge</title>
    <desc>Created with Sketch.</desc>
    <defs></defs>
    <g id="ge" stroke="none" stroke-width="1" fill="none" fill-rule="evenodd">
        <rect id="bg" fill-opacity="0" fill="#FFFFFF" x="0" y="0" width="79.6595745" height="48.0963468"></rect>
        <path d="M35.4459311,12.947669 C34.5707612,13.5468603 34.0346211,14.5008361 33.5694408,15.4311596 C33.0727227,16.4797445 32.6785021,17.5992863 32.6311956,18.7740168 C32.9623409,18.6242189 33.2856019,18.4271165 33.5536719,18.1827095 C34.6496054,17.2208496 35.6115038,16.0855396 36.2580256,14.7688954 C36.4866736,14.2958496 36.6758995,13.759731 36.5497489,13.2236124 C36.3841763,12.789987 35.8007297,12.6796097 35.4459311,12.947669 L35.4459311,12.947669 Z M46.8073704,13.4049466 C45.7823967,14.5954453 45.214719,16.1801488 45.2383722,17.7569682 C46.3894965,16.8029925 47.4617767,15.6834507 48.1792583,14.3589224 C48.3842531,13.9331811 48.6602075,13.2393806 48.1319518,12.9319008 C47.6588871,12.6796097 47.122747,13.0422781 46.8073704,13.4049466 L46.8073704,13.4049466 Z M31.2514233,28.6685587 C30.2422184,29.5752299 29.2566668,30.6316989 28.8939838,31.9641114 C28.7126423,32.6894483 28.6732202,33.5961195 29.28032,34.124354 C29.9110731,34.7077772 30.8729715,34.5343271 31.6062219,34.2583837 C33.0254162,33.7143809 33.8848173,32.342548 34.4603794,31.0022515 C35.1305546,29.3465911 35.5484285,27.5805533 35.7218855,25.8066315 C34.1134653,26.5477366 32.6075424,27.5253647 31.2514233,28.6685587 L31.2514233,28.6685587 Z M34.5786456,11.4969951 C35.4616999,11.0318333 36.589171,10.8978037 37.4879941,11.3866177 C38.2133601,11.7965908 38.497199,12.6953778 38.4262393,13.4837876 C38.2922042,15.0448388 37.5353006,16.4955127 36.5812866,17.7175478 C35.5563129,18.9632351 34.2869224,20.0591246 32.7652306,20.6504319 C32.8834968,21.1392459 33.2540642,21.6517123 33.7980887,21.6517123 C34.7599871,21.6832486 35.5957349,21.0761732 36.2895633,20.4769818 C36.7862813,20.0985451 36.8099346,19.4362809 37.046467,18.9001623 C37.3854967,18.0723321 37.8427927,17.1814291 38.6785405,16.7556879 C39.0727611,16.5507014 39.6798609,16.5112809 39.947931,16.929138 C40.2475387,17.496793 39.9794686,18.143289 39.6956298,18.6557553 C39.3014091,19.4047446 38.6864249,19.9802836 38.1975913,20.6504319 C38.0162498,21.2732756 37.9768277,21.9276557 37.9689433,22.5741516 C38.6470028,22.2745559 39.2541026,21.8488147 39.9006245,21.470378 C41.0123268,20.7529252 42.1713355,20.0827769 43.2041936,19.2470626 C43.3224598,18.8449737 43.1647716,18.4034642 43.1805404,17.9856071 C43.1174651,15.9593941 43.8191779,13.8858765 45.1989502,12.3878981 C46.0583512,11.4812269 47.3513949,10.842615 48.612901,11.1579789 C49.3698047,11.2998926 49.9690201,11.9148522 50.1818993,12.6401892 C50.4499693,13.7360787 50.0794019,14.8792728 49.5038397,15.8095962 C48.5104037,17.3627634 47.0675561,18.545378 45.6089396,19.6333834 C45.80605,20.1221974 46.0820044,20.6740842 46.6023757,20.8475343 C47.3592794,20.7056206 48.1240674,20.5006341 48.8888555,20.658316 C49.4013424,20.7608093 50.024211,20.9184912 50.2765122,21.4309575 C50.5051602,21.9276557 50.0636331,22.440122 49.6063371,22.5978039 C48.6365543,22.9131678 47.6036962,22.7318336 46.6181445,22.6608767 C45.4354825,22.9447042 44.4105088,23.7173457 43.6772584,24.6713215 C42.5340185,26.1692999 42.1792199,28.1560924 42.4236367,30.0009712 C42.6680535,31.530486 43.4328416,33.067885 44.7810763,33.8957152 C46.302768,34.8654591 48.4867504,34.6604726 49.7482565,33.3517125 C50.9309185,32.1217933 51.3093703,30.1744213 50.6470796,28.5976019 C50.3632408,27.9116854 49.7640254,27.3203781 49.0071217,27.2021167 C48.1240674,27.0050142 47.0754405,27.5726692 46.9492899,28.5108768 C46.8231393,29.2362137 47.3277417,29.8354051 47.7535,30.3478715 C48.0846454,30.6868876 48.1240674,31.3176154 47.7140779,31.6172111 C47.0833249,32.0508364 46.2002706,31.7433567 45.6956682,31.2387744 C44.4420465,30.0088553 44.4814686,27.7855399 45.6798994,26.5240843 C47.2015911,24.7816988 50.2292057,24.7501624 51.7824351,26.4610115 C53.4460463,28.3058903 53.6510411,31.2545426 52.3737661,33.3674807 C51.4197521,35.0231411 49.6851812,36.2215239 47.7850377,36.4895832 C45.7193214,36.7970629 43.4801481,36.1426829 42.0294161,34.6052839 C39.1910273,31.7118203 39.2304494,26.6265776 41.9426875,23.6542729 C42.6680535,22.7870222 43.6299519,22.1720627 44.5918503,21.5965236 C44.3789712,21.3205802 44.166092,21.0446368 43.9453285,20.7765775 C42.0767225,22.1247581 40.1213881,23.3546772 38.1187471,24.4821031 C37.771833,24.6082487 37.8349083,25.0182218 37.7876018,25.3099333 C37.6062603,27.7776558 37.4012655,30.3557555 36.1712971,32.5633028 C35.3355493,34.124354 34.0819276,35.5592597 32.3946632,36.1978716 C31.054313,36.7024538 29.4380083,36.7497584 28.2159242,35.9376964 C27.0411467,35.1965912 26.5050066,33.7301491 26.5917351,32.3898526 C26.780961,30.6868876 27.7507438,29.1494887 28.9807123,27.9905264 C30.6758611,26.4452433 32.7258085,25.3730061 34.7363339,24.3165371 C35.1463234,24.0878983 35.5957349,23.9144481 35.9584179,23.6227365 C36.092453,23.252184 36.1161062,22.850095 36.1555283,22.4637743 C35.1069013,23.094502 33.7902043,23.6069684 32.5917735,23.1181543 C31.6141063,22.7397177 30.9991221,21.8015101 30.69163,20.8396502 C29.7612692,20.7450411 28.8309085,20.3744885 28.2395775,19.6254993 C27.2146038,18.3955801 27.143644,16.519165 27.8926633,15.1236798 C28.1370801,14.6269817 28.6968734,14.3589224 29.2408979,14.3904587 C29.3512797,14.6033294 29.54839,14.8162 29.4774303,15.0763752 C29.3118577,15.9830464 28.9964811,16.9212539 29.2960888,17.8358092 C29.4458927,18.4586529 29.9583795,18.955351 30.6049014,19.0420761 C30.7389364,17.5598658 31.0306597,16.0776555 31.7244881,14.7531272 C32.3788944,13.4522512 33.2777175,12.1986797 34.5786456,11.4969951 L34.5786456,11.4969951 Z M34.0346211,3.40002726 C30.100299,4.46438038 26.418278,6.78230496 24.0844917,10.1645827 C22.5076091,12.3957822 21.6009016,15.0290706 21.1357212,17.6938955 C20.9149576,19.3653241 20.8282291,21.1786664 21.6560925,22.7002972 C22.0424287,23.4571705 22.7126038,24.0248255 23.0437492,24.8132352 C23.3591257,25.5070358 23.1383622,26.4452433 22.4603026,26.8473323 C21.8216652,27.3046099 20.9228421,27.1311598 20.3472799,26.6502299 C19.5194165,26.0037339 19.1646179,24.9393808 18.9911608,23.9381004 C18.6363622,21.6753645 19.0936582,19.3968605 19.6692204,17.2129655 C19.2198088,17.4021839 19.2828841,18.0250275 19.1173114,18.4192324 C18.1317598,22.2351354 18.1396442,26.3112137 19.2119244,30.1034644 C20.2368981,33.7301491 22.3183832,37.0966586 25.3144602,39.4066991 C27.5772868,41.1963892 30.3526002,42.2134377 33.1515669,42.7574404 C34.8467157,43.049152 36.683784,43.1595294 38.268551,42.3868879 C39.0569923,41.992683 39.6483233,41.3067665 40.4131114,40.8889094 C41.0675177,40.5577773 41.9111499,40.6681547 42.4157523,41.1963892 C42.9991989,41.7876965 43.0149677,42.7889768 42.5340185,43.4354728 C42.0215317,44.1371574 41.1936683,44.5313623 40.3736893,44.752117 C38.5681587,45.2093946 36.683784,45.0044081 34.8782533,44.673276 C34.2159626,44.5707828 33.5852096,44.2790712 32.9150345,44.2790712 C33.2698331,44.6338556 33.8059731,44.6969283 34.2711535,44.8388421 C37.8191394,45.7139769 41.5800045,45.7139769 45.1279904,44.8703785 C49.2121164,43.8848663 53.0754789,41.590594 55.5038781,38.1058231 C57.0807608,35.9376964 57.9401618,33.3595966 58.4763019,30.7657286 C58.7601408,28.8420089 58.9099446,26.6817663 57.7430515,25.0103377 C57.199027,24.2061597 56.3317415,23.4414023 56.5051986,22.3770492 C56.5761583,21.3836529 57.695745,20.7529252 58.6103369,21.0761732 C59.8087677,21.4624939 60.3685611,22.7476018 60.6129779,23.8829118 C61.0781582,26.2402568 60.6129779,28.6527906 59.9901092,30.9391787 C60.1556819,30.9155264 60.2502949,30.8209173 60.2897169,30.6632353 C61.3619971,27.312494 61.551223,23.7015775 60.9283544,20.248343 C60.2187572,16.195917 58.3501513,12.2459843 55.2358081,9.49443439 C53.3672022,7.7914694 51.0649535,6.59308662 48.6286699,5.93082246 C46.5944913,5.32374698 44.4026244,4.90588983 42.3053705,5.42624024 C41.2725124,5.65487906 40.4761867,6.3723319 39.6483233,6.97940739 C38.9544949,7.515526 37.8349083,7.55494648 37.2041552,6.88479822 C36.6364775,6.28560683 36.683784,5.28432649 37.1726176,4.64571462 C37.8270239,3.78634803 38.9071885,3.39214317 39.9321622,3.21080893 C41.5642357,2.96640192 43.2436157,3.12408386 44.8599204,3.44733185 C45.4985579,3.55770921 46.0977733,3.8494208 46.7521795,3.89672539 C46.6181445,3.78634803 46.4841095,3.66020247 46.3106524,3.60501379 C42.3605614,2.32779005 38.0320186,2.28048546 34.0346211,3.40002726 L34.0346211,3.40002726 Z M38.0872095,1.22401644 C42.4551744,0.869232067 46.9177522,1.83109192 50.7574614,3.95191407 C57.3015243,7.47610551 61.9375593,14.3510383 62.5919656,21.7699737 C63.0886836,26.3427501 62.1110164,31.0574402 59.8876119,35.0783298 C57.6642073,39.1307557 54.1792967,42.4893811 50.0320954,44.5392464 C46.7758328,46.1791386 43.1174651,47.0069688 39.4669818,46.9281278 C34.4761483,46.8887073 29.5326212,45.0990173 25.6298367,42.0005671 C22.2631923,39.3357422 19.661336,35.7169416 18.2421416,31.6645157 C16.0187371,25.4281948 16.6731434,18.2300141 20.063441,12.5298118 C22.334152,8.58776321 25.8427159,5.37105156 29.9426107,3.40002726 C32.4892762,2.1779922 35.2645896,1.42111887 38.0872095,1.22401644 L38.0872095,1.22401644 Z M38.0872095,0.0650541539 C33.3565616,0.396186236 28.7362955,2.1858763 25.0069681,5.12664455 C21.7901275,7.64955565 19.2276932,11.000297 17.6508106,14.7688954 C15.9477774,18.8292055 15.3722152,23.3625613 16.073928,27.714583 C16.7756407,32.5948391 19.0936582,37.207036 22.5154935,40.7548797 C25.7481029,44.105621 29.9662639,46.4945025 34.5155703,47.5036669 C38.8441132,48.481295 43.4486104,48.2526562 47.6510026,46.7940982 C52.3816505,45.1857424 56.5682739,42.0478717 59.4460847,37.9717934 C62.2923579,33.9903244 63.8455873,29.1258364 63.8771249,24.2376961 C63.916547,19.5703106 62.5604279,14.8871569 59.9979936,10.9766447 C57.9401618,7.7757012 55.0860042,5.09510816 51.798204,3.19504074 C47.6746559,0.814043387 42.8336262,-0.28973022 38.0872095,0.0650541539 L38.0872095,0.0650541539 Z" fill="#000000"></path>
    </g>
</svg>