<?xml version="1.0" encoding="UTF-8"?>
<svg width="80px" height="48px" viewBox="0 0 80 48" version="1.1" xmlns="http://www.w3.org/2000/svg" xmlns:xlink="http://www.w3.org/1999/xlink" style="background: #FFFFFF;">
    <!-- Generator: Sketch 49.3 (51167) - http://www.bohemiancoding.com/sketch -->
    <title>google</title>
    <desc>Created with Sketch.</desc>
    <defs></defs>
    <g id="google" stroke="none" stroke-width="1" fill="none" fill-rule="evenodd">
        <rect id="bg" fill-opacity="0" fill="#FFFFFF" x="0" y="0" width="79.6595745" height="48.0963468"></rect>
        <g transform="translate(0.000000, 11.272581)" fill="#000000" fill-rule="nonzero" id="Shape">
            <path d="M10.223047,20.1503911 C13.221032,20.1503911 15.4801693,19.169493 17.2486528,17.3264694 C19.0691506,15.5039239 19.6343445,12.9523601 19.6343445,10.8881737 C19.6343445,10.2472111 19.5851972,9.65949133 19.4869026,9.16597057 L10.223047,9.16597057 L10.223047,11.9182191 L16.808375,11.9182191 C16.6117858,13.4663589 16.0936914,14.5967467 15.3106112,15.3831034 C14.3506007,16.3394279 12.8532464,17.3981425 10.223047,17.3981425 C6.16900946,17.3981425 2.99839457,14.1298474 2.99839457,10.0751955 C2.99839457,6.02054367 6.16900946,2.75020073 10.223047,2.75020073 C12.4084634,2.75020073 14.0084126,3.6123262 15.1858999,4.71814035 L17.1278324,2.77682218 C15.4801693,1.20615654 13.2947529,0 10.223047,0 C4.66837871,0 0,4.51950336 0,10.0751955 C0,15.6288399 4.66837871,20.1503911 10.223047,20.1503911 Z M27.1313548,20.1503911 C30.7170596,20.1503911 33.6413236,17.3981425 33.6413236,13.6609003 C33.6413236,9.90318 30.7170596,7.17550511 27.1313548,7.17550511 C23.5395066,7.17550511 20.6152426,9.90318 20.6152426,13.6609003 C20.6152426,17.3981425 23.5395066,20.1503911 27.1313548,20.1503911 Z M27.1313548,17.5947317 C25.1634152,17.5947317 23.4657857,15.972871 23.4657857,13.6609003 C23.4657857,11.3284516 25.1634152,9.73321227 27.1313548,9.73321227 C29.0951988,9.73321227 30.7907805,11.3284516 30.7907805,13.6609003 C30.7907805,15.972871 29.0951988,17.5947317 27.1313548,17.5947317 Z M41.3328753,20.1503911 C44.9206279,20.1503911 47.844892,17.3981425 47.844892,13.6609003 C47.844892,9.90318 44.9206279,7.17550511 41.3328753,7.17550511 C37.743075,7.17550511 34.8188109,9.90318 34.8188109,13.6609003 C34.8188109,17.3981425 37.743075,20.1503911 41.3328753,20.1503911 Z M41.3328753,17.5947317 C39.3669835,17.5947317 37.669354,15.972871 37.669354,13.6609003 C37.669354,11.3284516 39.3669835,9.73321227 41.3328753,9.73321227 C43.2987672,9.73321227 44.9943488,11.3284516 44.9943488,13.6609003 C44.9943488,15.972871 43.2987672,17.5947317 41.3328753,17.5947317 Z M55.2907072,25.9743456 C58.6306755,25.9743456 61.4607406,24.0105016 61.4607406,19.2165925 L61.4607406,7.56868348 L58.7555915,7.56868348 L58.7555915,8.62535033 L58.6572969,8.62535033 C58.0163343,7.86356725 56.7876519,7.17550511 55.2436077,7.17550511 C51.9978384,7.17550511 49.0264749,10.0260482 49.0264749,13.6875217 C49.0264749,17.3264694 51.9978384,20.1503911 55.2436077,20.1503911 C56.7876519,20.1503911 58.0163343,19.4623289 58.6572969,18.6759722 L58.7555915,18.6759722 L58.7555915,19.6097708 C58.7555915,22.093757 57.4286146,23.4186862 55.2907072,23.4186862 C53.548026,23.4186862 52.4647377,22.167478 52.0203643,21.1067155 L49.5404737,22.1408565 C50.2551572,23.8630597 52.1452803,25.9743456 55.2907072,25.9743456 Z M55.4852486,17.5947317 C53.5214046,17.5947317 51.8729224,15.9503451 51.8729224,13.6875217 C51.8729224,11.4021725 53.5214046,9.73321227 55.4852486,9.73321227 C57.4286146,9.73321227 58.9521807,11.4021725 58.9521807,13.6875217 C58.9521807,15.9503451 57.4286146,17.5947317 55.4852486,17.5947317 Z M66.2751277,0.688062134 L63.4245846,0.688062134 L63.4245846,19.7572127 L66.2751277,19.7572127 L66.2751277,0.688062134 Z M74.0895477,20.1503911 C77.0609112,20.1503911 78.7831144,18.333989 79.4957502,17.2752743 L77.2820741,15.8029032 C76.5469124,16.8800481 75.5393929,17.5947317 74.0895477,17.5947317 C72.6397025,17.5947317 71.6055615,16.9312432 70.9441208,15.6288399 L79.6186184,12.0390395 L79.3237346,11.3038779 C78.7831144,9.85403271 77.1346322,7.17550511 73.7700902,7.17550511 C70.4280742,7.17550511 67.651252,9.80693322 67.651252,13.6609003 C67.651252,17.2998479 70.4035005,20.1503911 74.0895477,20.1503911 Z M70.4772215,13.4663589 C70.4035005,10.9618947 72.4185396,9.68201717 73.8683848,9.68201717 C74.9987726,9.68201717 75.9571449,10.2472111 76.2786501,11.0581414 L70.4772215,13.4663589 Z"></path>
        </g>
    </g>
</svg>