<?xml version="1.0" encoding="UTF-8"?>
<svg width="80px" height="48px" viewBox="0 0 80 48" version="1.1" xmlns="http://www.w3.org/2000/svg" xmlns:xlink="http://www.w3.org/1999/xlink" style="background: #FFFFFF;">
    <!-- Generator: Sketch 49.3 (51167) - http://www.bohemiancoding.com/sketch -->
    <title>hm</title>
    <desc>Created with Sketch.</desc>
    <defs></defs>
    <g id="hm" stroke="none" stroke-width="1" fill="none" fill-rule="evenodd">
        <rect id="bg" fill-opacity="0" fill="#FFFFFF" x="0" y="0" width="79.6595745" height="48.0963468"></rect>
        <path d="M54.9776941,1.47203418 C53.5289747,2.21195366 51.7388373,2.11021473 51.065229,3.89527047 C48.2047002,11.3314612 41.5793465,32.0214596 38.4789024,43.7676814 C37.7407014,46.5331304 40.5366376,47.0325761 41.3763412,44.1376411 C43.3971664,37.173149 48.038605,21.6903339 50.7699486,13.7546975 C50.4931232,21.0521534 48.5092081,32.5671503 49.4504143,38.588245 C49.7272397,40.4750397 51.4712395,41.2797021 52.4124457,42.926023 C53.0583716,44.0728981 54.1010804,44.1746371 54.6731862,42.6208062 C57.3676197,35.2863543 62.6180741,22.2637715 67.7024333,11.9048988 C66.724317,16.4739016 62.885672,35.8967879 61.8060531,43.5642035 C61.6030478,45.1457814 63.4946878,45.1827774 65.2386876,47.5042747 C65.5801055,48.0407163 67.0565075,48.586407 67.3333329,47.2360539 C68.237629,42.6208062 74.0970992,12.5060834 76.3855223,2.97962012 C77.0222206,0.352905969 76.8561254,-0.951202112 72.1131841,1.1668174 C70.8951525,1.74025499 69.9170362,1.1668174 68.4406343,4.22823424 C63.7622857,13.8194405 60.1543284,21.560848 55.8173977,32.7983751 C55.9465829,23.5771286 57.570625,16.2796727 58.5764238,7.32664705 C58.7425191,5.67107722 59.0101169,3.38657583 58.9824344,1.66626304 C58.9455243,0.352905969 57.5983075,0.158677106 54.9776941,1.47203418 L54.9776941,1.47203418 Z M38.2113045,0.0199422037 C37.2977808,-0.183535653 34.6771674,1.23156035 33.0623528,1.47203418 C32.5548396,1.60152009 32.0842365,2.11021473 31.9181413,2.50792145 C29.3621204,8.3995303 27.0644699,13.9859224 25.1174648,19.0358728 C22.561444,19.5075715 19.5994126,20.0810091 16.2959632,20.7839326 C18.6858889,14.7258418 21.0758145,8.70474708 23.4011476,2.95187314 C24.5453591,0.0569381776 21.5187351,-0.211282633 20.3376135,2.68365233 C18.8243016,6.4109967 15.9637728,13.4494807 12.7987361,21.625591 C10.4734031,22.1990286 7.94506474,22.8372091 5.38904388,23.6141246 C3.50663141,24.1135702 3.44203882,24.6222649 4.24483238,25.76914 C4.7154355,26.3703246 5.59204915,26.3055817 6.02574222,26.7772803 C7.14227119,27.9149065 7.81587957,29.3022556 9.79979468,29.4964844 C7.98197479,34.2134711 6.22874749,39.0229477 4.68775296,43.6381954 C3.67272662,46.5608774 6.53325539,47.171311 7.61287431,44.0728981 C9.36610161,39.1246866 11.211604,34.1117322 13.1309266,29.0247858 C14.7180587,28.691822 18.5197937,27.8871596 22.0539308,27.0732481 C19.2579946,34.8146557 17.4401747,40.6415216 16.7019738,43.4994605 C16.5635611,44.0359022 16.8311589,44.304123 16.9326616,44.5723438 C17.8461853,45.9226968 18.7873915,45.9874398 19.9961956,47.7077526 C20.3007035,48.1794512 21.4172325,48.4106761 21.8140155,47.2730499 C24.4069464,39.3929074 27.0367874,32.0584556 29.5282156,25.4639233 C30.5709245,25.1957025 32.453337,24.7517508 33.5975485,23.0776829 C35.6183736,20.0440131 36.1904794,20.6544467 36.7256751,19.7387963 C37.3346909,18.5641741 36.9009978,17.5190379 34.74176,17.7595117 C34.74176,17.7595117 33.9389664,17.8242547 32.3887444,17.9907365 C34.8155801,11.8309069 36.9655904,6.61447455 38.4512199,2.60966038 C38.9495055,1.23156035 39.0233256,0.22342006 38.2113045,0.0199422037 L38.2113045,0.0199422037 Z M33.5975485,31.1798012 C33.5329559,31.0225683 33.4960458,30.8653355 33.4683633,30.7450985 C32.8593475,28.4883441 35.4430509,29.0895287 34.1419717,30.5786167 C33.9481939,30.7913435 33.7820987,30.9948214 33.5975485,31.1798012 L33.5975485,31.1798012 Z M32.9239401,35.2956033 C33.0992628,35.8505429 33.2838131,36.4239805 33.4683633,36.9789201 C33.2376755,37.173149 32.9977602,37.3673779 32.7578449,37.5061128 C31.9273688,37.9963094 31.3091255,37.4783658 32.3887444,36.0262738 C32.5640671,35.776551 32.7393899,35.5360772 32.9239401,35.2956033 L32.9239401,35.2956033 Z M35.8398339,38.2645302 C36.1904794,37.8205786 36.5134423,37.3581289 36.7994952,36.9419242 C38.0728919,35.0551295 36.8271777,33.9452503 35.516871,35.0551295 C35.3323208,35.2216114 35.138543,35.4158402 34.9447653,35.6100691 L34.2988394,33.5845395 C34.9078552,32.8538691 35.4891885,32.0954516 35.9874741,31.3185361 C38.1005744,28.0443924 33.966649,26.1668468 32.1857391,28.2848663 C31.2445329,29.4039945 31.4752207,30.5138737 31.7520461,31.485018 C31.8258662,31.7809858 31.9458238,32.1971905 32.093464,32.7058852 C31.5951783,33.2330778 30.9953901,33.8805073 30.201824,34.8146557 C28.1440888,37.173149 28.7161946,40.2068189 30.8754324,40.8727464 C32.1765116,41.2797021 33.3945432,40.6877665 34.4649346,39.7536182 L34.6125748,40.1328269 C35.1846806,41.5479229 36.9655904,41.1132202 36.255072,39.3929074 C36.1443418,39.1061886 36.0059291,38.7177309 35.8398339,38.2645302 L35.8398339,38.2645302 Z" fill="#000000"></path>
    </g>
</svg>