<?xml version="1.0" encoding="UTF-8"?>
<svg width="80px" height="48px" viewBox="0 0 80 48" version="1.1" xmlns="http://www.w3.org/2000/svg" xmlns:xlink="http://www.w3.org/1999/xlink" style="background: #FFFFFF;">
    <!-- Generator: Sketch 49.3 (51167) - http://www.bohemiancoding.com/sketch -->
    <title>hp</title>
    <desc>Created with Sketch.</desc>
    <defs></defs>
    <g id="hp" stroke="none" stroke-width="1" fill="none" fill-rule="evenodd">
        <rect id="bg" fill-opacity="0" fill="#FFFFFF" x="0" y="0" width="79.6595745" height="48.0963468"></rect>
        <g transform="translate(15.781614, 0.000000)" fill="#000000" fill-rule="nonzero" id="Shape">
            <path d="M24.0870504,48.0796853 C23.848568,48.0796853 23.6110854,48.0754644 23.373936,48.0685776 L28.2773196,34.5929365 L35.0252482,34.5929365 C36.2096624,34.5929365 37.5098188,33.6824382 37.9149167,32.5700019 L43.2343949,17.9582651 C44.1047944,15.5659994 42.7345483,13.6088225 40.1889964,13.6088225 L30.8274257,13.6088225 L22.9729479,35.1928634 L22.9699489,35.1928634 L18.5168714,47.4283297 C7.95244771,44.9168784 0.0944154615,35.4200159 0.0944154615,24.0870504 C0.0944154615,13.0809845 7.5054738,3.80660925 17.6093722,0.980143567 L13.0146715,13.6088225 L13.0133386,13.6088225 L5.37501668,34.5929365 L10.4597891,34.5933808 L16.9555729,16.7621878 L20.7771775,16.7621878 L14.2813938,34.5933808 L19.3642779,34.5942694 L25.417753,17.9582651 C26.2885968,15.5659994 24.9182397,13.6088225 22.3750204,13.6088225 L18.1007769,13.6088225 L23.0084926,0.119629944 C23.3661606,0.103745931 23.7253836,0.0944154615 24.0868282,0.0944154615 C37.3376495,0.0944154615 48.0794631,10.8362291 48.0794631,24.0870504 C48.0794631,37.3377606 37.3376495,48.0796853 24.0868282,48.0796853 L24.0870504,48.0796853 Z M38.6039274,16.7493029 L34.7834335,16.7493029 L29.433187,31.4290188 L33.253792,31.4290188 L38.6039274,16.7493029 Z"></path>
        </g>
    </g>
</svg>