<?xml version="1.0" encoding="UTF-8"?>
<svg width="80px" height="48px" viewBox="0 0 80 48" version="1.1" xmlns="http://www.w3.org/2000/svg" xmlns:xlink="http://www.w3.org/1999/xlink" style="background: #FFFFFF;">
    <!-- Generator: Sketch 49.3 (51167) - http://www.bohemiancoding.com/sketch -->
    <title>huawei</title>
    <desc>Created with Sketch.</desc>
    <defs></defs>
    <g id="huawei" stroke="none" stroke-width="1" fill="none" fill-rule="evenodd">
        <rect id="bg" fill-opacity="0" fill="#FFFFFF" x="0" y="0" width="79.6595745" height="48.0963468"></rect>
        <g transform="translate(15.781614, 0.000000)" fill="#000000" fill-rule="nonzero" id="Shape">
            <path d="M20.6540325,28.2033325 C20.6540325,28.2033325 20.7301343,28.1424511 20.6996936,28.0359085 C15.0529389,15.6921942 7.35143529,6.36363374 7.35143529,6.36363374 C7.35143529,6.36363374 3.15213716,10.3498468 3.45350035,14.3375819 C3.61635823,17.3664341 5.88114823,19.1472166 5.88114823,19.1472166 C9.54316756,22.6935611 18.3861984,27.2292293 20.4561678,28.2489936 C20.4561678,28.2489936 20.593151,28.2489936 20.6540325,28.2033325 Z M19.2841998,31.2169644 C19.2233184,31.1104218 19.0863351,31.1104218 19.0863351,31.1104218 L4.34997972,31.5974734 C5.9511619,34.4589017 8.64516614,36.6658543 11.4457129,36.026599 C13.3939194,35.5395474 17.7621635,32.4650341 19.208098,31.4300494 C19.3298609,31.3235069 19.2841998,31.2169644 19.2841998,31.2169644 Z M19.4972849,29.9232335 C19.5733867,29.816691 19.4364035,29.7101484 19.4364035,29.7101484 C12.9677492,25.3419043 0.423126089,18.5992835 0.423126089,18.5992835 C-0.719923166,22.1608484 0.815811453,25.0222767 0.815811453,25.0222767 C2.41851567,28.3707565 5.47172047,29.3905208 5.47172047,29.3905208 C6.87960404,29.984115 8.27987743,30.0297761 8.27987743,30.0297761 C8.50818288,30.0906575 17.0620268,30.0297761 19.3450813,30.0297761 C19.4364035,30.0297761 19.4972849,29.9232335 19.4972849,29.9232335 Z M25.3875654,27.0161442 C25.4941079,27.0618053 25.6006504,26.9096017 25.6006504,26.9096017 C27.0009238,24.8548527 33.3630355,15.4182276 34.6567664,9.6497101 C34.6567664,9.6497101 35.3569031,6.84916332 34.6567664,4.96031628 C34.6567664,4.96031628 33.7435446,1.40179543 29.8014706,0.430736271 C29.8014706,0.430736271 28.6751638,0.161335847 27.4879754,2.84217094e-14 C27.4879754,2.84217094e-14 23.1197313,5.60870374 25.2201414,26.8487202 L25.2658025,26.8487202 C25.2658025,27.0161442 25.3875654,27.0161442 25.3875654,27.0161442 Z M28.8273674,31.1104218 C28.8273674,31.1104218 28.7208248,31.1104218 28.6751638,31.2169644 C28.6751638,31.2169644 28.6751638,31.3843884 28.7208248,31.4300494 C30.1210982,32.4650341 34.4436813,35.4330049 36.4832099,36.026599 C36.4832099,36.026599 40.3187414,37.3203299 43.6063398,31.6583549 L28.8273674,31.1104218 Z M27.3205515,28.2033325 C27.3205515,28.2033325 27.427094,28.2489936 27.5336365,28.2033325 C29.6340466,27.1835682 38.4314164,22.6935611 42.0995239,19.1472166 C42.0995239,19.1472166 44.3673579,17.3055526 44.5195616,14.2919208 C44.747867,10.1976432 40.638369,6.36363374 40.638369,6.36363374 C40.638369,6.36363374 32.9368654,15.6313127 27.2748904,27.9902474 L27.3205515,27.9902474 C27.3205515,27.9902474 27.2140089,28.09679 27.3205515,28.2033325 Z M47.4875323,18.5992835 C46.5743106,19.1015555 45.6306481,19.5581664 44.747867,20.1213198 C43.5911194,20.7301343 42.4648126,21.3693895 41.3232853,22.0086448 C39.3902993,23.0892906 37.4725335,24.2003771 35.5699882,25.3266839 C34.8394107,25.6919726 34.1697148,26.1638039 33.4543577,26.5747537 C33.0738486,26.8182795 31.7801178,27.6401791 31.4909309,27.7467216 C31.0190996,28.1424511 30.4407259,28.3707565 29.9688946,28.7512656 C29.4514023,28.979571 29.0404525,29.4057412 28.5534009,29.6644873 C28.2794343,29.9232335 28.6295027,30.0602168 28.8730285,29.984115 L40.3187414,29.984115 C42.2365071,29.6797077 44.0933914,28.8578081 45.4480037,27.4423144 C45.9959368,26.8791609 46.467768,26.2246853 46.8634975,25.539769 C47.2592269,24.870073 47.5331934,24.1242752 47.7006174,23.3784775 C47.80716,22.9523073 47.8680414,22.5109168 47.9289229,22.0695262 C47.9289229,21.597695 48.0354654,21.1410841 47.9289229,20.6692529 C47.9441432,20.3344049 47.8984821,19.9995569 47.80716,19.6799293 C47.7310581,19.3146406 47.6701767,18.87325 47.5027527,18.5992835 L47.4875323,18.5992835 Z M22.5565779,27.0161442 C22.4500353,27.0618053 22.3434928,26.9096017 22.3434928,26.9096017 C20.9432194,24.8548527 14.596328,15.4182276 13.3025972,9.6497101 C13.3025972,9.6497101 12.6024605,6.84916332 13.3025972,4.96031628 C13.3025972,4.96031628 14.215819,1.40179543 18.1426726,0.430736271 C18.1426726,0.430736271 19.2689795,0.161335847 20.4561678,0 C20.4561678,0 24.8244119,5.60870374 22.7240018,26.8487202 L22.6783408,26.8487202 C22.6783408,27.0161442 22.5565779,27.0161442 22.5565779,27.0161442 Z M47.9745839,47.9441432 L47.9745839,40.2274192 L46.1481404,40.2274192 L46.1481404,47.9441432 L47.9745839,47.9441432 Z M39.7251472,43.3475936 L44.580443,43.3475936 L44.580443,44.7022059 L39.7251472,44.7022059 C39.7251472,46.1024793 40.3187414,46.5895309 41.7190148,46.5895309 L44.580443,46.5895309 L44.580443,47.9441432 L41.6124722,47.9441432 C40.638369,47.9441432 39.8316898,47.8832618 39.0250105,47.2896676 C38.1574499,46.6504124 37.7312797,45.6154277 37.7312797,44.2151543 C37.7312797,41.5211501 38.9641291,40.2274192 41.6733537,40.2274192 L44.580443,40.2274192 L44.580443,41.5820315 L41.7190148,41.5820315 C40.4252839,41.5820315 39.7860287,42.1756257 39.7251472,43.3475936 Z M26.2399057,40.2274192 L28.1881121,46.1633608 L29.8014706,40.2274192 L31.9018807,40.2274192 L33.7435446,46.1633608 L35.5699882,40.2274192 L37.3507706,40.2274192 L34.7633089,47.9441432 L32.6020174,47.9441432 L30.8212349,42.1756257 L29.2687579,47.9441432 L27.1531275,47.9441432 L24.3525807,40.2274192 L26.2399057,40.2274192 Z M21.8868819,40.2274192 L25.4332265,47.9441432 L23.5002404,47.9441432 L22.7392222,46.1024793 L19.1015555,46.1024793 L18.3557577,47.9441432 L16.4988734,47.9441432 L20.0299976,40.2274192 L21.8868819,40.2274192 Z M19.6647089,44.7630874 L22.1456281,44.7630874 L20.8823379,41.7951166 L19.6647089,44.7630874 Z M10.6390337,44.8696299 C10.6390337,46.2090218 11.0652038,46.802616 12.5111383,46.802616 C13.9722932,46.802616 14.3984633,46.2090218 14.3984633,44.8696299 L14.3984633,40.2274192 L16.1488051,40.2274192 L16.1488051,44.915291 C16.1488051,45.8893942 16.0270422,46.5895309 15.6617535,46.97004 C14.9768371,47.7158378 13.9722932,48.0506858 12.5111383,48.0506858 C11.0652038,48.0506858 10.0606599,47.7158378 9.37574356,46.97004 C8.98001413,46.5438698 8.88869195,45.8893942 8.88869195,44.915291 L8.88869195,40.2274192 L10.6390337,40.2274192 L10.6390337,44.8696299 Z M5.69241573,43.3475936 L5.69241573,40.2274192 L7.44275747,40.2274192 L7.44275747,47.9441432 L5.69241573,47.9441432 L5.69241573,44.7630874 L1.77773839,44.7630874 L1.77773839,47.9441432 L0.0182644355,47.9441432 L0.0182644355,40.2274192 L1.77773839,40.2274192 L1.77773839,43.3475936 L5.69241573,43.3475936 Z"></path>
        </g>
    </g>
</svg>