<?xml version="1.0" encoding="UTF-8"?>
<svg width="80px" height="48px" viewBox="0 0 80 48" version="1.1" xmlns="http://www.w3.org/2000/svg" xmlns:xlink="http://www.w3.org/1999/xlink" style="background: #FFFFFF;">
    <!-- Generator: Sketch 49.3 (51167) - http://www.bohemiancoding.com/sketch -->
    <title>ibm</title>
    <desc>Created with Sketch.</desc>
    <defs></defs>
    <g id="ibm" stroke="none" stroke-width="1" fill="none" fill-rule="evenodd">
        <rect id="bg" fill-opacity="0" fill="#FFFFFF" x="0" y="0" width="79.6595745" height="48.0963468"></rect>
        <g transform="translate(0.000000, 8.266560)" fill="#000000" fill-rule="nonzero" id="Shape">
            <path d="M0,0 L0,2.18015677 L15.5021725,2.18015677 L15.5021725,0 L0,0 Z M17.7032923,0 L17.7032923,2.18015677 L39.7983427,2.18015677 C39.7983427,2.18015677 37.5448152,0 34.5470997,0 L17.7032923,0 Z M44.1376932,0 L44.1376932,2.18015677 L57.5016349,2.18015677 L56.7050392,0 L44.1376932,0 Z M67.0817469,0 L66.2956327,2.18015677 L79.5337962,2.18015677 L79.5337962,0 L67.0817469,0 Z M0,4.23977604 L0,6.41469205 L15.5021725,6.41469205 L15.5021725,4.23977604 L0,4.23977604 Z M17.7032923,4.23977604 L17.7032923,6.41469205 L42.3663158,6.41469205 C42.3663158,6.41469205 42.0728331,4.73764838 41.56972,4.23977604 L17.7032923,4.23977604 Z M44.1376932,4.23977604 L44.1376932,6.41469205 L58.9690482,6.41469205 L58.2353415,4.23977604 L44.1376932,4.23977604 Z M65.499037,4.23977604 L64.7653303,6.41469205 L79.5337962,6.41469205 L79.5337962,4.23977604 L65.499037,4.23977604 Z M4.45464726,8.47955207 L4.45464726,10.6597088 L11.1733035,10.6597088 L11.1733035,8.47955207 L4.45464726,8.47955207 Z M22.1579395,8.47955207 L22.1579395,10.6597088 L28.8765957,10.6597088 L28.8765957,8.47955207 L22.1579395,8.47955207 Z M35.4065845,8.47955207 L35.4065845,10.6597088 L42.1147592,10.6597088 C42.1252408,10.6597088 42.5445017,9.50674132 42.5445017,8.47955207 L35.4065845,8.47955207 Z M48.5923404,8.47955207 L48.5923404,10.6597088 L60.4993505,10.6597088 L59.7027548,8.47955207 L48.5923404,8.47955207 Z M64.0316237,8.47955207 L63.235028,10.6597088 L75.2049272,10.6597088 L75.2049272,8.47955207 L64.0316237,8.47955207 Z M4.45464726,12.7245689 L4.45464726,14.9047256 L11.1733035,14.9047256 L11.1733035,12.7245689 L4.45464726,12.7245689 Z M22.1579395,12.7245689 L22.1579395,14.9047256 L39.3057111,14.9047256 C39.3057111,14.9047256 40.7416797,13.7832027 41.2028667,12.7245689 L22.1579395,12.7245689 Z M48.5923404,12.7245689 L48.5923404,14.9047256 L55.3005151,14.9047256 L55.3005151,13.688869 L55.7302576,14.9047256 L68.0355655,14.9047256 L68.486271,13.688869 L68.486271,14.9047256 L75.2049272,14.9047256 L75.2049272,12.7245689 L62.5956551,12.7245689 L61.9248376,14.5693169 L61.2540202,12.7245689 L48.5923404,12.7245689 Z M4.45464726,16.9591041 L4.45464726,19.1392609 L11.1733035,19.1392609 L11.1733035,16.9591041 L4.45464726,16.9591041 Z M22.1579395,16.9591041 L22.1579395,19.1392609 L41.2028667,19.1392609 C40.7416797,18.0806271 39.3057111,16.9591041 39.3057111,16.9591041 L22.1579395,16.9591041 Z M48.5923404,16.9591041 L48.5923404,19.1392609 L55.3005151,19.1392609 L55.3005151,16.9591041 L48.5923404,16.9591041 Z M56.5268533,16.9591041 L57.3339306,19.1392609 L66.5576708,19.1392609 L67.3333035,16.9591041 L56.5268533,16.9591041 Z M68.486271,16.9591041 L68.486271,19.1392609 L75.2049272,19.1392609 L75.2049272,16.9591041 L68.486271,16.9591041 Z M4.45464726,21.2041209 L4.45464726,23.3842777 L11.1733035,23.3842777 L11.1733035,21.2041209 L4.45464726,21.2041209 Z M22.1579395,21.2041209 L22.1579395,23.3842777 L28.8765957,23.3842777 L28.8765957,21.2041209 L22.1579395,21.2041209 Z M35.4065845,21.2041209 L35.4065845,23.3842777 L42.5445017,23.3842777 C42.5445017,22.3570885 42.1147592,21.2041209 42.1147592,21.2041209 L35.4065845,21.2041209 Z M48.5923404,21.2041209 L48.5923404,23.3842777 L55.3005151,23.3842777 L55.3005151,21.2041209 L48.5923404,21.2041209 Z M58.0466741,21.2041209 L58.8327884,23.3842777 L65.0168869,23.3842777 L65.8134826,21.2041209 L58.0466741,21.2041209 Z M68.486271,21.2041209 L68.486271,23.3842777 L75.2049272,23.3842777 L75.2049272,21.2041209 L68.486271,21.2041209 Z M0.125778275,25.4386562 L0.125778275,27.6292945 L15.6279507,27.6292945 L15.6279507,25.4386562 L0.125778275,25.4386562 Z M17.7032923,25.4386562 L17.7032923,27.6292945 L41.56972,27.6292945 C42.0728331,27.1261814 42.3663158,25.4386562 42.3663158,25.4386562 L17.7032923,25.4386562 Z M44.2529899,25.4386562 L44.2529899,27.6292945 L55.3005151,27.6292945 L55.3005151,25.4386562 L44.2529899,25.4386562 Z M59.5769765,25.4386562 L60.3840538,27.6292945 L63.5285106,27.6292945 L64.2936618,25.4386562 L59.5769765,25.4386562 Z M68.486271,25.4386562 L68.486271,27.6292945 L79.6595745,27.6292945 L79.6595745,25.4386562 L68.486271,25.4386562 Z M0.125778275,29.683673 L0.125778275,31.8638298 L15.6279507,31.8638298 L15.6279507,29.683673 L0.125778275,29.683673 Z M17.7032923,29.683673 L17.7032923,31.8638298 L34.5470997,31.8638298 C37.5448152,31.8638298 39.7983427,29.683673 39.7983427,29.683673 L17.7032923,29.683673 Z M44.2529899,29.683673 L44.2529899,31.8638298 L55.3005151,31.8638298 L55.3005151,29.683673 L44.2529899,29.683673 Z M61.1072788,29.683673 L61.8933931,31.8533483 L62.0191713,31.8638298 L62.8157671,29.683673 L61.1072788,29.683673 Z M68.486271,29.683673 L68.486271,31.8638298 L79.6595745,31.8638298 L79.6595745,29.683673 L68.486271,29.683673 Z"></path>
        </g>
    </g>
</svg>