<?xml version="1.0" encoding="UTF-8"?>
<svg width="80px" height="48px" viewBox="0 0 80 48" version="1.1" xmlns="http://www.w3.org/2000/svg" xmlns:xlink="http://www.w3.org/1999/xlink" style="background: #FFFFFF;">
    <!-- Generator: Sketch 49.3 (51167) - http://www.bohemiancoding.com/sketch -->
    <title>intel</title>
    <desc>Created with Sketch.</desc>
    <defs></defs>
    <g id="intel" stroke="none" stroke-width="1" fill="none" fill-rule="evenodd">
        <rect id="bg" fill-opacity="0" fill="#FFFFFF" x="0" y="0" width="79.6595745" height="48.0963468"></rect>
        <g transform="translate(3.757527, 0.000000)" fill="#000000" fill-rule="nonzero" id="Shape">
            <path d="M62.7798425,11.1848545 C63.0112585,11.1848545 63.2261447,11.2393544 63.4245013,11.3483541 C63.6228578,11.4590053 63.7798901,11.615073 63.895598,11.8165573 C64.011306,12.0196931 64.06916,12.2319122 64.06916,12.4532146 C64.06916,12.6712139 64.011306,12.8809558 63.895598,13.08244 C63.7964198,13.2855758 63.6393875,13.4424693 63.4245013,13.5531205 C63.2261447,13.6637717 63.0112585,13.7190973 62.7798425,13.7190973 C62.5484266,13.7190973 62.3335403,13.6637717 62.1351838,13.5531205 C61.9368273,13.4424693 61.779795,13.2855758 61.664087,13.08244 C61.5483791,12.8809558 61.4905251,12.6712139 61.4905251,12.4532146 C61.4905251,12.2319122 61.5483791,12.0196931 61.664087,11.8165573 C61.779795,11.615073 61.9368273,11.4590053 62.1351838,11.3483541 C62.35007,11.2393544 62.5649563,11.1848545 62.7798425,11.1848545 Z M62.7798425,11.3954221 C62.5980157,11.3954221 62.4161889,11.4416644 62.2343621,11.534149 C62.069065,11.6233306 61.9368273,11.7537999 61.837649,11.925557 C61.7384707,12.094011 61.6888816,12.2698969 61.6888816,12.4532146 C61.6888816,12.6348807 61.7384707,12.8099408 61.837649,12.9783949 C61.9368273,13.1451974 62.069065,13.2764925 62.2343621,13.3722801 C62.3996592,13.4631132 62.581486,13.5085297 62.7798425,13.5085297 C62.9781991,13.5085297 63.1600259,13.4631132 63.325323,13.3722801 C63.4906201,13.2764925 63.6228578,13.1451974 63.7220361,12.9783949 C63.8212143,12.8099408 63.8708035,12.6348807 63.8708035,12.4532146 C63.8708035,12.2698969 63.8212143,12.094011 63.7220361,11.925557 C63.6228578,11.7537999 63.4906201,11.6233306 63.325323,11.534149 C63.1434962,11.4416644 62.9616694,11.3954221 62.7798425,11.3954221 Z M62.2095675,13.1542808 L62.2095675,11.7917846 L62.6806643,11.7917846 C62.8624911,11.7917846 62.9864639,11.8033452 63.0525828,11.8264663 C63.1352313,11.8528905 63.1930853,11.8974813 63.2261447,11.9602387 C63.2757339,12.0213446 63.3005284,12.0882308 63.3005284,12.1608972 C63.3005284,12.2583363 63.2592042,12.3450406 63.1765556,12.4210101 C63.1104368,12.4936766 63.0112585,12.5341386 62.8790208,12.5423961 C62.9451396,12.5638658 62.9947288,12.5886384 63.0277882,12.6167141 C63.0773773,12.6712139 63.1434962,12.7612213 63.2261447,12.8867361 L63.3997067,13.1542808 L63.1269665,13.1542808 L63.0029936,12.9387586 C62.8872857,12.7703046 62.7963722,12.6646079 62.7302534,12.6216686 C62.697194,12.5902899 62.63934,12.5746006 62.5566914,12.5746006 L62.4327186,12.5746006 L62.4327186,13.1542808 L62.2095675,13.1542808 Z M62.4327186,12.3863284 L62.7054588,12.3863284 C62.8376965,12.3863284 62.9286099,12.367336 62.9781991,12.3293513 C63.0277882,12.289715 63.0525828,12.239344 63.0525828,12.1782381 C63.0525828,12.1369503 63.0443179,12.1006171 63.0277882,12.0692384 C63.0112585,12.0378597 62.9699342,12.0147385 62.9038154,11.9998749 C62.8707559,11.9833598 62.7963722,11.9751023 62.6806643,11.9751023 L62.4327186,11.9751023 L62.4327186,12.3863284 Z M24.6929088,20.3953283 C25.7863492,20.3953283 26.2326514,20.932895 26.2326514,21.8123243 L26.2326514,32.1549085 L29.976631,32.1549085 L29.976631,21.7974607 C29.976631,19.6942621 28.8608755,17.3730642 25.5879927,17.3730642 L17.8868003,17.3730642 L17.8868003,32.1549085 L21.6059853,32.1549085 L21.6059853,20.3953283 L24.6929088,20.3953283 Z M46.9857036,20.2120107 C45.6963862,20.2120107 44.7293981,20.8709633 44.3078904,21.762779 C44.0599448,22.3003456 43.9855611,22.7090945 43.9359719,23.3705244 L49.713106,23.3705244 C49.6139277,21.7553472 48.8700907,20.2120107 46.9857036,20.2120107 Z M43.9359719,25.912199 C43.9359719,27.8196936 45.1509057,29.231735 47.2584439,29.231735 C48.8948853,29.231735 49.7379005,28.7610545 50.6800941,27.8196936 L52.9859887,30.0492327 C51.4983147,31.4860468 49.9610516,32.3778624 47.2336493,32.3778624 C43.6632317,32.3778624 40.2415815,30.4455952 40.2415815,24.728066 C40.2415815,19.870148 43.2169295,17.1203831 47.1592656,17.1203831 C51.1016017,17.1203831 53.3827018,20.3408285 53.3827018,24.5571347 L53.3827018,25.912199 L43.9359719,25.912199 Z M37.0926716,32.1301358 C34.0429399,32.1301358 32.7536224,29.9996874 32.7536224,27.9187842 L32.7536224,13.3375984 L36.4728074,13.3375984 L36.4728074,17.3730642 L39.299388,17.3730642 L39.299388,20.3953283 L36.4728074,20.3953283 L36.4728074,27.6958303 C36.4728074,28.5628733 36.894315,29.0087811 37.7621249,29.0087811 L39.299388,29.0087811 L39.299388,32.1301358 L37.0926716,32.1301358 Z M10.8054721,11.7447166 L14.5643284,11.7447166 L14.5643284,15.3169337 L10.8054721,15.3169337 L10.8054721,11.7447166 Z M14.5643284,17.3730642 L10.8054721,17.3730642 L10.8054721,28.364692 C10.8054721,30.3217319 11.7476656,32.0310452 14.5643284,32.3035444 L14.5643284,17.3730642 Z M59.3581923,11.2343999 L55.5894182,11.2343999 L55.5894182,28.0426475 C55.5894182,29.9996874 56.5316118,31.7090007 59.3581923,31.9814999 L59.3581923,11.2343999 Z M72.4993126,13.6373476 C69.0528679,-3.002446 36.8199313,-4.05528392 16.0544818,8.62088456 L16.0544818,10.0230169 C36.7951368,-0.67629353 66.2510819,-0.608416451 68.928895,14.7199127 C69.846294,19.7983073 66.9949189,25.0699287 61.8872381,28.1169654 L61.8872381,32.1053632 C68.0362906,29.8510514 74.2845214,22.5629358 72.4993126,13.6373476 Z M34.6875986,42.7576056 C20.3612981,44.0953291 5.42009225,42.0144259 3.32991029,30.7924124 C2.28903439,25.2433373 4.81758428,19.3697403 8.15493294,15.7256825 L8.15493294,13.7760744 C2.13853137,19.0650367 -1.12864867,25.7635631 0.757721954,33.6412679 C3.16378669,43.7980572 15.9850571,49.5205409 35.5554085,47.6130463 C43.3161078,46.8698666 53.4570855,44.3678283 60.4739478,40.4785212 L60.4739478,34.9789914 C54.1017442,38.7939805 43.5144643,41.9648806 34.6875986,42.7576056 Z"></path>
        </g>
    </g>
</svg>