<?xml version="1.0" encoding="UTF-8"?>
<svg width="80px" height="48px" viewBox="0 0 80 48" version="1.1" xmlns="http://www.w3.org/2000/svg" xmlns:xlink="http://www.w3.org/1999/xlink" style="background: #FFFFFF;">
    <!-- Generator: Sketch 49.3 (51167) - http://www.bohemiancoding.com/sketch -->
    <title>lego</title>
    <desc>Created with Sketch.</desc>
    <defs></defs>
    <g id="lego" stroke="none" stroke-width="1" fill="none" fill-rule="evenodd">
        <rect id="bg" fill-opacity="0" fill="#FFFFFF" x="0" y="0" width="79.6595745" height="48.0963468"></rect>
        <g transform="translate(0.000000, 6.012043)" fill="#000000" fill-rule="nonzero" id="Shape">
            <path d="M66.3285588,2.19556424 C61.9599489,2.19556424 58.9396406,3.92865258 56.896077,6.34574363 C56.5498534,5.62233336 56.2852598,5.30425803 55.9165176,4.88766378 C54.2445109,2.99610074 51.5507225,2.1122454 47.9421156,2.1122454 C44.4123239,2.1122454 41.4736456,3.21481272 39.4328968,4.94958996 C38.3717074,3.22691647 35.8439937,2.08325269 32.7955372,2.08325269 C28.8125585,2.08325269 24.4777265,2.6490327 21.9007533,6.79639726 C21.841079,5.30172468 21.7037155,4.51357342 20.8640529,3.62296248 C19.8442415,2.54488414 18.1933461,2.26058672 16.5849545,2.26058672 C13.6533133,2.26058672 11.4487416,3.54048808 9.86202421,6.14898729 C7.56062251,9.82514999 1.97882264,21.9260868 2.10633426,27.7854285 C2.18514939,31.5713694 4.72609277,34.2989357 9.27091076,34.4058991 C12.8232211,34.4903439 15.6076469,33.5389327 17.3798614,31.7543331 C18.9691121,33.4770065 21.3954921,34.4931587 24.2975776,34.4931587 C27.5289978,34.4931587 30.7829366,33.5220438 32.7054627,31.4024798 C34.3239877,33.3869321 36.8685903,34.5438256 40.1422329,34.5297514 C44.426398,34.5016032 48.1841907,32.4805582 50.6415337,29.3673606 C51.9870205,33.0350789 55.4042192,34.4931587 59.1394933,34.4931587 C67.3193775,34.4931587 70.9110954,28.8691365 73.9060702,19.9754124 C74.5788136,17.9684415 75.4795579,14.6272431 75.6287437,11.8180468 C75.8764484,7.14262086 73.8976257,2.19556424 66.3285588,2.19556424 Z M77.3964544,14.9872593 C77.0164529,18.0216417 74.9644448,23.6473528 73.8751071,25.8935839 C70.9476881,31.9229411 67.0378949,36.5561447 59.5110503,36.5561447 C55.488664,36.5561447 52.1784287,35.2697692 50.2418284,32.8067965 C47.4101135,35.289473 43.9028404,36.5899226 40.125344,36.5899226 C37.2148139,36.5899226 34.6448778,35.7482896 32.685759,34.1945057 C30.518343,35.7201413 27.6021833,36.5702188 24.3623186,36.5702188 C21.6612116,36.5702188 19.229765,35.8299196 17.3252537,34.4590993 C15.2203269,35.8524382 12.4612345,36.5477002 9.22136982,36.4716999 C3.83097812,36.3450327 0.109778212,32.9250192 0.00281482595,27.962481 C-0.139333885,21.3712846 5.41431772,9.30131088 8.03266882,5.12129434 C9.98953582,1.90394827 12.9805699,0.175082174 16.641814,0.175082174 C20.6174742,0.175082174 22.059791,1.31142741 22.7663123,2.75571461 C25.8344726,0.148341328 29.9018961,1.77635684e-14 32.7955372,1.77635684e-14 C35.9931795,1.77635684e-14 37.9973355,0.847262612 39.7031201,2.20682355 C42.0619442,0.793780919 44.7613623,0.0608002406 47.9815232,0.0608002406 C52.0967987,0.0608002406 55.1508849,1.0172781 57.284523,3.12473829 C59.7700143,1.05415232 62.8860266,0.11174859 66.3707811,0.11174859 C70.9814661,0.11174859 74.0130336,1.77531073 75.7948184,4.25151312 C78.3028284,7.74752695 77.8580859,11.2688742 77.3964544,14.9872593 Z M32.798352,2.66901797 C28.8238178,2.66901797 24.8183204,3.2055238 22.3975701,7.10349477 L21.3991513,8.71357522 L21.3189288,6.82201218 C21.2598175,5.35548786 21.1232984,4.74748545 20.442392,4.02407518 C19.6908335,3.23029426 18.4309174,2.84466311 16.5860804,2.84466311 C13.8762475,2.84466311 11.8402839,4.02407518 10.3579965,6.45608481 C8.07573566,10.0984696 2.56599534,22.0772429 2.68872175,27.7716358 C2.76753688,31.4646875 5.23388738,33.7278075 9.28611082,33.8235116 C12.6256203,33.8995119 15.2805642,33.0438048 16.964956,31.34365 L17.3961874,30.9073519 L17.8091223,31.3577241 C19.3249061,33.0043973 21.6288411,33.9079564 24.2972961,33.9079564 C27.6947911,33.9079564 30.6025063,32.8495818 32.2716981,31.0086857 L32.7276999,30.5048318 L33.1583682,31.0340191 C34.7177818,32.9537304 37.1357173,33.9755122 40.1419514,33.947364 C44.0601892,33.9192157 47.7194629,32.1261716 50.1824356,29.0045296 L50.8270307,28.1882301 L51.1901433,29.1677895 C52.7017048,33.2915095 56.8197952,33.9079564 59.1392118,33.9079564 C67.0150948,33.9079564 70.4154046,28.5063054 73.351268,19.7871005 C74.0803079,17.6253142 74.905052,14.3854495 75.0457932,11.7845503 C75.1499418,9.82543147 74.8853482,7.07816134 73.0303779,5.12467213 C71.5554091,3.56722893 69.3007335,2.77823322 66.3310921,2.77823322 C62.5761143,2.77823322 59.5501764,4.1062681 57.340538,6.7263081 L56.7550542,7.41594046 L56.3666082,6.59964093 C56.0513477,5.93815683 55.8233468,5.66511871 55.479938,5.27667273 C53.9683765,3.56244373 51.4294035,2.69547733 47.9418341,2.69547733 C44.7470067,2.69547733 41.8561804,3.65448853 39.809802,5.39489542 L39.2946888,5.83400827 L38.9372059,5.25696895 C37.9689058,3.68432569 35.5594148,2.66929945 32.7980705,2.66929945 L32.798352,2.66901797 Z M32.9334636,4.57184031 C35.0586572,4.57184031 37.5075558,5.4793402 37.5075558,7.4863111 C37.5075558,10.2673591 35.1515465,11.3285485 32.815241,11.4636602 C31.8159777,11.5199567 30.2818976,11.5762532 29.3642643,11.5115122 C29.3642643,11.5115122 28.5845576,12.6993688 27.7569987,14.8076734 C32.086201,14.199671 33.9214676,15.1820453 33.1896128,17.6844255 C32.2016089,21.0650315 29.2713751,21.2874028 25.6852868,20.6456224 C25.4038042,21.4056254 24.8746169,22.9892465 24.4467634,24.6725124 C25.8344726,24.3262889 26.8759582,24.081399 28.6605579,24.1264362 C30.6928622,24.1771031 31.9933118,25.0215509 31.9933118,26.702002 C31.9933118,30.7778699 27.4895903,31.974171 24.3651334,31.974171 C20.9310458,31.974171 17.9180561,30.0206818 17.9180561,26.2685188 C17.9180561,21.8672569 20.3022137,15.1989342 22.5383114,10.7571389 C25.2883964,5.29919134 28.0975927,4.5721218 32.9334636,4.5721218 L32.9334636,4.57184031 Z M48.0631531,4.68555928 C52.1446508,4.68555928 55.3619968,6.1520836 54.8891061,9.97743207 C54.5456973,12.7838135 53.1410992,14.4304867 50.5908669,14.6303394 C49.8759011,14.6866359 46.9569265,14.6021911 47.9252267,11.8492913 C48.2630058,10.883806 48.4037471,10.1266178 46.9681859,10.1266178 C45.7944034,10.1266178 45.0315856,10.8669171 44.4601759,11.6691425 C43.2075784,13.4284087 40.4884565,20.4879922 40.0662326,23.3833222 C39.7791204,25.3705893 40.6348275,25.7731094 41.5721645,25.7731094 C43.0752816,25.7731094 44.7613623,24.1827327 45.3355868,21.5604409 C45.3355868,21.5604409 42.4729088,21.4900702 43.2638749,18.9510972 C44.0266927,16.4881245 45.4847726,15.9561224 47.8942636,15.8576035 C52.6456898,15.6633805 52.1756139,19.1706536 51.7956124,21.0396981 C50.5627186,27.1129665 46.2391459,31.9938747 40.1225291,31.9938747 C35.9368829,31.9938747 33.3387986,29.6744582 33.3387986,25.407182 C33.3387986,22.36717 34.8475453,17.5915363 36.0438463,14.7992289 C38.588449,8.85150169 41.2597188,4.68555928 48.0631531,4.68555928 Z M66.6410044,4.72215202 C74.7308142,4.8178561 73.2868085,12.0153661 72.6562875,15.1454525 C71.9385069,18.7259111 70.319982,22.9610983 68.5635306,26.119333 C65.6980377,31.2704645 62.2189129,31.9910599 59.1817157,31.9544672 C56.1473333,31.9178744 52.7188753,30.7975737 52.6963567,26.1108885 C52.6682084,22.7471715 54.1262882,17.9968712 55.3619968,14.8864885 C57.5068942,9.23994767 59.7024585,4.64052207 66.6410044,4.72215202 Z M16.6328066,4.83755988 C18.663422,4.83755988 19.1684018,5.87904549 19.1380017,7.12882821 C19.0591865,10.4615821 13.6693578,20.5949556 11.9019286,24.5542898 C16.1348638,23.8196202 17.199431,25.3508855 17.0643194,26.7639281 C16.6674289,31.0086857 12.7745246,31.9544672 9.3947631,31.8784669 C6.94389414,31.8193555 4.74044839,30.69624 4.6788037,27.8532658 C4.57184031,22.8738387 9.64922337,11.3595116 12.040418,7.54542245 C13.1427039,5.72985971 14.4873462,4.83755988 16.6325251,4.83755988 L16.6328066,4.83755988 Z M65.7965566,10.2448405 C65.1012946,10.2448405 64.4932922,10.3686929 63.9500308,11.207511 C62.7255815,12.7978877 59.1479377,22.5698375 59.2126787,24.5205118 C59.240827,25.2185887 59.6208285,25.8322207 60.4849801,25.8322207 C61.472984,25.8322207 62.021875,25.1510329 62.5116548,24.323474 C63.6347703,22.4178369 66.8014495,13.7802619 66.8887091,11.6184756 C66.9168574,10.9907694 66.809894,10.2448405 65.7965566,10.2448405 Z M76.9883046,1.91182979 L76.9883046,1.33873122 L77.3767506,1.33873122 C77.6638629,1.33873122 77.8130486,1.43837606 77.8130486,1.62302864 C77.8130486,1.77080701 77.7201594,1.9115483 77.4274175,1.9115483 L76.9883046,1.9115483 L76.9883046,1.91182979 Z M78.390088,3.10813082 L78.1451981,2.68590692 C77.9340862,2.3143499 77.8749748,2.25889783 77.6976408,2.19331238 L77.6976408,2.1848679 C78.0523088,2.14348996 78.2634208,1.91295572 78.2634208,1.59713225 C78.2634208,1.26498278 78.0523088,1.01221141 77.6019367,1.01221141 L76.5576363,1.01221141 L76.5576363,3.10981971 L76.9883046,3.10981971 L76.9883046,2.25045335 L77.0671198,2.25045335 C77.2500835,2.25045335 77.3260838,2.27015713 77.4105285,2.35460191 C77.4949733,2.43989114 77.6216405,2.61694369 77.6976408,2.76753688 L77.8665303,3.10981971 L78.390088,3.10981971 L78.390088,3.10813082 Z M77.3570468,0.423349823 C78.2577911,0.423349823 78.9924607,1.1515453 78.9924607,2.05257108 C78.9924607,2.9482487 78.2577911,3.68151086 77.3570468,3.68151086 C76.4591174,3.68151086 75.7357071,2.9482487 75.7357071,2.05257108 C75.7357071,1.15182678 76.4591174,0.423349823 77.3570468,0.423349823 Z M77.3570468,0.0228000902 C76.8192399,0.0225728445 76.3034771,0.23650078 75.9237187,0.617315572 C75.5439603,0.998130364 75.3314658,1.51448535 75.333187,2.0522896 C75.3320615,2.58926564 75.5449727,3.10455213 75.924805,3.48412027 C76.3046372,3.86368841 76.8200717,4.07624107 77.3570468,4.07474205 C78.4829772,4.07474205 79.3865364,3.17399774 79.3865364,2.0522896 C79.3865364,0.928048117 78.4801624,0.0228000902 77.3570468,0.0228000902 Z"></path>
        </g>
    </g>
</svg>