<?xml version="1.0" encoding="UTF-8"?>
<svg width="80px" height="48px" viewBox="0 0 80 48" version="1.1" xmlns="http://www.w3.org/2000/svg" xmlns:xlink="http://www.w3.org/1999/xlink" style="background: #FFFFFF;">
    <!-- Generator: Sketch 49.3 (51167) - http://www.bohemiancoding.com/sketch -->
    <title>nike</title>
    <desc>Created with Sketch.</desc>
    <defs></defs>
    <g id="nike" stroke="none" stroke-width="1" fill="none" fill-rule="evenodd">
        <rect id="bg" fill-opacity="0" fill="#FFFFFF" x="0" y="0" width="79.6595745" height="48.0963468"></rect>
        <g id="Nike" transform="translate(0.000000, 13.527098)" fill="#000000" fill-rule="nonzero">
            <path d="M10.7534162,1.3635012 C5.66750801,7.33626489 0.791089255,14.7430272 0.742191242,20.2793118 C0.723146752,22.3623671 1.38815974,24.1808585 2.98326442,25.5582384 C5.27889748,27.5419536 7.80821158,28.2414525 10.3251725,28.2455703 C14.0033326,28.2507174 17.6557568,26.7667914 20.5155186,25.6225779 C25.3317155,23.6965108 78.5703287,0.577015252 78.5703287,0.577015252 C79.0840152,0.319657285 78.9877633,-0.00101074158 78.3448831,0.159065914 C78.0854663,0.223920121 20.3863249,15.8604755 20.3863249,15.8604755 C19.2724796,16.172908 18.1349574,16.3350436 17.0283181,16.3412202 C12.5940403,16.3674707 8.64822798,13.9060991 8.68014037,8.71930661 C8.69249355,6.68978168 9.31375569,4.24230742 10.7534162,1.3635012 Z" id="Shape"></path>
        </g>
    </g>
</svg>