<?xml version="1.0" encoding="UTF-8"?>
<svg width="80px" height="48px" viewBox="0 0 80 48" version="1.1" xmlns="http://www.w3.org/2000/svg" xmlns:xlink="http://www.w3.org/1999/xlink" style="background: #FFFFFF;">
    <!-- Generator: Sketch 49.3 (51167) - http://www.bohemiancoding.com/sketch -->
    <title>vaio</title>
    <desc>Created with Sketch.</desc>
    <defs></defs>
    <g id="vaio" stroke="none" stroke-width="1" fill="none" fill-rule="evenodd">
        <rect id="bg" fill-opacity="0" fill="#FFFFFF" x="0" y="0" width="79.6595745" height="48.0963468"></rect>
        <path d="M64.6437447,24.1989254 C64.6437447,21.0364403 67.2406468,18.471402 70.4349957,18.471402 C73.6293447,18.471402 76.2262468,21.0364403 76.2262468,24.1989254 C76.2262468,27.3614105 73.6293447,29.9264488 70.4349957,29.9264488 C67.2406468,29.9264488 64.6437447,27.3614105 64.6437447,24.1989254 L64.6437447,24.1989254 Z M61.218383,24.1989254 C61.218383,29.2334105 65.3527149,33.3279126 70.4349957,33.3279126 C75.5252426,33.3279126 79.6595745,29.2334105 79.6595745,24.1989254 C79.6595745,19.1644403 75.5252426,15.0699382 70.4349957,15.0699382 C65.3527149,15.0699382 61.218383,19.1644403 61.218383,24.1989254 L61.218383,24.1989254 Z M52.5115915,19.403419 L52.5115915,33.3518105 L55.9449191,33.3518105 L55.9449191,19.3635892 L55.9369532,19.3237595 L55.9369532,19.3157935 C55.9369532,19.1883382 55.9608511,18.2722531 56.5901617,17.8659892 L54.7022298,15.0301084 C52.8939574,16.2090701 52.4797277,18.280219 52.5115915,19.403419 L52.5115915,19.403419 Z M22.3923064,23.2908063 C20.4167489,26.6763382 18.5606809,29.8786531 15.8841191,29.8786531 C13.2155234,29.8786531 11.3594553,26.6763382 9.38389787,23.2908063 C7.14546383,19.4273169 4.6043234,15.0460403 0,15.0460403 L0,18.4475041 C2.61283404,18.4475041 4.46093617,21.6179552 6.41259574,24.9795892 C8.6669617,28.8669765 11.232,33.2721509 15.8841191,33.2721509 C20.5442043,33.2721509 23.1012766,28.8669765 25.3636085,24.9795892 C27.3152681,21.6179552 29.1633702,18.4475041 31.7762043,18.4475041 C34.3890383,18.4475041 36.2371404,21.6179552 38.1888,24.9795892 C40.443166,28.8669765 43.0082043,33.2721509 47.6603234,33.2721509 L47.6603234,29.8786531 C44.9917277,29.8786531 43.1276936,26.6763382 41.1601021,23.2908063 C38.9216681,19.4273169 36.3725617,15.0460403 31.7762043,15.0460403 C27.1718809,15.0460403 24.6307404,19.4273169 22.3923064,23.2908063 L22.3923064,23.2908063 Z" fill="#000000"></path>
    </g>
</svg>