<?xml version="1.0" encoding="UTF-8"?>
<svg width="80px" height="48px" viewBox="0 0 80 48" version="1.1" xmlns="http://www.w3.org/2000/svg" xmlns:xlink="http://www.w3.org/1999/xlink" style="background: #FFFFFF;">
    <!-- Generator: Sketch 49.3 (51167) - http://www.bohemiancoding.com/sketch -->
    <title>yamaha</title>
    <desc>Created with Sketch.</desc>
    <defs>
        <radialGradient cx="32.3874208%" cy="26.4338495%" fx="32.3874208%" fy="26.4338495%" r="50.0019625%" gradientTransform="translate(0.323874,0.264338),scale(1.000000,0.999984),translate(-0.323874,-0.264338)" id="radialGradient-1">
            <stop stop-color="#FCFCFC" offset="0%"></stop>
            <stop stop-color="#000000" offset="100%"></stop>
        </radialGradient>
        <radialGradient cx="-1.70628146%" cy="-1.70508103%" fx="-1.70628146%" fy="-1.70508103%" r="75.0216052%" gradientTransform="translate(-0.017063,-0.017051),scale(1.000000,0.999967),translate(0.017063,0.017051)" id="radialGradient-2">
            <stop stop-color="#E4EBEE" offset="4.76%"></stop>
            <stop stop-color="#F5F8F9" offset="27.22%"></stop>
            <stop stop-color="#FFFFFF" offset="46.67%"></stop>
            <stop stop-color="#BFC1C3" offset="75.24%"></stop>
            <stop stop-color="#DCE0E6" offset="86.67%"></stop>
            <stop stop-color="#E2E6ED" offset="90.48%"></stop>
            <stop stop-color="#BCBEC0" offset="100%"></stop>
        </radialGradient>
    </defs>
    <g id="yamaha" stroke="none" stroke-width="1" fill="none" fill-rule="evenodd">
        <rect id="bg" fill-opacity="0" fill="#FFFFFF" x="0" y="0" width="79.6595745" height="48.0963468"></rect>
        <g id="Yamaha" transform="translate(0.000000, 15.030108)" fill-rule="nonzero">
            <path d="M8.66352456,0.0172938018 C3.89026233,0.0172938018 0.0167533705,3.89080276 0.0167533705,8.66406499 C0.0167533705,13.4373272 3.89052174,17.3111172 8.66352456,17.3111172 C13.4370462,17.3111172 17.3102957,13.4373488 17.3102957,8.66406499 C17.3102957,3.89080276 13.4370462,0.0172938018 8.66352456,0.0172938018 Z" id="path9" fill="url(#radialGradient-1)"></path>
            <path d="M8.69279432,0.576964462 C4.1229072,0.576964462 0.414337873,4.28525276 0.414337873,8.85568031 C0.414337873,13.4255674 4.1229072,17.1367308 8.69279432,17.1367308 C13.2629408,17.1367308 16.9741259,13.4258268 16.9741259,8.85568031 C16.9741259,4.28527438 13.2629408,0.576964462 8.69279432,0.576964462 Z M8.69541001,0.769358007 C8.74350839,0.769358007 8.79318484,0.784511701 8.8318581,0.812203401 C8.87472511,0.842532406 8.90583234,0.88514001 8.92308291,0.933497803 L8.92308291,0.936113491 L8.92543919,0.938729178 L9.20151312,1.94042941 C12.7916631,2.201047 15.6279115,5.19910048 15.6279115,8.8556587 C15.6279115,9.93472708 15.3803507,10.9578716 14.9398992,11.8691253 L15.6506528,12.5851103 L15.6532685,12.587726 L15.6558842,12.5900606 C15.6911636,12.6310902 15.7097328,12.6786914 15.7139265,12.7270492 C15.7183797,12.7756664 15.709214,12.8268776 15.6833381,12.8708039 C15.6590187,12.9131521 15.6221613,12.948172 15.5746033,12.9695947 C15.527802,12.991039 15.4768717,12.9962272 15.4276925,12.9871263 L15.4227205,12.9871263 L15.4203642,12.9871263 L14.4437616,12.7317617 C13.1965759,14.5767942 11.0846784,15.7907542 8.69281594,15.7907542 C6.30121285,15.7907542 4.19089346,14.5767942 2.94450754,12.7317833 L1.97078003,12.990023 L1.96790494,12.990023 L1.96293297,12.990023 C1.90830618,12.9999886 1.85837032,12.9889854 1.81628153,12.9696596 C1.76948018,12.9482369 1.73210395,12.9134331 1.70752514,12.8708687 C1.68374616,12.8295582 1.67224578,12.7780659 1.67721775,12.7297297 C1.68193031,12.6811125 1.6999591,12.6340301 1.73549786,12.5927196 L1.73785414,12.5901471 L1.74046983,12.5877908 L2.4488888,11.8718058 C2.00763745,10.9595145 1.76087651,9.93608896 1.76087651,8.85572355 C1.76087651,5.19814932 4.59738427,2.19879881 8.18960954,1.94049426 L8.46068988,0.9413881 L8.46304616,0.936156725 L8.46304616,0.933541038 C8.48003732,0.885183244 8.51140396,0.84257564 8.55427097,0.812246635 C8.59789458,0.781377199 8.64705221,0.769358007 8.69541001,0.769358007 Z M8.69541001,0.87026734 C8.66614025,0.87026734 8.63581124,0.878633217 8.61175124,0.895883784 C8.58797226,0.912615537 8.56836541,0.938750795 8.55896191,0.96672352 L7.95668365,3.19310594 C7.94124893,3.23649177 7.9346989,3.2887839 7.94883658,3.33240752 C7.96321206,3.37581496 7.98960672,3.41031609 8.02752338,3.43621356 C8.13547994,3.510685 8.17627169,3.65132684 8.22724517,3.78779655 C8.27795925,3.92424465 8.28632512,4.04162633 8.24998652,4.18276537 C8.21338852,4.32368824 8.13262646,4.45200825 8.02205422,4.5469296 C7.82341329,4.71710061 7.64509257,4.92255097 7.53400151,5.16410215 C7.42291045,5.40591273 7.38473439,5.66443345 7.38473439,5.92582927 L7.38473439,6.56812107 L4.27271476,4.77200843 L3.9284384,5.36382394 L7.38473439,7.3575615 L7.38473439,8.08113417 L6.76233046,8.44058584 L3.30627226,6.44421098 L2.96201752,7.04151727 L6.07403715,8.83793255 L5.51724158,9.15944594 C5.29086572,9.28960342 5.08880926,9.45328925 4.93537,9.67024 C4.78167134,9.88747176 4.6896467,10.1446738 4.64180772,10.4013787 C4.61487262,10.5446362 4.54612976,10.6790091 4.44182652,10.780956 C4.33804209,10.882903 4.23112316,10.9312608 4.08736843,10.9552776 C3.94413252,10.9790998 3.80400949,11.0190701 3.68533078,10.9631246 C3.64430123,10.9437772 3.59881853,10.938027 3.55411406,10.9476899 C3.50940958,10.9568556 3.46496451,10.9814344 3.43491653,11.0159139 L1.81340644,12.6580685 C1.794059,12.6800316 1.78050498,12.7098418 1.77784606,12.7391116 C1.77497096,12.7683814 1.78100218,12.794495 1.79561544,12.8201331 C1.81025032,12.8454901 1.83195404,12.8684692 1.85888914,12.8807911 C1.88554321,12.8928535 1.91587221,12.8964852 1.94462316,12.8909944 L4.17623696,12.2988979 C4.22120084,12.2910724 4.26720236,12.2696281 4.29753136,12.2356458 C4.32811977,12.2016635 4.34718619,12.1598341 4.35086112,12.1143514 C4.36130225,11.9831563 4.46301143,11.8801285 4.55579267,11.7677404 C4.64885494,11.6558495 4.74714859,11.5889441 4.88725,11.5500114 C5.02763244,11.5110355 5.17741838,11.519704 5.31516351,11.5680402 C5.56166504,11.6548335 5.82961088,11.7039695 6.09416281,11.679369 C6.35923356,11.6547902 6.60180074,11.5593933 6.8279172,11.4286738 L7.38471277,11.1068793 L7.38471277,14.7001639 L8.07060656,14.7001639 L8.07060656,10.7126887 L8.69536677,10.350924 L9.3180301,10.7100731 L9.3180301,14.7001639 L10.005783,14.7001639 L10.005783,11.106901 L10.5625786,11.4286954 C10.7889544,11.5591339 11.0315432,11.6548118 11.2963329,11.6793907 C11.5614037,11.7037101 11.8290901,11.6517206 12.0755917,11.5649057 C12.2130774,11.5167857 12.3655006,11.5110571 12.505602,11.549752 C12.6457034,11.5889441 12.7393061,11.6558711 12.831828,11.7672648 C12.9243714,11.8796529 13.0289341,11.9805622 13.0391158,12.1112817 C13.0430285,12.1567644 13.0618572,12.1985722 13.0924456,12.2328355 C13.123034,12.2670773 13.1664198,12.2953094 13.2113837,12.303632 L15.4453538,12.888422 C15.4738453,12.8939127 15.5046931,12.8905188 15.5313688,12.8784996 C15.5582823,12.866221 15.5797266,12.8455549 15.5943615,12.8201979 C15.6089964,12.7945598 15.615006,12.7658305 15.6121309,12.7365608 C15.6092558,12.707291 15.5982742,12.6777402 15.5789268,12.6552583 L13.9519475,11.0185945 C13.9223967,10.9840717 13.8800485,10.9548236 13.8356251,10.9453769 C13.7906612,10.9359517 13.7451569,10.9406643 13.7041273,10.9605305 C13.5851892,11.016757 13.4456066,10.9793592 13.3020681,10.9552992 C13.1583133,10.9312824 13.0513728,10.8805467 12.9476316,10.7785998 C12.8435878,10.6761556 12.7745855,10.5417611 12.747672,10.3990224 C12.699833,10.1412799 12.6106835,9.88457505 12.4569848,9.66760269 C12.3030268,9.4500899 12.0965172,9.28962504 11.8698819,9.15942433 L11.3159614,8.83791093 L14.427981,7.04149566 L14.0839641,6.44706445 L10.6279275,8.44315829 L10.0052426,8.08400926 L10.0052426,7.36043659 L13.4615602,5.36646125 L13.1173487,4.77200843 L10.0053074,6.56838047 L10.0053074,5.92585088 C10.0053074,5.66419566 9.96479667,5.40589112 9.85396502,5.16412377 C9.74261456,4.92257259 9.56381826,4.71712223 9.3653935,4.54695122 C9.25482126,4.45202986 9.17431861,4.32370985 9.13769899,4.18278699 C9.10136039,4.04188574 9.11208254,3.92426627 9.16279662,3.78781817 C9.2140295,3.65162948 9.24930886,3.51046882 9.35780585,3.43623518 C9.39518208,3.41009992 9.42473286,3.37585819 9.4385679,3.33242913 C9.45294338,3.28904331 9.453981,3.23649177 9.4385679,3.19312756 L8.82636732,0.966745137 C8.81668279,0.938772413 8.79973487,0.912896562 8.77591265,0.895905401 C8.75265249,0.878633217 8.72493917,0.87026734 8.69541001,0.87026734 Z M8.69541001,5.17404609 C8.85853379,5.17404609 9.02007952,5.2409731 9.13562373,5.3564957 C9.25142735,5.47203991 9.31807334,5.63356402 9.31807334,5.7966878 L9.31807334,6.96568395 L8.69541001,7.3248546 L8.0706498,6.96306826 L8.0706498,5.79666619 C8.0706498,5.6335424 8.13729579,5.47225608 8.25260221,5.35647408 C8.36812481,5.24071369 8.53202681,5.17404609 8.69541001,5.17404609 Z M8.69802569,8.11669455 L9.31807334,8.4761246 L9.31807334,9.19943786 L8.69802569,9.55886791 L8.0706498,9.19682217 L8.0706498,8.47819986 L8.69802569,8.11669455 Z M6.76256825,9.23523603 L7.38497218,9.59440667 L7.38497218,10.3179793 L6.37568429,10.8998725 C6.23426422,10.9814128 6.0604399,11.0028787 5.90228808,10.9607683 C5.74439567,10.9181391 5.60481307,10.8109608 5.52299177,10.6698434 C5.44142988,10.5286827 5.42000718,10.3545773 5.46235538,10.1966633 C5.50470358,10.0382521 5.60926623,9.90100416 5.7509457,9.81970168 L6.76256825,9.23523603 Z M10.6308458,9.23523603 L11.6403931,9.81712922 C11.7815538,9.8986695 11.8887321,10.0359391 11.9313397,10.1940909 C11.9739473,10.3520049 11.9498873,10.5281639 11.868066,10.6695839 C11.7865474,10.8105068 11.6461217,10.9155667 11.4885103,10.9579149 C11.3306179,10.9997659 11.1593876,10.9782999 11.0179676,10.8972568 L10.0058046,10.3127696 L10.0058046,9.59388786 L10.6308458,9.23523603 Z" id="path11" fill="#000000" opacity="0.66"></path>
            <path d="M8.66272472,0.384830324 C4.09257819,0.384830324 0.384268276,4.09285922 0.384268276,8.66328677 C0.384268276,13.2337143 4.09257819,16.9446183 8.66272472,16.9446183 C13.2331307,16.9446183 16.9435158,13.2337143 16.9435158,8.66328677 C16.9435374,4.09285922 13.2328929,0.384830324 8.66272472,0.384830324 Z M8.665081,0.576964462 C8.71291998,0.576964462 8.76283422,0.592118156 8.8015291,0.62009088 C8.84437449,0.650679292 8.87550333,0.693027489 8.89249449,0.74164469 L8.89249449,0.74400097 L8.89511018,0.746876065 L9.17090309,1.7485763 C12.7610531,2.00893448 15.5975392,5.00724737 15.5975392,8.66326515 C15.5975392,9.74235515 15.3499785,10.7649809 14.9095269,11.6767317 L15.62054,12.3929978 L15.6228963,12.3953324 L15.625512,12.3979265 C15.6605535,12.438956 15.6791011,12.4862978 15.6835543,12.5343746 C15.6885263,12.5832728 15.6788417,12.6345057 15.6534847,12.6784103 C15.6289059,12.7207585 15.5920485,12.7557569 15.5447499,12.7772012 C15.4979486,12.7988833 15.4467157,12.8043741 15.3980985,12.7949706 L15.3928671,12.7949706 L15.3902514,12.7949706 L14.4136488,12.5393033 C13.1667441,14.3843142 11.0545872,15.5982742 8.66300574,15.5982742 C6.27088385,15.5982742 4.16080224,14.3843142 2.91415692,12.5393033 L1.94042941,12.7975646 L1.93781372,12.7975646 L1.93258235,12.7975646 C1.87795555,12.8075086 1.8280197,12.796527 1.78593091,12.7772012 C1.73941058,12.7557569 1.70173171,12.7212557 1.67719613,12.6784103 C1.65339554,12.637597 1.64189516,12.5858669 1.64712653,12.5372497 C1.65129866,12.4888919 1.66986788,12.4415717 1.70516886,12.4002828 L1.70778454,12.3979265 L1.71040023,12.3953324 L2.4188192,11.6793258 C1.97730844,10.7673155 1.73054751,9.74363057 1.73054751,8.66326515 C1.73054751,5.00543152 4.56757408,2.0063188 8.15982096,1.7485763 L8.43038249,0.748951321 L8.43273877,0.743719946 L8.43273877,0.741385282 C8.44998934,0.692487058 8.48109657,0.650138861 8.52370417,0.619831473 C8.56730617,0.588724247 8.61698261,0.576964462 8.665081,0.576964462 Z M8.665081,0.678133202 C8.63553022,0.678133202 8.60548224,0.686499079 8.58142224,0.703490239 C8.55736223,0.7204814 8.53803641,0.746335633 8.52863291,0.774308358 L7.92635464,3.0007124 C7.91117933,3.04409822 7.90465092,3.09429348 7.91876699,3.13767931 C7.93314246,3.18106513 7.95979653,3.21792255 7.99717276,3.24353899 C8.10538872,3.31829145 8.14592107,3.45867389 8.19715396,3.59535977 C8.24812744,3.73157008 8.25623391,3.84918955 8.21989531,3.99011242 C8.18383773,4.13125146 8.10017897,4.2596147 7.98960672,4.35425503 C7.79120358,4.52442604 7.61500136,4.73015743 7.5039103,4.97142758 C7.39255983,5.21325978 7.35490258,5.4717805 7.35490258,5.73343572 L7.35490258,6.37596531 L4.24260192,4.57957165 L3.89858497,5.17138716 L7.35488096,7.16512472 L7.35488096,7.88843798 L6.73221763,8.24786803 L3.2758784,6.25153641 L2.93160204,6.84598923 L6.04364329,8.64497696 L5.48710713,8.96651197 C5.26073127,9.09695047 5.05631853,9.26035528 4.90259825,9.47732764 C4.74861856,9.69425676 4.65949063,9.95152368 4.61167327,10.2087474 C4.58473817,10.3514645 4.5157359,10.4857941 4.41169207,10.5883031 C4.30764823,10.6899906 4.20126974,10.7383484 4.05749339,10.7624084 C3.91397645,10.7864468 3.77361564,10.8264603 3.65519633,10.7700177 C3.61388576,10.7504109 3.56814365,10.7452011 3.52343918,10.7551234 C3.4787347,10.7640081 3.43428963,10.7880465 3.40450105,10.8231313 L1.78039689,12.4650048 C1.76102784,12.4874652 1.75006789,12.5169943 1.74719279,12.5463073 C1.74405829,12.5753393 1.7503273,12.6016907 1.76470277,12.6273504 C1.77959706,12.6527074 1.80156018,12.6733519 1.82797647,12.6859115 C1.85488994,12.6979307 1.88521895,12.7031621 1.9142293,12.6981685 L4.14558369,12.106072 C4.19054758,12.0977061 4.23654909,12.07704 4.2671375,12.0427983 C4.2972071,12.0085566 4.31653293,11.9669866 4.32046727,11.9215255 C4.33067061,11.7903088 4.43233655,11.6870215 4.52513941,11.5748929 C4.61794227,11.4622237 4.71623592,11.3960966 4.85659674,11.3574017 C4.99697917,11.3182096 5.14676511,11.3270943 5.28399143,11.3751711 C5.53075237,11.4617049 5.7984388,11.5110787 6.06350955,11.4860027 C6.32803986,11.4617049 6.57090969,11.3667836 6.79702615,11.236064 L7.35382172,10.9142696 L7.35382172,14.5070137 L8.03947772,14.5070137 L8.03947772,10.519798 L8.66449734,10.1580117 L9.28690126,10.5171823 L9.28690126,14.5069921 L9.97517296,14.5069921 L9.97517296,10.914248 L10.5290934,11.2360424 C10.7557287,11.3662215 11.0004144,11.4616833 11.2652041,11.4859811 C11.5302748,11.5110571 11.7979829,11.4590676 12.0447438,11.3722527 C12.1819701,11.3241327 12.3343502,11.3155291 12.4747542,11.3547211 C12.6145962,11.3939132 12.7084583,11.4621589 12.8012396,11.574828 C12.8935236,11.6869783 12.9980863,11.788147 13.0082896,11.918845 C13.0122023,11.9643277 13.031031,12.006157 13.0616194,12.0403988 C13.0919484,12.0746405 13.135853,12.1023538 13.1805575,12.1112385 L15.4145276,12.6960068 C15.4435379,12.7012165 15.4741263,12.6981037 15.5007804,12.6860629 C15.5277155,12.6732438 15.5493976,12.6528588 15.5640325,12.6272423 C15.578408,12.6021447 15.5841582,12.5733937 15.5815425,12.5438646 C15.5786674,12.5143354 15.5676858,12.485044 15.5486194,12.4628215 L13.9216401,10.8258983 C13.8920894,10.7911378 13.8497412,10.7618464 13.8053177,10.7529617 C13.7606132,10.743515 13.7148711,10.7480113 13.6735606,10.7678344 C13.5548818,10.8242986 13.4150398,10.786944 13.2715229,10.762884 C13.1277466,10.7383052 13.0213681,10.6876127 12.9173242,10.5856442 C12.813302,10.4836972 12.7445375,10.3493244 12.7173646,10.2066073 C12.6692662,9.94886476 12.5801167,9.69168431 12.426418,9.47520915 C12.2727194,9.25769635 12.0659504,9.09723149 11.8395745,8.96653358 L11.2830383,8.64499857 L14.3974359,6.84627025 L14.0531595,6.25415209 L10.5971013,8.25052696 L9.97443797,7.8910969 L9.97443797,7.16752424 L13.430734,5.17404609 L13.086717,4.57935548 L9.97469738,6.37572752 L9.97469738,5.73293853 C9.97469738,5.47154271 9.93444605,5.21300038 9.82307397,4.97123303 C9.7117235,4.72970347 9.533165,4.52423148 9.33476186,4.35406048 C9.22393021,4.25913912 9.14340594,4.13107852 9.10708896,3.98989624 C9.07075036,3.8487572 9.08121311,3.73165655 9.13218659,3.59516522 C9.18316007,3.45871712 9.21897986,3.31781587 9.32719582,3.24332282 C9.36483146,3.21746859 9.39384181,3.18061117 9.4082389,3.13720373 C9.42261437,3.09407731 9.42341421,3.04362264 9.4082389,3.00075563 L8.79603832,0.774113802 C8.786116,0.746400485 8.76676856,0.720265227 8.74296796,0.702993043 C8.71972941,0.686499079 8.69463178,0.678133202 8.665081,0.678133202 Z M8.665081,4.98191195 C8.82846419,4.98191195 8.98946949,5.04855794 9.10529473,5.16412377 C9.22107673,5.27992739 9.28748493,5.44121371 9.28748493,5.60457528 L9.28748493,6.77333364 L8.665081,7.13276369 L8.04006139,6.77069634 L8.04006139,5.60429426 C8.04006139,5.44088945 8.10670738,5.27990577 8.22225159,5.16410215 C8.33805521,5.04829853 8.50169781,4.98191195 8.665081,4.98191195 Z M8.665081,7.92456041 L9.28748493,8.28370944 L9.28748493,9.00751989 L8.66769669,9.36645275 L8.04034241,9.00488259 L8.04034241,8.28632512 L8.665081,7.92456041 Z M6.72964517,9.0404862 L7.35440538,9.40253194 L7.35440538,10.1258452 L6.34485808,10.7079978 C6.20343802,10.7895381 6.02985149,10.8104636 5.87169967,10.7686558 C5.71354785,10.7263076 5.57370585,10.6191293 5.49214395,10.4777092 C5.41032265,10.3365918 5.38889996,10.1621838 5.43124815,10.0048318 C5.47359635,9.8464206 5.578159,9.706838 5.71983847,9.62525449 L6.72964517,9.0404862 Z M10.5981822,9.0404862 L11.6100857,9.62525449 C11.7517652,9.70679477 11.8586841,9.84376168 11.9010323,10.0019567 C11.9436399,10.1600869 11.9169643,10.3362892 11.8351646,10.4774498 C11.7536027,10.6186105 11.6160953,10.7236919 11.4579435,10.7660401 C11.3003105,10.8079127 11.1264862,10.7864252 10.9850661,10.7048849 L9.97525942,10.1229917 L9.97525942,9.39941906 L10.5981822,9.0404862 Z" id="path28" fill="url(#radialGradient-2)"></path>
            <polygon id="path30" fill="#000000" points="18.7396501 1.39909018 21.9288001 11.1372083 21.9288001 15.8937388 25.0753425 15.8937388 25.0753425 11.1372083 28.0846369 1.39909018 25.2402821 1.39909018 23.4533135 7.7271949 21.7175779 1.39909018"></polygon>
            <polygon id="path32" fill="#000000" points="38.3811071 1.39909018 38.3811071 15.8937604 40.9983078 15.8937604 40.9983078 6.49362801 42.4982641 15.8937821 44.47447 15.8937821 45.9713134 6.49362801 45.9713134 15.8937821 48.6376718 15.8937821 48.6376718 1.3991118 44.6412904 1.3991118 43.501283 8.2941938 42.4028671 1.3991118"></polygon>
            <polygon id="path34" fill="#000000" points="60.7778342 1.39909018 60.7778342 15.8937604 63.695104 15.8937604 63.695104 9.78472496 66.1800288 9.78472496 66.1800288 15.8937821 69.0277775 15.8937821 69.0277775 1.3991118 66.1800288 1.3991118 66.1800288 7.16544898 63.695104 7.16544898 63.695104 1.39909018"></polygon>
            <path d="M73.1723668,1.39621509 L70.6516438,15.8932416 L73.4967985,15.8932416 L74.0577446,12.3519898 L76.2378877,12.3519898 L76.787355,15.8932416 L79.6570885,15.8932416 L77.1355441,1.39621509 L73.1723668,1.39621509 Z M75.1716167,4.57542114 L75.9132398,9.8199827 L74.3986486,9.8199827 L75.1716167,4.57542114 Z" id="path36" fill="#000000"></path>
            <path d="M52.7411667,1.39621509 L50.2204438,15.8932416 L53.0655552,15.8932416 L53.6265445,12.3519898 L55.8069038,12.3519898 L56.3561117,15.8932416 L59.226083,15.8932416 L56.7045602,1.39621509 L52.7411667,1.39621509 Z M54.7404167,4.57542114 L55.4822775,9.8199827 L53.967427,9.8199827 L54.7404167,4.57542114 Z" id="path38" fill="#000000"></path>
            <path d="M30.3562426,1.39621509 L27.8352387,15.8932416 L30.6803933,15.8932416 L31.2411016,12.3519898 L33.4214825,12.3519898 L33.9706904,15.8932416 L36.8406617,15.8932416 L34.3194199,1.39621509 L30.3562426,1.39621509 Z M32.3552115,4.57542114 L33.0973318,9.8199827 L31.5822218,9.8199827 L32.3552115,4.57542114 Z" id="path40" fill="#000000"></path>
        </g>
    </g>
</svg>