<?xml version="1.0" encoding="UTF-8"?>
<svg width="120px" height="30px" viewBox="0 0 120 30" version="1.1" xmlns="http://www.w3.org/2000/svg" xmlns:xlink="http://www.w3.org/1999/xlink">
    <!-- Generator: sketchtool 58 (101010) - https://sketch.com -->
    <title>89151062-BBC1-4618-BDDB-DA110A94AD0E</title>
    <desc>Created with sketchtool.</desc>
    <g id="mobile" stroke="none" stroke-width="1" fill="none" fill-rule="evenodd">
        <g id="mobile-slidedown" transform="translate(-20.000000, -17.000000)" fill="#022F40">
            <g id="logo-positive-logo/positive" transform="translate(20.000000, 17.000000)">
                <path d="M15,0 C23.2842712,0 30,6.71572875 30,15 C30,23.2842712 23.2842712,30 15,30 C6.71572875,30 0,23.2842712 0,15 C0,6.71572875 6.71572875,0 15,0 Z M16.3545,7.023 C11.1255,7.023 8.5425,10.362 8.5425,14.835 C8.5425,19.707 10.6845,22.752 15.9135,22.752 C17.8245,22.752 19.9245,22.353 21.1635,21.597 L21.1635,17.691 L18.9165,17.691 L18.6015,19.644 C18.5385,19.959 18.4755,20.022 18.2235,20.085 C17.6775,20.253 16.8165,20.358 16.1235,20.358 C13.5195,20.358 11.9025,18.552 11.9025,14.835 C11.9025,11.265 13.6035,9.459 16.2705,9.459 C16.9635,9.459 17.6775,9.564 18.1395,9.711 C18.3495,9.774 18.4335,9.879 18.4755,10.089 L18.8115,12.147 L21.1215,12.336 L21.1215,8.22 C19.9665,7.464 18.0975,7.023 16.3545,7.023 Z" id="Combined-Shape"></path>
                <path d="M42.0751953,10.2333984 C41.0497996,10.2333984 40.2558622,10.6186485 39.6933594,11.3891602 C39.1308566,12.1596718 38.8496094,13.2333916 38.8496094,14.6103516 C38.8496094,17.4756003 39.9247939,18.9082031 42.0751953,18.9082031 C42.9775436,18.9082031 44.0703061,18.6826194 45.3535156,18.2314453 L45.3535156,20.5166016 C44.2988229,20.9560569 43.1211003,21.1757812 41.8203125,21.1757812 C39.9511625,21.1757812 38.5214893,20.6088924 37.53125,19.4750977 C36.5410107,18.3413029 36.0458984,16.7138778 36.0458984,14.5927734 C36.0458984,13.2568293 36.2890601,12.0864308 36.7753906,11.081543 C37.2617212,10.0766551 37.9604447,9.30615502 38.871582,8.77001953 C39.7827194,8.23388404 40.8505798,7.96582031 42.0751953,7.96582031 C43.3232484,7.96582031 44.5771421,8.26757511 45.8369141,8.87109375 L44.9580078,11.0859375 C44.4775367,10.8574207 43.9941431,10.658204 43.5078125,10.4882812 C43.0214819,10.3183585 42.5439477,10.2333984 42.0751953,10.2333984 Z M50.0117188,16.0693359 C50.0117188,17.0419971 50.1713851,17.7773413 50.4907227,18.2753906 C50.8100602,18.77344 51.3300745,19.0224609 52.0507812,19.0224609 C52.7656286,19.0224609 53.2797836,18.7749048 53.5932617,18.2797852 C53.9067398,17.7846655 54.0634766,17.0478565 54.0634766,16.0693359 C54.0634766,15.0966748 53.905275,14.3671899 53.5888672,13.8808594 C53.2724594,13.3945288 52.7539099,13.1513672 52.0332031,13.1513672 C51.3183558,13.1513672 50.802736,13.393064 50.4863281,13.8764648 C50.1699203,14.3598657 50.0117188,15.0908154 50.0117188,16.0693359 Z M56.8056641,16.0693359 C56.8056641,17.6689533 56.3837933,18.9199174 55.5400391,19.8222656 C54.6962848,20.7246139 53.5214919,21.1757812 52.015625,21.1757812 C51.0722609,21.1757812 50.240238,20.9692403 49.5195312,20.5561523 C48.7988245,20.1430643 48.2451191,19.5498086 47.8583984,18.7763672 C47.4716778,18.0029258 47.2783203,17.1005911 47.2783203,16.0693359 C47.2783203,14.4638592 47.6972614,13.2158248 48.5351562,12.3251953 C49.3730511,11.4345659 50.5507737,10.9892578 52.0683594,10.9892578 C53.0117235,10.9892578 53.8437464,11.1943339 54.5644531,11.6044922 C55.2851599,12.0146505 55.8388653,12.6035118 56.2255859,13.3710938 C56.6123066,14.1386757 56.8056641,15.0380808 56.8056641,16.0693359 Z M67.8183594,21 L65.1376953,21 L65.1376953,15.2607422 C65.1376953,14.5517543 65.0190442,14.0200213 64.7817383,13.6655273 C64.5444324,13.3110334 64.170901,13.1337891 63.6611328,13.1337891 C62.9755825,13.1337891 62.4775406,13.3857397 62.1669922,13.8896484 C61.8564438,14.3935572 61.7011719,15.2226505 61.7011719,16.3769531 L61.7011719,21 L59.0205078,21 L59.0205078,11.1738281 L61.0683594,11.1738281 L61.4287109,12.4306641 L61.578125,12.4306641 C61.8417982,11.9794899 62.2226538,11.6264661 62.7207031,11.371582 C63.2187525,11.1166979 63.7900358,10.9892578 64.4345703,10.9892578 C65.9052808,10.9892578 66.9013646,11.4697218 67.4228516,12.4306641 L67.6601562,12.4306641 C67.9238294,11.9736305 68.3120092,11.6191419 68.824707,11.3671875 C69.3374049,11.1152331 69.9160124,10.9892578 70.5605469,10.9892578 C71.6738337,10.9892578 72.5161104,11.2748995 73.0874023,11.8461914 C73.6586943,12.4174833 73.9443359,13.3330015 73.9443359,14.5927734 L73.9443359,21 L71.2548828,21 L71.2548828,15.2607422 C71.2548828,14.5517543 71.1362317,14.0200213 70.8989258,13.6655273 C70.6616199,13.3110334 70.2880885,13.1337891 69.7783203,13.1337891 C69.122067,13.1337891 68.6313493,13.3681617 68.3061523,13.8369141 C67.9809554,14.3056664 67.8183594,15.0497996 67.8183594,16.0693359 L67.8183594,21 Z M82.0917969,21.1757812 C80.9374942,21.1757812 80.0322298,20.7568401 79.3759766,19.9189453 L79.2353516,19.9189453 C79.329102,20.7392619 79.3759766,21.2138665 79.3759766,21.3427734 L79.3759766,25.3242188 L76.6953125,25.3242188 L76.6953125,11.1738281 L78.875,11.1738281 L79.2529297,12.4482422 L79.3759766,12.4482422 C80.0029328,11.4755811 80.9316345,10.9892578 82.1621094,10.9892578 C83.3222714,10.9892578 84.2304655,11.4374955 84.8867188,12.3339844 C85.542972,13.2304732 85.8710938,14.475578 85.8710938,16.0693359 C85.8710938,17.1181693 85.7172867,18.029293 85.409668,18.8027344 C85.1020492,19.5761757 84.6640653,20.165037 84.0957031,20.5693359 C83.5273409,20.9736348 82.8593788,21.1757812 82.0917969,21.1757812 Z M81.3007812,13.1337891 C80.6386686,13.1337891 80.155275,13.3374003 79.8505859,13.7446289 C79.5458969,14.1518575 79.3876954,14.8242141 79.3759766,15.7617188 L79.3759766,16.0517578 C79.3759766,17.1064506 79.5327133,17.8623024 79.8461914,18.3193359 C80.1596695,18.7763695 80.6562466,19.0048828 81.3359375,19.0048828 C82.5371154,19.0048828 83.1376953,18.0146583 83.1376953,16.0341797 C83.1376953,15.067378 82.9897476,14.3422876 82.6938477,13.8588867 C82.3979477,13.3754859 81.9335969,13.1337891 81.3007812,13.1337891 Z M94.3261719,21 L93.8076172,19.6640625 L93.7373047,19.6640625 C93.2861306,20.2324247 92.8217797,20.6264637 92.3442383,20.8461914 C91.8666968,21.0659191 91.2441445,21.1757812 90.4765625,21.1757812 C89.5331984,21.1757812 88.7905301,20.9062527 88.2485352,20.3671875 C87.7065403,19.8281223 87.4355469,19.0605519 87.4355469,18.0644531 C87.4355469,17.0214792 87.8002893,16.2524439 88.5297852,15.7573242 C89.259281,15.2622046 90.3593676,14.9882815 91.8300781,14.9355469 L93.5351562,14.8828125 L93.5351562,14.4521484 C93.5351562,13.4560497 93.0253957,12.9580078 92.0058594,12.9580078 C91.2206992,12.9580078 90.2978569,13.1953101 89.2373047,13.6699219 L88.3496094,11.859375 C89.4804744,11.2675752 90.7343681,10.9716797 92.1113281,10.9716797 C93.4296941,10.9716797 94.4404262,11.2587862 95.1435547,11.8330078 C95.8466832,12.4072294 96.1982422,13.2802676 96.1982422,14.4521484 L96.1982422,21 L94.3261719,21 Z M93.5351562,16.4472656 L92.4980469,16.4824219 C91.7187461,16.5058595 91.1386738,16.6464831 90.7578125,16.9042969 C90.3769512,17.1621107 90.1865234,17.5546849 90.1865234,18.0820312 C90.1865234,18.8378944 90.6201129,19.2158203 91.4873047,19.2158203 C92.1084015,19.2158203 92.6049786,19.0371112 92.9770508,18.6796875 C93.349123,18.3222638 93.5351562,17.8476592 93.5351562,17.2558594 L93.5351562,16.4472656 Z M108.02832,21 L105.347656,21 L105.347656,15.2607422 C105.347656,14.5517543 105.221681,14.0200213 104.969727,13.6655273 C104.717772,13.3110334 104.316409,13.1337891 103.765625,13.1337891 C103.015621,13.1337891 102.473634,13.3842748 102.139648,13.8852539 C101.805662,14.386233 101.638672,15.2167911 101.638672,16.3769531 L101.638672,21 L98.9580078,21 L98.9580078,11.1738281 L101.005859,11.1738281 L101.366211,12.4306641 L101.515625,12.4306641 C101.814455,11.9560523 102.226072,11.5971692 102.750488,11.3540039 C103.274905,11.1108386 103.87109,10.9892578 104.539062,10.9892578 C105.681646,10.9892578 106.548825,11.2983368 107.140625,11.9165039 C107.732425,12.5346711 108.02832,13.426752 108.02832,14.5927734 L108.02832,21 Z M109.381836,11.1738281 L112.317383,11.1738281 L114.171875,16.7021484 C114.330079,17.1826196 114.438476,17.7509733 114.49707,18.4072266 L114.549805,18.4072266 C114.614258,17.8037079 114.740233,17.2353542 114.927734,16.7021484 L116.74707,11.1738281 L119.621094,11.1738281 L115.463867,22.2568359 C115.083006,23.2822317 114.539554,24.0498021 113.833496,24.5595703 C113.127438,25.0693385 112.302739,25.3242188 111.359375,25.3242188 C110.896482,25.3242188 110.442385,25.2744146 109.99707,25.1748047 L109.99707,23.0478516 C110.319338,23.1240238 110.670897,23.1621094 111.051758,23.1621094 C111.52637,23.1621094 111.940916,23.0170913 112.29541,22.7270508 C112.649904,22.4370103 112.926757,21.9990264 113.125977,21.4130859 L113.28418,20.9296875 L109.381836,11.1738281 Z" id="Company"></path>
            </g>
        </g>
    </g>
</svg>