<?xml version="1.0" encoding="UTF-8"?>
<svg width="124px" height="78px" viewBox="0 0 124 78" version="1.1" xmlns="http://www.w3.org/2000/svg" xmlns:xlink="http://www.w3.org/1999/xlink">
    <!-- Generator: sketchtool 58 (101010) - https://sketch.com -->
    <title>62345534-6577-4C2F-8932-A16476321D41</title>
    <desc>Created with sketchtool.</desc>
    <g id="desktop" stroke="none" stroke-width="1" fill="none" fill-rule="evenodd" stroke-linecap="round" stroke-linejoin="round">
        <g transform="translate(-659.000000, -1191.000000)" id="features" stroke-width="3.48387097">
            <g transform="translate(0.000000, 913.000000)">
                <g id="content" transform="translate(136.000000, 113.000000)">
                    <g id="icon-cloud" transform="translate(525.000000, 167.000000)">
                        <path d="M0.197419355,43.2630208 C0.197416562,56.2840192 10.7945014,66.8420104 23.8722581,66.8505208 L101.372903,66.8505208 C111.086952,66.8450351 119.097636,59.2708608 119.604732,49.6121591 C120.111829,39.9534573 112.937951,31.588975 103.277419,30.5751042 C104.31486,27.4033268 103.350616,23.9212183 100.82724,21.7269396 C98.3038641,19.5326609 94.7086275,19.0499338 91.6916129,20.5003125 C86.4403934,8.19329574 74.3105133,0.202185035 60.8806452,0.202185035 C47.4507771,0.202185035 35.3208969,8.19329574 30.0696774,20.5003125 C22.9510164,18.5831083 15.3416464,20.0758984 9.48549262,24.5384742 C3.62933882,29.00105 0.193548387,35.9243911 0.193548387,43.266875 L0.197419355,43.2630208 Z" id="Shape" stroke="#2AB7CA"></path>
                        <path d="M72.9251613,45.8992708 C89.5974194,43.2360417 108.100645,50.9636458 111.793548,73.8959375" id="Shape" stroke="#FF6542"></path>
                        <polyline id="Shape" stroke="#FF6542" points="81.5264516 33.4734375 71.4812903 46.5621875 84.9096774 56.7795833"></polyline>
                    </g>
                </g>
            </g>
        </g>
    </g>
</svg>