<?xml version="1.0" encoding="UTF-8"?>
<svg width="120px" height="95px" viewBox="0 0 120 95" version="1.1" xmlns="http://www.w3.org/2000/svg" xmlns:xlink="http://www.w3.org/1999/xlink">
    <!-- Generator: sketchtool 58 (101010) - https://sketch.com -->
    <title>CAC69263-7E7F-4D8E-82DA-34C7CBFB641E</title>
    <desc>Created with sketchtool.</desc>
    <g id="desktop" stroke="none" stroke-width="1" fill="none" fill-rule="evenodd">
        <g transform="translate(-261.000000, -1180.000000)" fill-rule="nonzero" id="features">
            <g transform="translate(0.000000, 913.000000)">
                <g id="content" transform="translate(136.000000, 113.000000)">
                    <g id="icon-tv" transform="translate(125.000000, 154.000000)">
                        <path d="M51.6913043,58.1367241 C51.3425263,58.1367515 51.0082653,57.9964516 50.7631785,57.7471603 C50.5180917,57.497869 50.3825968,57.1603543 50.3868545,56.81 L50.8402174,21.5322414 C50.8523312,21.0319732 51.1470119,20.5823169 51.5996545,20.3734086 C52.0522971,20.1645004 52.583857,20.2328216 52.9695652,20.5494828 L74.8173913,38.475 C75.1252595,38.7275716 75.3016865,39.1073868 75.296714,39.5066646 C75.291528,39.9059425 75.1054969,40.2811042 74.7913043,40.5256897 L52.5,57.8877586 C52.2654458,58.0586837 51.980914,58.1462799 51.6913043,58.1367241 L51.6913043,58.1367241 Z M53.4130435,24.2839655 L53.0315217,54.127069 L71.8891304,39.447931 L53.4130435,24.2839655 Z" id="Shape" fill="#FF6542"></path>
                        <path d="M109.294565,75.4037931 L94.7673913,75.4037931 C94.0470199,75.4037931 93.4630435,74.8171317 93.4630435,74.0934483 C93.4630435,73.3697648 94.0470199,72.7831034 94.7673913,72.7831034 L109.294565,72.7831034 C110.73913,72.7831034 111.903261,71.5186207 111.903261,69.9625862 L111.903261,10.4827586 C111.903261,8.92672414 110.729348,7.66224138 109.294565,7.66224138 L10.5913043,7.66224138 C9.14673913,7.66224138 7.9826087,8.92672414 7.9826087,10.4827586 L7.9826087,69.9658621 C7.9826087,71.5218966 9.15652174,72.7863793 10.5913043,72.7863793 L77.8923913,72.7863793 C78.6127627,72.7863793 79.1967391,73.3730407 79.1967391,74.0967241 C79.1967391,74.8204076 78.6127627,75.407069 77.8923913,75.407069 L10.5913043,75.407069 C7.70869565,75.407069 5.37391304,72.9665517 5.37391304,69.9658621 L5.37391304,10.4827586 C5.37391304,7.48206897 7.71847826,5.04155172 10.5913043,5.04155172 L109.297826,5.04155172 C112.180435,5.04155172 114.515231,7.48206897 114.515231,10.4827586 L114.515231,69.9658621 C114.521739,72.9632759 112.173913,75.4037931 109.294565,75.4037931 Z" id="Shape" fill="#2AB7CA"></path>
                        <path d="M90.326087,75.2072414 L83.4782609,75.2072414 C82.7578895,75.2072414 82.173913,74.62058 82.173913,73.8968966 C82.173913,73.1732131 82.7578895,72.5865517 83.4782609,72.5865517 L90.326087,72.5865517 C91.0464584,72.5865517 91.6304348,73.1732131 91.6304348,73.8968966 C91.6304348,74.62058 91.0464584,75.2072414 90.326087,75.2072414 Z" id="Shape" fill="#2AB7CA"></path>
                        <path d="M111.009783,80.4355172 L8.87608696,80.4355172 C3.97619443,80.430101 0.00539141424,76.4410415 0,71.5186207 L0,8.91689655 C0.00539141424,3.99447578 3.97619443,0.00541620235 8.87608696,0 L21.1597826,0 C21.880154,0 22.4641304,0.586661362 22.4641304,1.31034483 C22.4641304,2.03402829 21.880154,2.62068966 21.1597826,2.62068966 L8.87608696,2.62068966 C5.41619238,2.62430088 2.61229035,5.44109442 2.60869565,8.91689655 L2.60869565,71.5186207 C2.61229035,74.9944228 5.41619238,77.8112164 8.87608696,77.8148276 L111.009783,77.8148276 C114.469677,77.8112164 117.273579,74.9944228 117.277174,71.5186207 L117.277174,8.91689655 C117.273579,5.44109442 114.469677,2.62430088 111.009783,2.62068966 L26.8336957,2.62068966 C26.1133242,2.62068966 25.5293478,2.03402829 25.5293478,1.31034483 C25.5293478,0.586661362 26.1133242,0 26.8336957,0 L111.009783,0 C115.909675,0.00541620235 119.880478,3.99447578 119.88587,8.91689655 L119.88587,71.5186207 C119.880478,76.4410415 115.909675,80.430101 111.009783,80.4355172 L111.009783,80.4355172 Z" id="Shape" fill="#2AB7CA"></path>
                        <path d="M72.5869565,94.8231034 L50.9380435,94.8231034 C50.2176721,94.8231034 49.6336957,94.2364421 49.6336957,93.5127586 L49.6336957,79.1251724 C49.6336957,78.4014889 50.2176721,77.8148276 50.9380435,77.8148276 L72.5869565,77.8148276 C73.3073279,77.8148276 73.8913043,78.4014889 73.8913043,79.1251724 L73.8913043,93.5127586 C73.8913043,94.2364421 73.3073279,94.8231034 72.5869565,94.8231034 Z M52.2456522,92.2024138 L71.2826087,92.2024138 L71.2826087,80.4355172 L52.2423913,80.4355172 L52.2456522,92.2024138 Z" id="Shape" fill="#2AB7CA"></path>
                        <path d="M101.452174,94.8231034 L21.8869565,94.8231034 C21.1665851,94.8231034 20.5826087,94.2364421 20.5826087,93.5127586 C20.5826087,92.7890752 21.1665851,92.2024138 21.8869565,92.2024138 L101.452174,92.2024138 C102.172545,92.2024138 102.756522,92.7890752 102.756522,93.5127586 C102.756522,94.2364421 102.172545,94.8231034 101.452174,94.8231034 Z" id="Shape" fill="#2AB7CA"></path>
                    </g>
                </g>
            </g>
        </g>
    </g>
</svg>